<?xml version="1.0" encoding="UTF-8" standalone="no"?>
<!-- Created with Inkscape (http://www.inkscape.org/) -->

<svg
   xmlns:osb="http://www.openswatchbook.org/uri/2009/osb"
   xmlns:dc="http://purl.org/dc/elements/1.1/"
   xmlns:cc="http://creativecommons.org/ns#"
   xmlns:rdf="http://www.w3.org/1999/02/22-rdf-syntax-ns#"
   xmlns:svg="http://www.w3.org/2000/svg"
   xmlns="http://www.w3.org/2000/svg"
   xmlns:xlink="http://www.w3.org/1999/xlink"
   xmlns:sodipodi="http://sodipodi.sourceforge.net/DTD/sodipodi-0.dtd"
   xmlns:inkscape="http://www.inkscape.org/namespaces/inkscape"
   width="210mm"
   height="297mm"
   viewBox="0 0 744.09448819 1052.3622047"
   id="svg4204"
   version="1.1"
   inkscape:version="0.48.4 r9939"
   sodipodi:docname="beaker with toothpic.svg.2016_03_23_16_51_19.0.svg">
  <defs
     id="defs4206">
    <linearGradient
       id="linearGradient5271"
       osb:paint="solid">
      <stop
         style="stop-color:#fffdbc;stop-opacity:0.98461539;"
         offset="0"
         id="stop5273" />
    </linearGradient>
    <linearGradient
       id="linearGradient3829">
      <stop
         style="stop-color:#beb67d;stop-opacity:1;"
         offset="0"
         id="stop3831" />
      <stop
         style="stop-color:#000000;stop-opacity:0;"
         offset="1"
         id="stop3833" />
    </linearGradient>
    <linearGradient
       id="linearGradient5413"
       osb:paint="solid">
      <stop
         style="stop-color:#00ffff;stop-opacity:1;"
         offset="0"
         id="stop5415" />
    </linearGradient>
    <linearGradient
       id="linearGradient5360"
       osb:paint="solid">
      <stop
         style="stop-color:#9effff;stop-opacity:1;"
         offset="0"
         id="stop5362" />
    </linearGradient>
    <linearGradient
       id="linearGradient3127">
      <stop
         style="stop-color:#ebe5a9;stop-opacity:1;"
         offset="0"
         id="stop3129" />
      <stop
         id="stop3823"
         offset="0.5"
         style="stop-color:#75f2d4;stop-opacity:0.49803922;" />
      <stop
         style="stop-color:#00ffff;stop-opacity:0;"
         offset="1"
         id="stop3131" />
    </linearGradient>
    <linearGradient
       id="linearGradient4762"
       osb:paint="solid">
      <stop
         style="stop-color:#000000;stop-opacity:1;"
         offset="0"
         id="stop4764" />
    </linearGradient>
    <linearGradient
       inkscape:collect="always"
       xlink:href="#linearGradient5271"
       id="linearGradient5275"
       x1="313.15586"
       y1="545.31229"
       x2="489.67315"
       y2="545.31229"
       gradientUnits="userSpaceOnUse" />
  </defs>
  <sodipodi:namedview
     id="base"
     pagecolor="#ffffff"
     bordercolor="#666666"
     borderopacity="1.0"
     inkscape:pageopacity="0.0"
     inkscape:pageshadow="2"
     inkscape:zoom="0.43509981"
     inkscape:cx="341.8751"
     inkscape:cy="577.66278"
     inkscape:document-units="px"
     inkscape:current-layer="layer1"
     showgrid="false"
     showguides="true"
     inkscape:window-width="1366"
     inkscape:window-height="716"
     inkscape:window-x="0"
     inkscape:window-y="0"
     inkscape:window-maximized="1"
     inkscape:guide-bbox="true" />
  <metadata
     id="metadata4209">
    <rdf:RDF>
      <cc:Work
         rdf:about="">
        <dc:format>image/svg+xml</dc:format>
        <dc:type
           rdf:resource="http://purl.org/dc/dcmitype/StillImage" />
        <dc:title />
      </cc:Work>
    </rdf:RDF>
  </metadata>
  <g
     inkscape:label="Layer 1"
     inkscape:groupmode="layer"
     id="layer1">
    <path
       style="fill:none;stroke:#000000;stroke-width:1px;stroke-linecap:butt;stroke-linejoin:miter;stroke-opacity:1"
       d="m 564.63201,559.36259 1.05341,-191.51137"
       id="path5389"
       inkscape:connector-curvature="0"
       transform="translate(-4.9229925e-6,0)" />
    <path
       style="fill:none;stroke:#000000;stroke-width:1px;stroke-linecap:butt;stroke-linejoin:miter;stroke-opacity:1"
       d="m 564.59749,558.9409 0.86187,285.85396"
       id="path5395"
       inkscape:connector-curvature="0"
       transform="translate(-4.9229925e-6,0)" />
    <path
       style="fill:none;stroke:#000000;stroke-width:0.99287552px;stroke-linecap:butt;stroke-linejoin:miter;stroke-opacity:1"
       d="m 183.43348,386.1227 -0.29441,458.89231"
       id="path5409"
       inkscape:connector-curvature="0" />
    <path
       style="fill:#00ffff;fill-opacity:1;stroke:#000000;stroke-width:0.81257999;stroke-miterlimit:4;stroke-opacity:1;stroke-dasharray:none;stroke-dashoffset:0"
       d=""
       id="path5492"
       inkscape:connector-curvature="0" />
    <path
       style="fill:#00ffff;fill-opacity:1;stroke:#000000;stroke-width:0.81257999;stroke-miterlimit:4;stroke-opacity:1;stroke-dasharray:none;stroke-dashoffset:0"
       d=""
       id="path5494"
       inkscape:connector-curvature="0" />
    <path
       style="fill:#00ffff;fill-opacity:1;stroke:#000000;stroke-width:0.81257999;stroke-miterlimit:4;stroke-opacity:1;stroke-dasharray:none;stroke-dashoffset:0"
       d=""
       id="path5496"
       inkscape:connector-curvature="0" />
    <path
       style="fill:#00ffff;fill-opacity:1;stroke:#000000;stroke-width:0.81257999;stroke-miterlimit:4;stroke-opacity:1;stroke-dasharray:none;stroke-dashoffset:0"
       d=""
       id="path5498"
       inkscape:connector-curvature="0" />
    <path
       style="fill:#00ffff;fill-opacity:1;stroke:#000000;stroke-width:0.81257999;stroke-miterlimit:4;stroke-opacity:1;stroke-dasharray:none;stroke-dashoffset:0"
       d=""
       id="path5502"
       inkscape:connector-curvature="0" />
    <path
       style="fill:#00ffff;fill-opacity:1;stroke:#000000;stroke-width:0.81257999;stroke-miterlimit:4;stroke-opacity:1;stroke-dasharray:none;stroke-dashoffset:0"
       d=""
       id="path5504"
       inkscape:connector-curvature="0" />
    <path
       style="fill:#00ffff;fill-opacity:1;stroke:#000000;stroke-width:0.81257999;stroke-miterlimit:4;stroke-opacity:1;stroke-dasharray:none;stroke-dashoffset:0"
       d=""
       id="path5508"
       inkscape:connector-curvature="0" />
    <path
       style="fill:#00ffff;fill-opacity:1;stroke:#000000;stroke-width:0.81257999;stroke-miterlimit:4;stroke-opacity:1;stroke-dasharray:none;stroke-dashoffset:0"
       d=""
       id="path5510"
       inkscape:connector-curvature="0" />
    <path
       style="fill:#00ffff;fill-opacity:1;stroke:#000000;stroke-width:0.81257999;stroke-miterlimit:4;stroke-opacity:1;stroke-dasharray:none;stroke-dashoffset:0"
       d=""
       id="path5512"
       inkscape:connector-curvature="0" />
    <path
       style="fill:#00ffff;fill-opacity:1;stroke:#000000;stroke-width:0.81257999;stroke-miterlimit:4;stroke-opacity:1;stroke-dasharray:none;stroke-dashoffset:0"
       d=""
       id="path5514"
       inkscape:connector-curvature="0" />
    <path
       style="fill:#00ffff;fill-opacity:1;stroke:#000000;stroke-width:0.81257999;stroke-miterlimit:4;stroke-opacity:1;stroke-dasharray:none;stroke-dashoffset:0"
       d=""
       id="path5516"
       inkscape:connector-curvature="0" />
    <path
       style="fill:#00ffff;fill-opacity:1;stroke:#000000;stroke-width:0.81257999;stroke-miterlimit:4;stroke-opacity:1;stroke-dasharray:none;stroke-dashoffset:0"
       d=""
       id="path5522"
       inkscape:connector-curvature="0" />
    <path
       style="fill:#00ffff;fill-opacity:1;stroke:#000000;stroke-width:0.81257999;stroke-miterlimit:4;stroke-opacity:1;stroke-dasharray:none;stroke-dashoffset:0"
       d="m 560.97731,828.34361 c 0.55014,-0.22259 1.64712,-0.23614 2.43774,-0.0301 0.79061,0.20602 0.34049,0.38814 -1.00026,0.4047 -1.34076,0.0166 -1.98763,-0.15201 -1.43748,-0.37459 z"
       id="path5524"
       inkscape:connector-curvature="0" />
    <path
       style="fill:#00ffff;fill-opacity:1;stroke:#000000;stroke-width:0.81257999;stroke-miterlimit:4;stroke-opacity:1;stroke-dasharray:none;stroke-dashoffset:0"
       d="m 560.97731,828.34361 c 0.55014,-0.22259 1.64712,-0.23614 2.43774,-0.0301 0.79061,0.20602 0.34049,0.38814 -1.00026,0.4047 -1.34076,0.0166 -1.98763,-0.15201 -1.43748,-0.37459 z"
       id="path5526"
       inkscape:connector-curvature="0" />
    <path
       style="fill:#00ffff;fill-opacity:1;stroke:#000000;stroke-width:0.81257999;stroke-miterlimit:4;stroke-opacity:1;stroke-dasharray:none;stroke-dashoffset:0"
       d="m 565.38712,837.00241 c 0,-1.1173 0.18443,-1.57437 0.40985,-1.01573 0.22542,0.55865 0.22542,1.47281 0,2.03145 -0.22542,0.55865 -0.40985,0.10158 -0.40985,-1.01572 z"
       id="path5528"
       inkscape:connector-curvature="0" />
    <path
       sodipodi:type="arc"
       style="fill:#ffffff"
       id="path3164"
       sodipodi:cx="294.96652"
       sodipodi:cy="394.17239"
       sodipodi:rx="108.07314"
       sodipodi:ry="42.254158"
       d="m 403.03967,394.17239 a 108.07314,42.254158 0 1 1 -216.14629,0 108.07314,42.254158 0 1 1 216.14629,0 z"
       transform="translate(-4.9229925e-6,0)" />
    <path
       sodipodi:type="arc"
       style="fill:#ff0000;fill-rule:evenodd;stroke:#000000;stroke-width:1.00000002;stroke-linecap:butt;stroke-linejoin:miter;stroke-opacity:1;stroke-miterlimit:4;stroke-dasharray:1.00000002,1.00000002;stroke-dashoffset:0"
       id="path4062"
       sodipodi:cx="312.0307"
       sodipodi:cy="837.0285"
       sodipodi:rx="120.26183"
       sodipodi:ry="12.1887"
       d="m 432.27422,837.24123 a 120.26183,12.1887 0 1 1 0,0 120.26183,12.1887 0 1 1 0,0 z"
       transform="translate(-4.9229925e-6,0)" />
    <path
       sodipodi:type="arc"
       style="fill:#f9f9f9;fill-rule:evenodd;stroke:#000000;stroke-width:1.10000002;stroke-linecap:butt;stroke-linejoin:miter;stroke-miterlimit:4;stroke-opacity:1;stroke-dasharray:4.40000019, 2.2000001;stroke-dashoffset:0.77000004"
       id="path4064"
       sodipodi:cx="372.97421"
       sodipodi:cy="828.09009"
       sodipodi:rx="190.9563"
       sodipodi:ry="19.501919"
       d="m 563.93051,828.09009 a 190.9563,19.501919 0 1 1 -381.9126,0 190.9563,19.501919 0 1 1 381.9126,0 z"
       transform="translate(-4.9410892e-6,11.37612)"
       inkscape:transform-center-y="-20.051918" />
    <path
       style="fill:none;stroke:#000000;stroke-width:1px;stroke-linecap:butt;stroke-linejoin:miter;stroke-opacity:1"
       d="M 261.65075,259.28413 437.16803,837.84107 302.27976,244.65769"
       id="path4097"
       inkscape:connector-curvature="0"
       transform="translate(-4.9229925e-6,0)" />
    <path
       style="fill:#fcf7f7;fill-opacity:1;fill-rule:evenodd;stroke:#000000;stroke-width:0.99986332;stroke-linecap:butt;stroke-linejoin:miter;stroke-opacity:1;stroke-miterlimit:4;stroke-dasharray:none"
       d="m 370.53645,360.85663 c 0,24.68265 -45.47556,44.6919 -101.57249,44.6919 -56.09694,0 -101.57249,-20.00925 -101.57249,-44.6919 0,-24.68266 45.47555,-44.6919 101.57249,-44.6919 56.09693,0 101.57249,20.00924 101.57249,44.6919 z"
       id="path3172"
       transform="matrix(1.9019071,0,0,1.0679703,-137.75768,-6.6507802)" />
    <path
       style="fill:none;stroke:#000000;stroke-width:1.42500007;stroke-linecap:butt;stroke-linejoin:miter;stroke-miterlimit:4;stroke-opacity:1;stroke-dasharray:none"
       d="m 311.71008,424.05807 c 24.15966,2.77015 26.94128,2.18688 32.32017,2.01103"
       id="path5280"
       inkscape:connector-curvature="0"
       sodipodi:nodetypes="cc" />
    <path
       style="fill:none;stroke:#000000;stroke-width:1.42500007;stroke-linecap:butt;stroke-linejoin:miter;stroke-miterlimit:4;stroke-opacity:1;stroke-dasharray:none"
       d="m 362.99143,426.21274 c 12.93414,0.37752 24.57166,0.47718 32.17652,-0.28729"
       id="path5293"
       inkscape:connector-curvature="0"
       sodipodi:nodetypes="cc" />
    <path
       style="fill:none;stroke:#000000;stroke-width:1px;stroke-linecap:butt;stroke-linejoin:miter;stroke-opacity:1"
       d="m 363.13507,426.0691 31.31466,0"
       id="path5319"
       inkscape:connector-curvature="0"
       transform="translate(-4.9229925e-6,0)" />
    <path
       style="fill:none;stroke:#000000;stroke-width:1px;stroke-linecap:butt;stroke-linejoin:miter;stroke-opacity:1"
       d="m 444.72555,422.90891 45.96646,-5.74581"
       id="path5321"
       inkscape:connector-curvature="0"
       transform="translate(-4.9229925e-6,0)" />
    <path
       style="fill:#faebb1;fill-opacity:0.69230772;stroke:#000000;stroke-width:2.31585288;stroke-miterlimit:4;stroke-opacity:1;stroke-dasharray:none"
       d=""
       id="path5331"
       inkscape:connector-curvature="0" />
    <path
       style="fill:url(#linearGradient5275);fill-opacity:1;stroke:#000000;stroke-width:3.27500007;stroke-linecap:butt;stroke-linejoin:miter;stroke-opacity:1;stroke-miterlimit:4;stroke-dasharray:none"
       d="M 314.51773,264.20891 489.17315,841.90399 355.43404,249.00789"
       id="use4103-7"
       inkscape:connector-curvature="0"
       sodipodi:nodetypes="ccc" />
    <path
       style="fill:#fff9c2;fill-opacity:1;stroke:#000000;stroke-width:3.2750001;stroke-linecap:butt;stroke-linejoin:miter;stroke-miterlimit:4;stroke-opacity:1;stroke-dasharray:none"
       d="m -238.45105,168.08231 95.955,567.11126 -137.55059,-558.3981 z"
       id="path5371"
       inkscape:connector-curvature="0" />
    <path
       style="fill:#fff9c2;fill-opacity:1;stroke:#000000;stroke-width:3.2750001;stroke-miterlimit:4;stroke-opacity:1;stroke-dasharray:none"
       d="m -272.83268,174.1589 c -10.16997,-1.38062 -14.44642,-6.71283 -10.00019,-12.46903 10.94059,-14.16397 47.32881,-14.44844 43.56636,-0.3406 -1.13392,4.25178 -11.64971,10.7006 -20.31372,12.45742 -3.49514,0.70873 -9.45873,0.86721 -13.25245,0.35221 z"
       id="path3981"
       inkscape:connector-curvature="0" />
    <path
       inkscape:connector-curvature="0"
       id="path4101"
       d="M 261.65075,259.28413 437.16803,837.84107 302.27976,247.2433"
       style="fill:#fff9c2;fill-opacity:1;stroke:#000000;stroke-width:3.27500007;stroke-linecap:butt;stroke-linejoin:miter;stroke-opacity:1;stroke-miterlimit:4;stroke-dasharray:none"
       sodipodi:nodetypes="ccc"
       transform="translate(-4.9229925e-6,0)" />
    <path
       sodipodi:type="arc"
       style="fill:#fffac0;fill-opacity:0.96907215999999996;fill-rule:evenodd;stroke:#000000;stroke-width:3.74802194;stroke-linecap:butt;stroke-linejoin:miter;stroke-opacity:1;stroke-miterlimit:4;stroke-dasharray:none"
       id="path4036"
       sodipodi:cx="277.90234"
       sodipodi:cy="238.96964"
       sodipodi:rx="16.2516"
       sodipodi:ry="16.866413"
       d="m 294.15394,238.96964 a 16.2516,16.866413 0 1 1 -32.5032,0 16.2516,16.866413 0 1 1 32.5032,0 z"
       transform="matrix(1.2974302,-0.34502668,0.15718774,0.54668255,-115.76489,217.87448)"
       inkscape:transform-center-x="-5.8022076"
       inkscape:transform-center-y="-17.292455" />
    <path
       sodipodi:type="arc"
       style="fill:#fffbb4;fill-opacity:1;fill-rule:evenodd;stroke:#000000;stroke-width:5.3430694;stroke-linecap:butt;stroke-linejoin:miter;stroke-miterlimit:4;stroke-opacity:1;stroke-dasharray:none"
       id="path4127"
       sodipodi:cx="329.90747"
       sodipodi:cy="248.7206"
       sodipodi:rx="22.752239"
       sodipodi:ry="21.939659"
       d="m 352.65971,248.7206 a 22.752239,21.939659 0 1 1 -45.50448,0 22.752239,21.939659 0 1 1 45.50448,0 z"
       transform="matrix(0.93226273,-0.27044731,0.11758433,0.36888685,-2.1675536,253.69537)" />
    <path
       style="fill:#f9f6a4;stroke:#000000;stroke-width:3.27500007;stroke-linecap:butt;stroke-linejoin:miter;stroke-opacity:1;fill-opacity:1;opacity:1;stroke-miterlimit:4;stroke-dasharray:none"
       d="M 550.92922,314.53957 232.39787,854.09267 507.0499,295.03765 z"
       id="path5317"
       inkscape:connector-curvature="0"
       transform="translate(-4.9229925e-6,0)" />
    <path
       sodipodi:type="arc"
       style="fill:#ffffa9;fill-opacity:1;fill-rule:evenodd;stroke:#000000;stroke-width:3.13890029;stroke-linecap:butt;stroke-linejoin:miter;stroke-miterlimit:4;stroke-opacity:1;stroke-dasharray:none;opacity:1"
       id="path4156"
       sodipodi:cx="507.86249"
       sodipodi:cy="273.91058"
       sodipodi:rx="15.439019"
       sodipodi:ry="14.626439"
       d="m 523.30151,273.91058 a 15.439019,14.626439 0 1 1 -30.87804,0 15.439019,14.626439 0 1 1 30.87804,0 z"
       transform="matrix(1.4501919,0.55248589,-0.21874589,0.66732142,-147.75334,-158.48606)" />
    <path
       style="fill:none;stroke:#000000;stroke-width:3.27500007;stroke-linecap:butt;stroke-linejoin:miter;stroke-opacity:1;stroke-miterlimit:4;stroke-dasharray:none"
       d="m 210.87116,404.52232 35.62401,9.76787"
       id="path5408"
       inkscape:connector-curvature="0"
       transform="translate(-4.9229925e-6,0)" />
    <path
       style="fill:none;stroke:#000000;stroke-width:3.27500007;stroke-linecap:butt;stroke-linejoin:miter;stroke-miterlimit:4;stroke-opacity:1;stroke-dasharray:none"
       d="m 311.41643,423.7912 31.32739,2.22646"
       id="path5410"
       inkscape:connector-curvature="0"
       sodipodi:nodetypes="cc" />
    <path
       style="fill:none;stroke:#000000;stroke-width:3.27500007;stroke-linecap:butt;stroke-linejoin:miter;stroke-opacity:1;stroke-miterlimit:4;stroke-dasharray:none"
       d="m 363.42236,426.35639 32.03288,0"
       id="path5412"
       inkscape:connector-curvature="0"
       transform="translate(-4.9229925e-6,0)" />
    <path
       style="fill:none;stroke:#000000;stroke-width:3.27500007;stroke-linecap:butt;stroke-linejoin:miter;stroke-opacity:1;stroke-miterlimit:4;stroke-dasharray:none"
       d="m 443.57639,423.05255 47.40291,-6.32039"
       id="path5414"
       inkscape:connector-curvature="0"
       transform="translate(-4.9229925e-6,0)" />
    <path
       style="fill:#e3dedb;fill-opacity:1;stroke:#000000;stroke-width:3.27511048;stroke-miterlimit:4;stroke-opacity:1;stroke-dasharray:none"
       d="m 560.63652,835.68685 c -3.68173,1.13112 -28.39761,-6.90099 -60.0705,-10.34758 -9.47543,-1.0311 -12.784,-0.85355 -13.61735,-3.65091 -0.6341,-2.1285 -16.42872,-69.96397 -33.60943,-146.2763 L 422.10158,536.6624 457.01564,477.37523 c 33.8863,-57.54195 28.65736,-58.51854 36.70033,-59.96761 20.97227,-3.77849 61.763,-23.55746 70.56274,-31.25665 3.0614,-2.67853 -0.61542,28.7304 -0.61542,222.47383 0,143.89534 2.0904,218.18905 0.57458,218.21252 -1.26408,0.0207 -1.45404,9.55309 0.28013,10.65162 4.4446,2.81547 0.67238,0.7701 -3.88148,-1.80209 z"
       id="path3260"
       inkscape:connector-curvature="0"
       sodipodi:nodetypes="cssscsssscsc" />
    <path
       style="fill:#e3dedb;fill-opacity:1;stroke:#000000;stroke-width:3.34567952;stroke-miterlimit:4;stroke-opacity:1;stroke-dasharray:none"
       d="m 306.77535,857.93816 c -9.8331,-0.83389 -29.76355,-2.29146 -44.28987,-3.23905 l -26.41149,-1.72288 7.2351,-12.77824 c 8.35119,-14.74941 0.97887,-15.82827 40.11062,-17.09238 l 28.39764,-0.91738 2.51044,10.23671 c 3.57662,14.58408 4.5278,17.08969 5.93136,15.62435 0.68299,-0.71304 0.28279,-6.80497 -0.88931,-13.53761 l -2.13111,-12.24116 56.94935,0 56.94935,0 1.50828,7.16936 c 2.32942,11.07258 6.72565,12.20465 4.75247,1.2238 l -1.63397,-9.09311 11.40239,0.0501 c 6.01099,0.0264 16.40159,0.2224 23.05301,1.24958 l 12.2251,0.29987 2.17933,11.09517 c 2.37539,12.09336 5.18139,10.51936 3.40315,-0.92093 -1.30402,-8.38926 -4.14099,-9.24449 4.76898,-9.23035 12.11403,0.0192 55.66526,9.26657 63.82066,12.50372 7.99809,3.1747 5.86651,5.64813 -7.9252,9.19612 -15.44521,3.97337 -21.63861,4.94291 -50.55214,7.91368 -32.43444,3.33254 -166.84464,6.28999 -191.36414,4.21063 z"
       id="path3262"
       inkscape:connector-curvature="0"
       sodipodi:nodetypes="cscsscssscccsscsscssssssc" />
    <path
       style="fill:#e3dedb;fill-opacity:1;stroke:#000000;stroke-width:3.27511048;stroke-miterlimit:4;stroke-opacity:1;stroke-dasharray:none"
       d="m 202.82654,846.5912 c -6.32038,-1.54199 -13.5601,-3.96692 -16.08826,-5.38873 -4.43752,-2.49561 -4.39166,-2.66304 1.32457,-4.83639 7.89692,-3.00246 55.03698,-12.04161 56.48891,-10.58968 0.62891,0.62891 -3.61616,7.54779 -6.45403,13.38899 -4.90926,10.10473 -5.61179,10.61087 -14.46967,10.4249 -5.12045,-0.1075 -14.48113,-1.45709 -20.80152,-2.99909 z"
       id="path3264"
       inkscape:connector-curvature="0"
       sodipodi:nodetypes="sssssss" />
    <path
       style="fill:#e3dedb;fill-opacity:1;stroke:#000000;stroke-width:3.33343792;stroke-miterlimit:4;stroke-opacity:1;stroke-dasharray:none"
       d="m 183.18054,614.4344 c 0.1985,-215.82485 1.53901,-236.02743 4.19986,-220.06687 0.51006,3.05951 7.86358,5.30489 12.34147,7.18854 l 8.1416,3.42483 40.99814,165.45129 40.99814,165.45128 -20.80273,45.12201 -22.83416,45.93452 -24.62551,3.6225 c -12.38913,1.8224 -25.52706,5.0907 -29.47771,6.2719 -6.5386,1.9549 -6.8484,4.6809 -7.30192,4.6809 -0.45353,0 -1.7504,-103.97413 -1.63718,-227.0809 z"
       id="path3266"
       inkscape:connector-curvature="0"
       sodipodi:nodetypes="ssscccccssss" />
    <path
       style="fill:#e3dedb;fill-opacity:1;stroke:#000000;stroke-width:3.27511048;stroke-miterlimit:4;stroke-opacity:1;stroke-dasharray:none"
       d="m 252.91366,823.07998 c 0,-0.63488 10.63373,-18.05471 21.6442,-36.72442 l 20.01904,-33.94494 8.3526,33.17389 c 4.59394,18.24563 8.25488,33.30488 8.13542,33.46499 -0.72426,0.97079 -58.15126,4.97045 -58.15126,4.03048 z"
       id="path3268"
       inkscape:connector-curvature="0"
       sodipodi:nodetypes="sscscs" />
    <path
       style="fill:#e3dedb;fill-opacity:1;stroke:#000000;stroke-width:3.27511048;stroke-miterlimit:4;stroke-opacity:1;stroke-dasharray:none"
       d="m 317.40456,818.5843 c -8.6e-4,-0.72141 -3.90155,-19.63156 -7.67505,-41.02939 l -6.86091,-38.90516 33.75149,-57.39867 c 18.56332,-31.56927 33.63377,-58.49746 33.98645,-57.35754 6.13835,19.8398 58.16281,194.36747 58.60484,194.49356 16.06593,4.5827 -25.07631,1.31065 -56.30892,0.66893 -30.96337,-0.63619 -55.49704,0.24969 -55.4979,-0.47173 z"
       id="path3270"
       inkscape:connector-curvature="0"
       sodipodi:nodetypes="sscsssss" />
    <path
       style="fill:#e3dedb;fill-opacity:1;stroke:#000000;stroke-width:3.32234049;stroke-miterlimit:4;stroke-opacity:1;stroke-dasharray:none"
       d="m 297.85644,717.05286 c -0.0566,-1.7599 -11.03793,-68.59245 -24.40305,-148.51675 -13.3651,-79.92432 -24.66719,-148.89709 -25.12614,-150.92013 -1.64784,-7.26366 1.63676,-3.48252 9.83578,-2.03391 5.4097,0.95579 19.90383,4.75157 31.19969,6.1966 l 20.53792,2.62733 25.04271,83.81574 25.04271,83.81575 -31.01339,64.1076 c -17.05737,35.25918 -31.05968,62.66767 -31.11623,60.90777 z"
       id="path3272"
       inkscape:connector-curvature="0"
       sodipodi:nodetypes="csssscccscc" />
    <path
       style="fill:#e3dedb;fill-opacity:1;stroke:#000000;stroke-width:3.27511048;stroke-miterlimit:4;stroke-opacity:1;stroke-dasharray:none"
       d="m 360.80101,494.01755 c -7.90642,-35.02168 -15.78696,-66.48292 -15.77429,-67.43098 0.0127,-0.94806 4.88601,0.30771 9.09166,0.30771 l 7.64664,0 14.88973,48.83937 15.70231,49.65195 -7.60586,14.12652 c -4.27896,7.94741 -9.04429,20.88744 -9.80924,21.77903 -0.76494,0.89158 -6.23453,-32.25191 -14.14095,-67.2736 z"
       id="path3274"
       inkscape:connector-curvature="0"
       sodipodi:nodetypes="ccscccssc" />
    <path
       style="fill:#e3dedb;fill-opacity:1;stroke:#000000;stroke-width:3.27511048;stroke-miterlimit:4;stroke-opacity:1;stroke-dasharray:none"
       d="m 451.52238,820.49932 c -13.635,-0.70418 -14.90898,0.55526 -16.49038,-3.86766 -0.99584,-2.7852 -13.42211,-54.27364 -26.47535,-111.97118 l -23.73316,-104.90463 8.88154,-15.18276 c 4.88485,-8.35053 10.25492,-18.43005 10.12775,-17.61375 0.68542,0.004 8.77936,27.52191 17.98654,58.17208 9.20718,30.65017 26.3825,87.53062 38.16737,126.40102 l 21.42704,70.67343 -7.14,-0.45014 c -3.92701,-0.24758 -14.16512,-0.81297 -22.75135,-1.25641 z"
       id="path3276"
       inkscape:connector-curvature="0"
       sodipodi:nodetypes="ssscscsscss" />
    <path
       style="fill:#e3dedb;fill-opacity:1;stroke:#000000;stroke-width:3.27511048;stroke-miterlimit:4;stroke-opacity:1;stroke-dasharray:none"
       d="m 194.33071,394.40971 c -14.92318,-10.36903 -15.76718,-20.03412 -3.15965,-28.95217 3.46162,-2.44861 5.47991,-3.935 7.34154,-5.31695 l 4.72065,20.60263 c 5.00982,21.86466 8.12777,22.18904 -8.90254,13.66649 z"
       id="path3278"
       inkscape:connector-curvature="0"
       sodipodi:nodetypes="cscscc" />
    <path
       style="fill:#e3dedb;fill-opacity:1;stroke:#000000;stroke-width:3.27500007;stroke-miterlimit:4;stroke-opacity:1;stroke-dasharray:none"
       d="m 283.26786,418.90166 c -25.46834,-3.5016 -35.61596,-5.69439 -35.65052,-7.70368 -0.0146,-0.84762 -2.42278,-15.6557 -5.35156,-32.90685 l -5.32506,-31.36572 18.56692,-3.68549 c 26.40593,-5.24152 28.13501,-5.02936 30.86946,3.78763 1.2741,4.10825 6.06174,19.88049 10.63918,35.04943 4.57745,15.16893 9.24975,30.42405 10.38291,33.90026 1.48356,4.5512 3.52414,6.85256 1.54151,6.65381 -1.51434,-0.15181 -14.29614,-2.16522 -25.67284,-3.72939 z"
       id="path3280"
       inkscape:connector-curvature="0"
       sodipodi:nodetypes="scscssssss" />
    <path
       style="fill:#e3dedb;fill-opacity:1;stroke:#000000;stroke-width:3.27511048;stroke-miterlimit:4;stroke-opacity:1;stroke-dasharray:none"
       d="m 338.4193,397.59066 c -3.41192,-14.85292 -8.03547,-35.0207 -10.27455,-44.8173 l -4.07105,-17.81201 7.4381,-1.21887 c 4.43633,-0.72697 3.88459,5.59642 15.65625,44.5765 7.2015,23.84669 15.12509,45.43649 15.12509,46.23931 0,0.80282 -5.5502,0.0377 -9.85089,0.0377 l -7.81944,0 z"
       id="path3282"
       inkscape:connector-curvature="0"
       sodipodi:nodetypes="sscsssscs" />
    <path
       style="fill:#e3dedb;fill-opacity:1;stroke:#000000;stroke-width:3.27511048;stroke-miterlimit:4;stroke-opacity:1;stroke-dasharray:none"
       d="m 396.19068,421.71402 c -1.54784,-5.20567 -19.84073,-86.93249 -19.84073,-88.55615 0,-2.58259 94.44751,3.68528 105.42646,7.08564 1.89765,0.58774 -6.36108,14.84926 -19.40165,41.14492 -10.8239,21.82586 -19.86945,39.82342 -20.10121,39.9946 -0.23176,0.17118 -10.41782,1.02009 -22.63568,1.88648 -20.20319,1.43264 -23.74791,3.6376 -23.44719,-1.55549 z"
       id="path3284"
       inkscape:connector-curvature="0"
       sodipodi:nodetypes="csssssc" />
    <path
       style="fill:#e3dedb;fill-opacity:1;stroke:#000000;stroke-width:3.27511048;stroke-miterlimit:4;stroke-opacity:1;stroke-dasharray:none"
       d="m 491.79986,416.44431 c 0,-1.59482 36.04171,-63.28425 38.4045,-65.64704 3.02959,-3.02958 32.13237,16.36551 35.04498,22.75799 5.27466,11.57663 -10.05081,22.72193 -40.65754,32.35035 -16.62063,5.2286 -32.79194,12.02085 -32.79194,10.5387 z"
       id="path3286"
       inkscape:connector-curvature="0"
       sodipodi:nodetypes="sssss" />
    <path
       style="fill:#e3dedb;fill-opacity:1;stroke:#000000;stroke-width:3.27511048;stroke-miterlimit:4;stroke-opacity:1;stroke-dasharray:none"
       d="m 411.66178,488.55468 c -0.66057,-1.89612 -5.10224,-20.29058 -7.88407,-32.93136 -2.78183,-12.64078 -5.79445,-25.75062 -6.34356,-27.20174 -0.69231,-1.82951 5.85453,-1.34355 20.70429,-1.9887 11.77847,-0.51172 23.74772,-1.87604 24.14042,-1.62731 0.39269,0.24874 -7.98948,14.89769 -16.16912,31.14868 -8.75269,17.38951 -13.74111,34.62938 -14.44796,32.60043 z"
       id="path3288"
       inkscape:connector-curvature="0"
       sodipodi:nodetypes="sssscss" />
    <path
       style="fill:#fff9c2;fill-opacity:1;stroke:#000000;stroke-width:3.2750001;stroke-linecap:butt;stroke-linejoin:miter;stroke-miterlimit:4;stroke-opacity:1;stroke-dasharray:none"
       d="m 223.33755,279.26371 95.955,567.11127 -137.5506,-558.39811 z"
       id="path5371-2"
       inkscape:connector-curvature="0" />
    <path
       style="fill:#fff9c2;fill-opacity:1;stroke:#000000;stroke-width:3.2750001;stroke-miterlimit:4;stroke-opacity:1;stroke-dasharray:none"
       d="m 191.20856,291.59554 c -10.17,-1.38062 -14.4464,-6.71283 -10.0002,-12.46903 10.9406,-14.16397 47.3288,-14.44844 43.5664,-0.3406 -1.134,4.25178 -11.6498,10.7006 -20.3138,12.45742 -3.4951,0.70873 -9.4587,0.86721 -13.2524,0.35221 z"
       id="path3981-6"
       inkscape:connector-curvature="0" />
  </g>
</svg>
