<?xml version="1.0" encoding="UTF-8" standalone="no"?>
<!-- Created with Inkscape (http://www.inkscape.org/) -->

<svg
   xmlns:dc="http://purl.org/dc/elements/1.1/"
   xmlns:cc="http://creativecommons.org/ns#"
   xmlns:rdf="http://www.w3.org/1999/02/22-rdf-syntax-ns#"
   xmlns:svg="http://www.w3.org/2000/svg"
   xmlns="http://www.w3.org/2000/svg"
   xmlns:sodipodi="http://sodipodi.sourceforge.net/DTD/sodipodi-0.dtd"
   xmlns:inkscape="http://www.inkscape.org/namespaces/inkscape"
   width="744.09448819"
   height="1052.3622047"
   id="svg2"
   version="1.1"
   inkscape:version="0.48.4 r9939"
   sodipodi:docname="face_front.svg">
  <defs
     id="defs4" />
  <sodipodi:namedview
     id="base"
     pagecolor="#ffffff"
     bordercolor="#666666"
     borderopacity="1.0"
     inkscape:pageopacity="0.0"
     inkscape:pageshadow="2"
     inkscape:zoom="1.4"
     inkscape:cx="405.10078"
     inkscape:cy="771.7618"
     inkscape:document-units="px"
     inkscape:current-layer="layer1"
     showgrid="false"
     inkscape:window-width="1366"
     inkscape:window-height="716"
     inkscape:window-x="0"
     inkscape:window-y="0"
     inkscape:window-maximized="1" />
  <metadata
     id="metadata7">
    <rdf:RDF>
      <cc:Work
         rdf:about="">
        <dc:format>image/svg+xml</dc:format>
        <dc:type
           rdf:resource="http://purl.org/dc/dcmitype/StillImage" />
        <dc:title />
      </cc:Work>
    </rdf:RDF>
  </metadata>
  <g
     inkscape:label="Layer 1"
     inkscape:groupmode="layer"
     id="layer1">
    <path
       sodipodi:type="arc"
       style="fill:#ffffff;stroke:#000000;stroke-width:1;stroke-miterlimit:4;stroke-opacity:1;stroke-dasharray:none"
       id="path2994"
       sodipodi:cx="265.87604"
       sodipodi:cy="216.37367"
       sodipodi:rx="7.6953983"
       sodipodi:ry="28.84565"
       d="M 273.57144,216.37367 A 7.6953983,28.84565 0 1 1 258.2023,214.21086"
       transform="matrix(1.887783,0.2474123,0,1.4193497,-229.30836,-135.55345)"
       sodipodi:start="0"
       sodipodi:end="3.2166418"
       sodipodi:open="true" />
    <path
       sodipodi:type="arc"
       style="fill:#ffffff;fill-rule:evenodd;stroke:#000000;stroke-width:1px;stroke-linecap:butt;stroke-linejoin:miter;stroke-opacity:1"
       id="path2990"
       sodipodi:cx="416.18286"
       sodipodi:cy="243.73508"
       sodipodi:rx="81.822357"
       sodipodi:ry="105.56094"
       d="m 497.55699,232.70096 a 81.822357,105.56094 0 1 1 -163.1515,7.53423"
       transform="matrix(1.1043481,0,0,1.1418871,-91.246447,-45.582708)"
       sodipodi:start="6.1784656"
       sodipodi:end="9.4579392"
       sodipodi:open="true" />
    <path
       sodipodi:type="arc"
       style="fill:#ffffff;stroke:#000000;stroke-width:1;stroke-miterlimit:4;stroke-opacity:1;stroke-dasharray:none"
       id="path2994-3"
       sodipodi:cx="265.87604"
       sodipodi:cy="216.37367"
       sodipodi:rx="7.6953983"
       sodipodi:ry="28.84565"
       d="m 273.42226,210.72148 a 7.6953983,28.84565 0 0 1 -10.06429,32.90986"
       transform="matrix(1.820751,0.2196932,0,1.2603313,-26.714232,-92.80274)"
       sodipodi:start="6.0859631"
       sodipodi:end="8.1873395"
       sodipodi:open="true" />
    <path
       style="fill:none;stroke:#000000;stroke-width:1.33844411px;stroke-linecap:butt;stroke-linejoin:miter;stroke-opacity:1"
       d="m 339.83078,128.95997 c -19.56752,54.98976 -32.30796,92.07206 -92.44075,106.17063"
       id="path3800"
       inkscape:connector-curvature="0"
       sodipodi:nodetypes="cc" />
    <path
       style="fill:none;stroke:#000000;stroke-width:1.27479219px;stroke-linecap:butt;stroke-linejoin:miter;stroke-opacity:1"
       d="m 339.60169,129.64244 c 25.14216,42.6664 99.12789,87.96084 143.17753,106.14761"
       id="path3802"
       inkscape:connector-curvature="0"
       sodipodi:nodetypes="cc" />
    <path
       style="fill:none;stroke:#000000;stroke-width:1px;stroke-linecap:butt;stroke-linejoin:miter;stroke-opacity:1"
       d="m 340,129.50504 c -9.10475,-4.50751 -4.67229,-15.35703 -3.79866,-29.04749 0.79725,-12.493461 -0.47788,-27.38647 15.94152,-35.238226 25.21553,-12.058066 42.99068,-13.288368 55.83569,-11.689852 11.49836,1.430931 18.47846,4.560969 32.55408,13.465595 81.27938,51.419573 105.76135,356.303693 127.32451,386.081393 -8.94815,-4.69956 -18.1399,-2.28423 -26.42857,-6.42856 -15.47548,-7.73774 -35.43475,0.27953 -47.14286,-11.42857 -18.33489,-18.3349 -48.20737,-41.33756 -71.42857,-47.14286 -9.99901,38.53765 -24.93014,87.09629 -48.57143,102.85714"
       id="path3808"
       inkscape:connector-curvature="0"
       sodipodi:nodetypes="cssssc" />
    <path
       style="fill:none;stroke:#000000;stroke-width:1px;stroke-linecap:butt;stroke-linejoin:miter;stroke-opacity:1"
       d="M 340,80.219325 C 207.36307,53.315124 189.12459,315.56394 175.71428,393.79075 c 40.97435,6.64124 89.26121,78.11159 118.57143,58.57143"
       id="path3810"
       inkscape:connector-curvature="0"
       sodipodi:nodetypes="cc" />
    <path
       sodipodi:type="arc"
       style="fill:#ffffff;stroke:#000000;stroke-width:1;stroke-miterlimit:4;stroke-opacity:1;stroke-dasharray:none"
       id="path3812"
       sodipodi:cx="322.99628"
       sodipodi:cy="24.531967"
       sodipodi:rx="0.25253814"
       sodipodi:ry="1.0101526"
       d="m 323.24882,24.531967 a 0.25253814,1.0101526 0 0 0 -0.50494,-0.03349"
       sodipodi:start="0"
       sodipodi:end="-3.1084314"
       sodipodi:open="true" />
    <path
       style="fill:none;stroke:#000000;stroke-width:1px;stroke-linecap:butt;stroke-linejoin:miter;stroke-opacity:1"
       d="m 314.66252,333.13357 c 7.19648,22.85072 5.66583,45.32032 2.52538,63.63961 -0.12376,19.32627 32.58406,59.64667 45.66924,72.73186 3.88869,3.88869 12.85715,27.95983 12.85715,14.28571"
       id="path3826"
       inkscape:connector-curvature="0" />
    <path
       style="fill:none;stroke:#000000;stroke-width:1px;stroke-linecap:butt;stroke-linejoin:miter;stroke-opacity:1"
       d="m 420.72854,330.10311 c -0.80639,22.26276 1.71919,47.20762 6.06091,65.65992"
       id="path3832"
       inkscape:connector-curvature="0" />
    <path
       style="fill:none;stroke:#000000;stroke-width:0.83334917px;stroke-linecap:butt;stroke-linejoin:miter;stroke-opacity:1"
       d="m 297.36011,217.32098 c 17.08851,-2.72099 42.77845,3.55486 54.08432,4.20687 7.19842,0.41512 -0.46426,-1.90635 -5.34693,-4.63398 -4.88266,-2.72763 -35.32,-12.57151 -41.68602,-8.75583 -6.36602,3.81568 -10.79647,9.77928 -7.05137,9.18294 z"
       id="path3867"
       inkscape:connector-curvature="0"
       sodipodi:nodetypes="sszzs" />
    <path
       style="fill:none;stroke:#000000;stroke-width:0.83334917px;stroke-linecap:butt;stroke-linejoin:miter;stroke-opacity:1"
       d="m 440.72705,220.3688 c -7.15869,-1.13987 -13.02621,-0.98583 -21.78931,-0.99362 -8.74303,-0.008 -26.73553,8.86223 -33.30516,9.2411 -7.19842,0.41513 3.99979,-8.47234 8.88246,-11.19997 4.88266,-2.72763 29.76416,-12.06644 36.13018,-8.25076 6.36602,3.81568 13.82693,11.79958 10.08183,11.20325 z"
       id="path3867-0"
       inkscape:connector-curvature="0"
       sodipodi:nodetypes="ssszzs" />
    <path
       sodipodi:type="arc"
       style="fill:#ffffff;stroke:#000000;stroke-width:1;stroke-miterlimit:4;stroke-opacity:1;stroke-dasharray:none"
       id="path3928"
       sodipodi:cx="406.07144"
       sodipodi:cy="234.86218"
       sodipodi:rx="5.7142854"
       sodipodi:ry="6.7857141"
       d="m 411.78573,234.86218 a 5.7142854,6.7857141 0 1 1 -11.42857,0 5.7142854,6.7857141 0 1 1 11.42857,0 z"
       transform="translate(5.5357143,-0.35714286)" />
    <path
       sodipodi:type="arc"
       style="fill:#ffffff;stroke:#000000;stroke-width:1;stroke-miterlimit:4;stroke-opacity:1;stroke-dasharray:none"
       id="path3930"
       sodipodi:cx="411.25"
       sodipodi:cy="244.14789"
       sodipodi:rx="3.0357144"
       sodipodi:ry="2.8571432"
       d="m 414.28571,244.14789 a 3.0357144,2.8571432 0 1 1 -6.07142,0 3.0357144,2.8571432 0 1 1 6.07142,0 z"
       transform="matrix(0.98382511,0,0,1.2258821,6.4838669,-64.595297)" />
    <path
       style="fill:none;stroke:#000000;stroke-width:1px;stroke-linecap:butt;stroke-linejoin:miter;stroke-opacity:1"
       d="m 389.10714,239.32647 c 13.89659,-11.49187 33.6718,-18.54806 49.64286,-7.14286"
       id="path3926"
       inkscape:connector-curvature="0"
       sodipodi:nodetypes="cc" />
    <path
       style="fill:none;stroke:#000000;stroke-width:1.02423382px;stroke-linecap:butt;stroke-linejoin:miter;stroke-opacity:1"
       d="m 439.97059,229.78326 c -18.26398,-13.65684 -44.87383,2.16834 -47.72078,5.10991 -2.84695,2.94156 -4.05935,4.50723 -2.13354,5.2913 7.75769,3.15843 36.24295,2.08919 48.06397,-8.37649 1.7304,-1.53199 1.2583,-1.3136 1.79035,-2.02472 z"
       id="path3906-6"
       inkscape:connector-curvature="0"
       sodipodi:nodetypes="czssc" />
    <path
       style="fill:none;stroke:#000000;stroke-width:0.46922264px;stroke-linecap:butt;stroke-linejoin:miter;stroke-opacity:1"
       d="m 369.72038,311.1756 c 16.20558,-5.59681 22.96965,-0.5362 34.38586,-0.72685"
       id="path3934"
       inkscape:connector-curvature="0"
       sodipodi:nodetypes="cc" />
    <path
       style="fill:none;stroke:#000000;stroke-width:0.6045804px;stroke-linecap:butt;stroke-linejoin:miter;stroke-opacity:1"
       d="m 371.78983,311.50933 c -18.4351,-7.62536 -25.02996,0.44138 -37.45892,0.77608"
       id="path3934-2"
       inkscape:connector-curvature="0"
       sodipodi:nodetypes="cc" />
    <path
       style="fill:none;stroke:#000000;stroke-width:0.94145846px;stroke-linecap:butt;stroke-linejoin:miter;stroke-opacity:1"
       d="m 334.82947,312.93813 c 22.70264,2.52473 45.41768,4.47779 68.29546,-1.06595"
       id="path3954"
       inkscape:connector-curvature="0"
       sodipodi:nodetypes="cc" />
    <path
       style="fill:none;stroke:#000000;stroke-width:0.76424319px;stroke-linecap:butt;stroke-linejoin:miter;stroke-opacity:1"
       d="m 346.86953,315.4877 c 13.629,8.0813 27.24902,16.24618 43.67231,-1.66491"
       id="path3956"
       inkscape:connector-curvature="0"
       sodipodi:nodetypes="cc" />
    <path
       style="fill:none;stroke:#000000;stroke-width:1.02423382px;stroke-linecap:butt;stroke-linejoin:miter;stroke-opacity:1"
       d="m 303.17656,231.26058 c 18.26398,-13.65684 44.87383,2.16834 47.72078,5.10991 2.84695,2.94156 4.05935,4.50723 2.13354,5.2913 -7.75769,3.15843 -36.24295,2.08919 -48.06397,-8.37649 -1.7304,-1.53199 -1.2583,-1.3136 -1.79035,-2.02472 z"
       id="path3906-6-5"
       inkscape:connector-curvature="0"
       sodipodi:nodetypes="czssc" />
    <path
       style="fill:none;stroke:#000000;stroke-width:1px;stroke-linecap:butt;stroke-linejoin:miter;stroke-opacity:1"
       d="m 353.49981,240.60729 c -13.89659,-11.49187 -33.6718,-18.54806 -49.64286,-7.14286"
       id="path3926-5"
       inkscape:connector-curvature="0"
       sodipodi:nodetypes="cc" />
    <path
       transform="matrix(-1,0,0,1,737.41788,0.76102791)"
       sodipodi:type="arc"
       style="fill:#ffffff;stroke:#000000;stroke-width:1;stroke-miterlimit:4;stroke-opacity:1;stroke-dasharray:none"
       id="path3928-9"
       sodipodi:cx="406.07144"
       sodipodi:cy="234.86218"
       sodipodi:rx="5.7142854"
       sodipodi:ry="6.7857141"
       d="m 411.78573,234.86218 a 5.7142854,6.7857141 0 1 1 -11.42857,0 5.7142854,6.7857141 0 1 1 11.42857,0 z" />
    <path
       sodipodi:type="arc"
       style="fill:#ffffff;stroke:#000000;stroke-width:1;stroke-miterlimit:4;stroke-opacity:1;stroke-dasharray:none"
       id="path3930-2"
       sodipodi:cx="411.25"
       sodipodi:cy="244.14789"
       sodipodi:rx="3.0357144"
       sodipodi:ry="2.8571432"
       d="m 414.28571,244.14789 a 3.0357144,2.8571432 0 1 1 -6.07142,0 3.0357144,2.8571432 0 1 1 6.07142,0 z"
       transform="matrix(0.98382511,0,0,1.2258821,-72.515683,-63.577683)" />
    <path
       style="fill:none;stroke:#000000;stroke-width:1px;stroke-linecap:butt;stroke-linejoin:miter;stroke-opacity:1"
       d="m 363.65491,289.19194 c 4.88241,2.79655 9.76481,3.41331 14.64722,-0.50508"
       id="path4036"
       inkscape:connector-curvature="0"
       sodipodi:nodetypes="cc" />
    <path
       style="fill:none;stroke:#000000;stroke-width:1px;stroke-linecap:butt;stroke-linejoin:miter;stroke-opacity:1"
       d="m 378.21429,288.61218 c 4.15844,1.59398 7.15106,1.32265 8.92857,-0.89286"
       id="path4038"
       inkscape:connector-curvature="0"
       sodipodi:nodetypes="cc" />
    <path
       style="fill:none;stroke:#000000;stroke-width:1px;stroke-linecap:butt;stroke-linejoin:miter;stroke-opacity:1"
       d="m 364.46429,288.90799 c -4.15844,1.59398 -7.15106,1.32265 -8.92857,-0.89286"
       id="path4038-1"
       inkscape:connector-curvature="0"
       sodipodi:nodetypes="cc" />
    <path
       style="fill:none;stroke:#000000;stroke-width:0.84779161px;stroke-linecap:butt;stroke-linejoin:miter;stroke-opacity:1"
       d="m 365.08129,284.21727 c -2.4001,-2.82912 -2.74031,-13.78408 0.41749,-38.53799"
       id="path4062"
       inkscape:connector-curvature="0"
       sodipodi:nodetypes="cc" />
    <path
       style="fill:#deaa87;stroke:#000000;stroke-width:1.42857145999999990;stroke-linejoin:miter;stroke-miterlimit:4;stroke-opacity:1;stroke-dasharray:none"
       d="m 350.25025,349.33964 c -12.64764,-3.40115 -21.6101,-9.12399 -34.43519,-21.98806 -22.08832,-22.15547 -33.44496,-48.50991 -35.27704,-81.86458 -0.46521,-8.4695 -1.39676,-15.73958 -2.07011,-16.15574 -1.75002,-1.08157 -1.51467,15.21701 0.41962,29.05955 1.50109,10.74238 1.41808,12.04398 -0.93388,14.64286 -3.51047,3.87902 -7.308,3.58348 -10.17483,-0.79185 -3.63065,-5.54108 -7.67804,-21.75234 -7.67804,-30.75335 l 0,-8.03089 9.17523,-3.89953 c 5.04637,-2.14474 12.58237,-6.04779 16.74667,-8.67345 4.16429,-2.62567 8.21263,-4.37766 8.99631,-3.89332 0.78368,0.48434 6.90839,1.00234 13.61047,1.1511 6.70208,0.14877 19.81374,1.34168 29.13703,2.65091 9.32328,1.30924 17.35798,1.97387 17.85489,1.47696 3.60931,-3.60931 -30.10866,-15.29152 -44.86918,-15.54576 l -7.20573,-0.12411 5.41756,-7.14286 c 7.34169,-9.67976 18.01994,-31.03875 24.81438,-49.63454 3.08445,-8.44185 5.98125,-15.35256 6.43734,-15.35714 0.45609,-0.005 2.81234,2.72383 5.2361,6.06311 11.74968,16.18785 37.62201,39.02536 64.32811,56.78244 l 14.67919,9.7603 -4.67919,0.91787 c -12.72233,2.49563 -27.6611,8.80916 -33.11117,13.99369 -4.21138,4.00618 -5.24548,5.79681 -4.04246,6.99983 1.20303,1.20302 5.38072,0.37769 16.33122,-3.22634 12.98948,-4.27511 16.38954,-4.82652 29.00037,-4.70322 7.85714,0.0768 14.66946,-0.45102 15.13849,-1.17297 0.4708,-0.72467 3.83025,0.13393 7.5,1.91683 l 6.64722,3.22947 0,9.79883 c 0,13.19516 -2.30164,27.84361 -6.67228,42.46464 -15.77676,52.77769 -58.33252,83.34069 -100.3211,72.04932 z m 35.36569,-29.70873 c 3.7168,-2.71312 9.32637,-5.2859 12.7722,-5.85787 3.66428,-0.60823 5.92404,-1.68505 5.59832,-2.66772 -0.82804,-2.4982 -20.56183,-4.24735 -27.68437,-2.45388 -4.07036,1.02493 -7.24157,1.05414 -9.77725,0.0901 -5.29908,-2.0147 -11.65988,-1.77837 -23.3816,0.86873 -10.81027,2.44121 -12.27859,4.84721 -2.95815,4.84721 3.09648,0 5.62997,0.52466 5.62997,1.1659 0,1.00227 12.07213,7.13143 18.57143,9.42892 5.03962,1.7815 14.76388,-0.70182 21.22945,-5.42143 l 0,0 z M 381.205,290.60549 c 8.46645,-1.12714 9.11953,-3.31064 0.71942,-2.40525 -9.09848,0.98064 -14.18391,1.02865 -21.47561,0.20274 -5.05927,-0.57306 -5.80519,-0.35696 -4.44117,1.28659 0.90166,1.08642 2.74116,1.62562 4.08778,1.19822 1.34663,-0.4274 3.98801,-0.14568 5.86974,0.62603 1.88173,0.77173 4.70705,1.0659 6.27847,0.65373 1.57143,-0.41217 5.60405,-1.1151 8.96137,-1.56206 z m -16.3857,-15.07654 c -0.36672,-4.91071 -0.0837,-13.62083 0.62894,-19.35582 0.71263,-5.73499 0.81261,-10.72581 0.22218,-11.09072 -1.14824,-0.70965 -2.49625,9.40475 -2.96303,22.23226 -0.41786,11.48297 0.0822,17.14285 1.5146,17.14285 0.69523,0 0.96403,-4.01785 0.59731,-8.92857 z m -10.33933,-33.45062 c 2.45882,-2.45882 -3.67558,-8.34017 -13.23084,-12.68504 -7.36007,-3.3467 -10.96314,-4.09359 -19.71978,-4.0878 -11.16675,0.007 -20.75502,3.29914 -19.62029,6.73584 0.82187,2.48917 15.02314,9.40126 22.47743,10.9403 7.91919,1.63502 28.1628,1.02738 30.09348,-0.9033 l 0,0 z m 72.82569,-3.26112 c 4.28732,-1.63015 9.40226,-4.25028 11.36655,-5.82252 3.51435,-2.81293 3.52647,-2.89304 0.75842,-5.01282 -4.6063,-3.52753 -13.78312,-5.3231 -22.17428,-4.33869 -8.07183,0.94694 -21.55551,6.32491 -26.0454,10.3882 -3.85535,3.48905 -3.2053,7.26244 1.38983,8.06751 8.19054,1.43499 26.97038,-0.34083 34.70488,-3.28168 l 0,0 z"
       id="path3099"
       inkscape:connector-curvature="0" />
    <path
       style="fill:#241f1c;stroke:#000000;stroke-width:1.42857145999999990;stroke-linejoin:miter;stroke-miterlimit:4;stroke-opacity:1;stroke-dasharray:none"
       d=""
       id="path3101"
       inkscape:connector-curvature="0" />
    <path
       style="fill:#241f1c;stroke:#000000;stroke-width:1.42857146;stroke-linejoin:miter;stroke-miterlimit:4;stroke-opacity:1;stroke-dasharray:none"
       d=""
       id="path3103"
       inkscape:connector-curvature="0" />
    <path
       style="fill:#241f1c;stroke:#000000;stroke-width:1.42857145999999990;stroke-linejoin:miter;stroke-miterlimit:4;stroke-opacity:1;stroke-dasharray:none"
       d=""
       id="path3105"
       inkscape:connector-curvature="0" />
    <path
       style="fill:#241f1c;stroke:#000000;stroke-width:1.42857146;stroke-linejoin:miter;stroke-miterlimit:4;stroke-opacity:1;stroke-dasharray:none"
       d="m 410.10078,234.45752 c 0,-0.78571 0.64285,-1.42857 1.42857,-1.42857 0.78571,0 1.42857,0.64286 1.42857,1.42857 0,0.78572 -0.64286,1.42857 -1.42857,1.42857 -0.78572,0 -1.42857,-0.64285 -1.42857,-1.42857 z"
       id="path3107"
       inkscape:connector-curvature="0" />
    <path
       style="fill:#241f1c;stroke:#000000;stroke-width:1.42857146;stroke-linejoin:miter;stroke-miterlimit:4;stroke-opacity:1;stroke-dasharray:none"
       d=""
       id="path3109"
       inkscape:connector-curvature="0" />
    <path
       style="fill:#241f1c;stroke:#000000;stroke-width:1.42857146;stroke-linejoin:miter;stroke-miterlimit:4;stroke-opacity:1;stroke-dasharray:none"
       d=""
       id="path3111"
       inkscape:connector-curvature="0" />
    <path
       style="fill:#241f1c;stroke:#000000;stroke-width:1.42857146;stroke-linejoin:miter;stroke-miterlimit:4;stroke-opacity:1;stroke-dasharray:none"
       d=""
       id="path3113"
       inkscape:connector-curvature="0" />
    <path
       style="fill:#241f1c;stroke:#000000;stroke-width:1.42857145999999990;stroke-linejoin:miter;stroke-miterlimit:4;stroke-opacity:1;stroke-dasharray:none"
       d=""
       id="path3115"
       inkscape:connector-curvature="0" />
    <path
       style="fill:#241f1c;stroke:#000000;stroke-width:1.42857146;stroke-linejoin:miter;stroke-miterlimit:4;stroke-opacity:1;stroke-dasharray:none"
       d="m 330.81506,235.88609 c -0.4856,-0.78571 -0.20211,-1.42857 0.62998,-1.42857 0.83208,0 1.51288,0.64286 1.51288,1.42857 0,0.78572 -0.28349,1.42858 -0.62998,1.42858 -0.34648,0 -1.02728,-0.64286 -1.51288,-1.42858 z"
       id="path3117"
       inkscape:connector-curvature="0" />
    <path
       style="fill:#241f1c;stroke:#000000;stroke-width:1.42857146;stroke-linejoin:miter;stroke-miterlimit:4;stroke-opacity:1;stroke-dasharray:none"
       d=""
       id="path3119"
       inkscape:connector-curvature="0" />
    <path
       style="fill:#241f1c;stroke:#000000;stroke-width:1.42857146;stroke-linejoin:miter;stroke-miterlimit:4;stroke-opacity:1;stroke-dasharray:none"
       d=""
       id="path3121"
       inkscape:connector-curvature="0" />
    <path
       style="fill:#241f1c;stroke:#000000;stroke-width:1.42857146;stroke-linejoin:miter;stroke-miterlimit:4;stroke-opacity:1;stroke-dasharray:none"
       d=""
       id="path3123"
       inkscape:connector-curvature="0" />
    <path
       style="fill:#241f1c;stroke:#000000;stroke-width:1.42857146;stroke-linejoin:miter;stroke-miterlimit:4;stroke-opacity:1;stroke-dasharray:none"
       d="m 332.24363,217.93457 c -7.07142,-1.0064 -17.62991,-1.87901 -23.4633,-1.93914 l -10.60616,-0.10934 3.35518,-3.57142 c 4.17509,-4.44418 9.75669,-4.61675 24.49188,-0.75724 10.73469,2.81168 25.27255,8.50406 21.2224,8.30975 -1.17857,-0.0565 -7.92857,-0.92622 -15,-1.93261 z"
       id="path3125"
       inkscape:connector-curvature="0" />
    <path
       style="fill:#241f1c;stroke:#000000;stroke-width:1.42857145999999990;stroke-linejoin:miter;stroke-miterlimit:4;stroke-opacity:1;stroke-dasharray:none"
       d="m 385.84556,226.27045 c 0.0679,-2.44477 11.61071,-9.04736 21.79163,-12.46498 14.98845,-5.03145 22.18207,-4.86066 27.46359,0.65205 l 4.10597,4.28572 -12.8742,0 c -9.7318,0 -15.28895,0.81657 -22.76727,3.34543 -13.01607,4.40149 -17.75688,5.52031 -17.71972,4.18178 z"
       id="path3127"
       inkscape:connector-curvature="0" />
    <path
       style="fill:#deaa87;stroke:#000000;stroke-width:1.42857146;stroke-linejoin:miter;stroke-miterlimit:4;stroke-opacity:1;stroke-dasharray:none"
       d="m 455.16791,271.709 c -0.50245,-0.81298 -0.27405,-2.67305 0.50755,-4.13349 1.69273,-3.16288 4.42532,-23.81031 4.42532,-33.43765 0,-3.75276 0.35335,-6.82319 0.78523,-6.82319 0.43187,0 2.68187,0.98079 5,2.17954 3.74906,1.93872 4.21477,2.91234 4.21477,8.81155 0,10.7261 -2.9175,24.39023 -6.26981,29.36473 -3.23536,4.80094 -7.08323,6.59473 -8.66306,4.03851 z"
       id="path3129"
       inkscape:connector-curvature="0" />
    <path
       style="fill:none;stroke:#000000;stroke-width:1px;stroke-linecap:butt;stroke-linejoin:miter;stroke-opacity:1"
       d="m 318.57143,375.21933 c -19.17726,6.21956 -17.4961,59.98439 -22.85714,81.42857"
       id="path3133"
       inkscape:connector-curvature="0" />
    <path
       style="fill:#1a1a1a;stroke:#000000;stroke-width:1.42857146;stroke-linejoin:miter;stroke-miterlimit:4;stroke-opacity:1;stroke-dasharray:none"
       d="m 267.24363,449.64204 c -4.71428,-2.25443 -14.03571,-8.24676 -20.71428,-13.31629 -35.97376,-27.30674 -43.90999,-32.9116 -53.13883,-37.5286 -5.55621,-2.77966 -11.30153,-5.05391 -12.7674,-5.05391 -3.64717,0 -3.63056,-0.22095 3.7687,-50.15347 13.77681,-92.97023 25.80191,-141.77472 45.95488,-186.51022 17.41235,-38.65185 38.92987,-62.496851 65.78255,-72.898023 8.04665,-3.116803 12.14303,-3.773552 24.20546,-3.88072 7.98581,-0.07095 14.84,0.192431 15.23154,0.585288 0.39153,0.392857 0.009,10.49868 -0.85106,22.457385 -1.41464,19.68001 -1.33628,21.99355 0.82584,24.38268 2.2495,2.48566 2.01226,3.63356 -4.06858,19.68547 -8.58302,22.65704 -13.64427,33.27937 -21.45436,45.02741 -12.22403,18.38757 -30.51381,31.62513 -53.1316,38.45497 -5.69643,1.72013 -10.35714,3.70776 -10.35714,4.41694 0,1.6361 1.76716,1.63313 6.08954,-0.01 3.38883,-1.28843 3.43231,-1.18648 5.0272,11.78572 2.05438,16.70945 3.82841,22.66638 8.35086,28.04102 4.21363,5.0076 9.23613,5.62635 13.23233,1.63015 2.64752,-2.64753 2.77172,-2.49057 6.39859,8.08647 4.70764,13.72886 13.78626,29.61416 22.53412,39.42904 3.75937,4.21792 6.52287,7.98129 6.14112,8.36303 -0.38175,0.38176 0.27491,4.80487 1.45925,9.82917 1.18433,5.02429 2.16283,13.81722 2.17444,19.53983 0.0202,9.9369 -0.19693,10.62281 -4.82807,15.25396 -7.68354,7.68354 -12.35031,25.92948 -16.0175,62.62455 -0.87449,8.75045 -1.36758,9.91715 -4.981,11.78572 -6.34727,3.28206 -15.28769,2.55316 -24.8666,-2.02757 z"
       id="path3141"
       inkscape:connector-curvature="0" />
    <path
       style="fill:#1a1a1a;stroke:#000000;stroke-width:1.42857146;stroke-linejoin:miter;stroke-miterlimit:4;stroke-opacity:1;stroke-dasharray:none"
       d="m 553.67221,448.47127 c -1.96429,-0.32845 -7.42858,-1.8109 -12.14286,-3.29435 -4.71429,-1.48344 -13.71429,-3.11138 -20,-3.61765 -17.79129,-1.43296 -20.79503,-2.64005 -32.33362,-12.99348 -17.57684,-15.77148 -34.09554,-27.50178 -48.65246,-34.54921 -10.98491,-5.31811 -14.0113,-7.43933 -14.65724,-10.27334 -1.90384,-8.35305 -3.55728,-25.93023 -3.59829,-38.25237 l -0.0441,-13.25239 7.96657,-9.60476 c 7.95933,-9.59604 18.83697,-29.91805 22.16018,-41.4005 0.96804,-3.34478 2.46054,-5.94363 3.31666,-5.7752 0.85613,0.16843 3.26592,-0.14604 5.3551,-0.69884 6.19982,-1.64047 9.89749,-11.2398 10.82693,-28.10726 l 0.78245,-14.1997 4.01083,2.07407 c 4.41074,2.28089 7.01698,2.65438 6.9967,1.00266 -0.007,-0.58928 -5.47152,-3.56731 -12.14286,-6.61783 -7.2287,-3.30537 -12.1297,-6.3975 -12.1297,-7.65284 0,-1.37123 -0.82334,-1.7905 -2.35893,-1.20123 -4.41164,1.6929 -48.27854,-25.40054 -71.91078,-44.41415 -18.11385,-14.57371 -39.83874,-37.97717 -48.9068,-52.68557 -1.62215,-2.63114 2.81744,-40.168461 5.39261,-45.595232 3.04917,-6.42566 7.38064,-9.507893 20.73612,-14.755648 27.66245,-10.869377 46.4092,-10.872543 67.5824,-0.01141 21.12316,10.83546 38.46563,32.062542 52.63298,64.42244 20.93504,47.81806 33.59657,94.62207 56.07626,207.28856 15.88067,79.59277 19.83331,98.02594 22.81601,106.40253 1.22422,3.43807 2.22585,6.81307 2.22585,7.5 0,1.26294 -3.47238,1.35415 -10,0.2627 l 0,0 z"
       id="path3143"
       inkscape:connector-curvature="0" />
    <path
       style="fill:#ffb380;stroke:#000000;stroke-width:1.42857146;stroke-linejoin:miter;stroke-miterlimit:4;stroke-opacity:1;stroke-dasharray:none"
       d="m 376.52935,485.42082 c 0,-0.92267 -0.7255,-1.51687 -1.61222,-1.32044 -0.88671,0.19643 -3.61886,-3.00141 -6.07143,-7.1063 -2.45256,-4.1049 -8.63778,-12.35937 -13.74492,-18.34326 -20.53368,-24.05872 -35.46349,-48.74819 -35.86184,-59.30483 -0.10146,-2.68866 0.28494,-12.28132 0.85867,-21.31704 0.96194,-15.1497 -0.22348,-31.02477 -3.09063,-41.38926 l -0.97709,-3.53212 5.60687,4.34641 c 15.03876,11.65794 28.62713,16.50131 46.22186,16.4751 17.39185,-0.0259 32.33614,-5.19661 48.0975,-16.64168 2.98648,-2.16862 3.00193,-2.11125 3.95031,14.66986 0.52365,9.26585 1.56991,20.64294 2.325,25.28243 0.7551,4.63949 0.84584,9.12576 0.20164,9.96949 -0.64419,0.84373 -2.29948,5.71263 -3.67841,10.81977 -8.55473,31.68411 -18.77511,57.68272 -28.64108,72.85714 -6.25544,9.62122 -13.58423,17.46282 -13.58423,14.53473 z"
       id="path3145"
       inkscape:connector-curvature="0" />
    <path
       style="fill:#e9afaf;stroke:#000000;stroke-width:0.71428573;stroke-linejoin:miter;stroke-miterlimit:4;stroke-opacity:1;stroke-dasharray:none"
       d="m 355.45792,313.95233 c -0.39286,-0.13725 -4.25,-0.48121 -8.57143,-0.76435 l -7.85714,-0.51481 6.42857,-1.66163 c 8.13491,-2.10269 15.7388,-2.20541 21.87531,-0.29551 2.47642,0.77075 4.6747,1.13309 4.88507,0.8052 0.62982,-0.98168 7.64452,-2.20932 12.38192,-2.16696 2.43602,0.0218 7.4827,0.44368 11.21484,0.93757 l 6.78572,0.89796 -4.64286,0.86029 c -9.86089,1.82714 -15.10373,2.23484 -28.21429,2.19404 -7.46428,-0.0232 -13.89285,-0.15454 -14.28571,-0.2918 z"
       id="path3147"
       inkscape:connector-curvature="0" />
    <path
       style="fill:#e9afaf;stroke:#000000;stroke-width:0.71428573;stroke-linejoin:miter;stroke-miterlimit:4;stroke-opacity:1;stroke-dasharray:none"
       d="m 361.47986,321.9572 c -2.58079,-0.93501 -6.75936,-2.89011 -9.28571,-4.34465 l -4.59337,-2.64462 4.28571,0.50415 c 2.35714,0.27729 11.28028,0.51723 19.8292,0.5332 l 15.54348,0.029 -1.97205,1.60112 c -7.27341,5.90534 -15.37633,7.37627 -23.80726,4.32175 z"
       id="path3149"
       inkscape:connector-curvature="0" />
  </g>
</svg>
