<?xml version="1.0" encoding="UTF-8" standalone="no"?>
<!-- Created with Inkscape (http://www.inkscape.org/) -->

<svg
   xmlns:dc="http://purl.org/dc/elements/1.1/"
   xmlns:cc="http://creativecommons.org/ns#"
   xmlns:rdf="http://www.w3.org/1999/02/22-rdf-syntax-ns#"
   xmlns:svg="http://www.w3.org/2000/svg"
   xmlns="http://www.w3.org/2000/svg"
   xmlns:sodipodi="http://sodipodi.sourceforge.net/DTD/sodipodi-0.dtd"
   xmlns:inkscape="http://www.inkscape.org/namespaces/inkscape"
   width="744.09448819"
   height="1052.3622047"
   id="svg2"
   version="1.1"
   inkscape:version="0.48.4 r9939"
   sodipodi:docname="face_front.svg">
  <defs
     id="defs4" />
  <sodipodi:namedview
     id="base"
     pagecolor="#ffffff"
     bordercolor="#666666"
     borderopacity="1.0"
     inkscape:pageopacity="0.0"
     inkscape:pageshadow="2"
     inkscape:zoom="0.35"
     inkscape:cx="468.98281"
     inkscape:cy="728.89356"
     inkscape:document-units="px"
     inkscape:current-layer="layer1"
     showgrid="false"
     inkscape:window-width="1366"
     inkscape:window-height="716"
     inkscape:window-x="0"
     inkscape:window-y="0"
     inkscape:window-maximized="1" />
  <metadata
     id="metadata7">
    <rdf:RDF>
      <cc:Work
         rdf:about="">
        <dc:format>image/svg+xml</dc:format>
        <dc:type
           rdf:resource="http://purl.org/dc/dcmitype/StillImage" />
        <dc:title />
      </cc:Work>
    </rdf:RDF>
  </metadata>
  <g
     inkscape:label="Layer 1"
     inkscape:groupmode="layer"
     id="layer1">
    <path
       style="fill:#241f1c;stroke:#000000;stroke-width:1.42857145999999990;stroke-linejoin:miter;stroke-miterlimit:4;stroke-opacity:1;stroke-dasharray:none"
       d=""
       id="path3101"
       inkscape:connector-curvature="0" />
    <path
       style="fill:#241f1c;stroke:#000000;stroke-width:1.42857146;stroke-linejoin:miter;stroke-miterlimit:4;stroke-opacity:1;stroke-dasharray:none"
       d=""
       id="path3103"
       inkscape:connector-curvature="0" />
    <path
       style="fill:#241f1c;stroke:#000000;stroke-width:1.42857145999999990;stroke-linejoin:miter;stroke-miterlimit:4;stroke-opacity:1;stroke-dasharray:none"
       d=""
       id="path3105"
       inkscape:connector-curvature="0" />
    <path
       style="fill:#241f1c;stroke:#000000;stroke-width:1.42857146;stroke-linejoin:miter;stroke-miterlimit:4;stroke-opacity:1;stroke-dasharray:none"
       d=""
       id="path3109"
       inkscape:connector-curvature="0" />
    <path
       style="fill:#241f1c;stroke:#000000;stroke-width:1.42857146;stroke-linejoin:miter;stroke-miterlimit:4;stroke-opacity:1;stroke-dasharray:none"
       d=""
       id="path3111"
       inkscape:connector-curvature="0" />
    <path
       style="fill:#241f1c;stroke:#000000;stroke-width:1.42857146;stroke-linejoin:miter;stroke-miterlimit:4;stroke-opacity:1;stroke-dasharray:none"
       d=""
       id="path3113"
       inkscape:connector-curvature="0" />
    <path
       style="fill:#241f1c;stroke:#000000;stroke-width:1.42857145999999990;stroke-linejoin:miter;stroke-miterlimit:4;stroke-opacity:1;stroke-dasharray:none"
       d=""
       id="path3115"
       inkscape:connector-curvature="0" />
    <path
       style="fill:#241f1c;stroke:#000000;stroke-width:1.42857146;stroke-linejoin:miter;stroke-miterlimit:4;stroke-opacity:1;stroke-dasharray:none"
       d=""
       id="path3119"
       inkscape:connector-curvature="0" />
    <path
       style="fill:#241f1c;stroke:#000000;stroke-width:1.42857146;stroke-linejoin:miter;stroke-miterlimit:4;stroke-opacity:1;stroke-dasharray:none"
       d=""
       id="path3121"
       inkscape:connector-curvature="0" />
    <path
       style="fill:#241f1c;stroke:#000000;stroke-width:1.42857146;stroke-linejoin:miter;stroke-miterlimit:4;stroke-opacity:1;stroke-dasharray:none"
       d=""
       id="path3123"
       inkscape:connector-curvature="0" />
    <g
       id="g5331"
       transform="matrix(0.99076216,0,0,0.97259865,0.70458503,-23.071172)">
      <path
         sodipodi:nodetypes="cssssc"
         inkscape:connector-curvature="0"
         id="path3808"
         d="m 340,129.50504 c -9.10475,-4.50751 -4.67229,-15.35703 -3.79866,-29.04749 0.79725,-12.493461 -0.47788,-27.38647 15.94152,-35.238226 25.21553,-12.058066 42.99068,-13.288368 55.83569,-11.689852 11.49836,1.430931 18.47846,4.560969 32.55408,13.465595 81.27938,51.419573 105.76135,356.303693 127.32451,386.081393 -8.94815,-4.69956 -18.1399,-2.28423 -26.42857,-6.42856 -15.47548,-7.73774 -35.43475,0.27953 -47.14286,-11.42857 -18.33489,-18.3349 -48.20737,-41.33756 -71.42857,-47.14286 -9.99901,38.53765 -24.93014,87.09629 -48.57143,102.85714"
         style="fill:none;stroke:#000000;stroke-width:1px;stroke-linecap:butt;stroke-linejoin:miter;stroke-opacity:1" />
      <path
         sodipodi:open="true"
         sodipodi:end="3.1747539"
         sodipodi:start="0"
         d="m 323.24882,24.531967 c 0,0.557892 -0.11307,1.010153 -0.25254,1.010153 -0.13948,0 -0.25254,-0.452261 -0.25254,-1.010153 0,-0.01117 4e-5,-0.02233 1.4e-4,-0.03349"
         sodipodi:ry="1.0101526"
         sodipodi:rx="0.25253814"
         sodipodi:cy="24.531967"
         sodipodi:cx="322.99628"
         id="path3812"
         style="fill:#ffffff;stroke:#000000;stroke-width:1;stroke-miterlimit:4;stroke-opacity:1;stroke-dasharray:none"
         sodipodi:type="arc" />
      <path
         inkscape:connector-curvature="0"
         id="path3143"
         d="m 553.67221,448.47127 c -1.96429,-0.32845 -7.42858,-1.8109 -12.14286,-3.29435 -4.71429,-1.48344 -13.71429,-3.11138 -20,-3.61765 -17.79129,-1.43296 -20.79503,-2.64005 -32.33362,-12.99348 -17.57684,-15.77148 -34.09554,-27.50178 -48.65246,-34.54921 -10.98491,-5.31811 -14.0113,-7.43933 -14.65724,-10.27334 -1.90384,-8.35305 -3.55728,-25.93023 -3.59829,-38.25237 l -0.0441,-13.25239 7.96657,-9.60476 c 7.95933,-9.59604 18.83697,-29.91805 22.16018,-41.4005 0.96804,-3.34478 2.46054,-5.94363 3.31666,-5.7752 0.85613,0.16843 3.26592,-0.14604 5.3551,-0.69884 6.19982,-1.64047 9.89749,-11.2398 10.82693,-28.10726 l 0.78245,-14.1997 4.01083,2.07407 c 4.41074,2.28089 7.01698,2.65438 6.9967,1.00266 -0.007,-0.58928 -5.47152,-3.56731 -12.14286,-6.61783 -7.2287,-3.30537 -12.1297,-6.3975 -12.1297,-7.65284 0,-1.37123 -0.82334,-1.7905 -2.35893,-1.20123 -4.41164,1.6929 -48.27854,-25.40054 -71.91078,-44.41415 -18.11385,-14.57371 -39.83874,-37.97717 -48.9068,-52.68557 -1.62215,-2.63114 2.81744,-40.168461 5.39261,-45.595232 3.04917,-6.42566 7.38064,-9.507893 20.73612,-14.755648 27.66245,-10.869377 46.4092,-10.872543 67.5824,-0.01141 21.12316,10.83546 38.46563,32.062542 52.63298,64.42244 20.93504,47.81806 33.59657,94.62207 56.07626,207.28856 15.88067,79.59277 19.83331,98.02594 22.81601,106.40253 1.22422,3.43807 2.22585,6.81307 2.22585,7.5 0,1.26294 -3.47238,1.35415 -10,0.2627 l 0,0 z"
         style="fill:#1a1a1a;stroke:#000000;stroke-width:1.42857146;stroke-linejoin:miter;stroke-miterlimit:4;stroke-opacity:1;stroke-dasharray:none" />
      <g
         id="g5280">
        <path
           sodipodi:type="arc"
           style="fill:#ffffff;stroke:#000000;stroke-width:1;stroke-miterlimit:4;stroke-opacity:1;stroke-dasharray:none"
           id="path2994"
           sodipodi:cx="265.87604"
           sodipodi:cy="216.37367"
           sodipodi:rx="7.6953983"
           sodipodi:ry="28.84565"
           d="m 273.57144,216.37367 c 0,15.93101 -3.44535,28.84565 -7.6954,28.84565 -4.25005,0 -7.6954,-12.91464 -7.6954,-28.84565 0,-0.7217 0.007,-1.44314 0.0217,-2.16281"
           transform="matrix(1.887783,0.2474123,0,1.4193497,-229.30836,-135.55345)"
           sodipodi:start="0"
           sodipodi:end="3.2166418"
           sodipodi:open="true" />
        <path
           sodipodi:type="arc"
           style="fill:#ffffff;fill-rule:evenodd;stroke:#000000;stroke-width:1px;stroke-linecap:butt;stroke-linejoin:miter;stroke-opacity:1"
           id="path2990"
           sodipodi:cx="416.18286"
           sodipodi:cy="243.73508"
           sodipodi:rx="81.822357"
           sodipodi:ry="105.56094"
           d="m 497.55699,232.70096 c 4.72356,57.98033 -27.87968,109.92281 -72.82137,116.01679 -44.94169,6.09397 -85.20333,-35.96823 -89.92688,-93.94855 -0.39325,-4.82695 -0.52798,-9.68314 -0.40325,-14.53401"
           transform="matrix(1.1043481,0,0,1.1418871,-91.246447,-45.582708)"
           sodipodi:start="6.1784656"
           sodipodi:end="9.4579392"
           sodipodi:open="true" />
        <path
           sodipodi:type="arc"
           style="fill:#ffffff;stroke:#000000;stroke-width:1;stroke-miterlimit:4;stroke-opacity:1;stroke-dasharray:none"
           id="path2994-3"
           sodipodi:cx="265.87604"
           sodipodi:cy="216.37367"
           sodipodi:rx="7.6953983"
           sodipodi:ry="28.84565"
           d="m 273.42226,210.72148 c 0.83278,15.62218 -1.87068,30.81704 -6.03834,33.93866 -1.34251,1.00555 -2.73227,0.65041 -4.02595,-1.0288"
           transform="matrix(1.820751,0.2196932,0,1.2603313,-26.714232,-92.80274)"
           sodipodi:start="6.0859631"
           sodipodi:end="8.1873395"
           sodipodi:open="true" />
        <path
           style="fill:none;stroke:#000000;stroke-width:1.33844411px;stroke-linecap:butt;stroke-linejoin:miter;stroke-opacity:1"
           d="m 339.83078,128.95997 c -19.56752,54.98976 -32.30796,92.07206 -92.44075,106.17063"
           id="path3800"
           inkscape:connector-curvature="0"
           sodipodi:nodetypes="cc" />
        <path
           style="fill:none;stroke:#000000;stroke-width:1.27479219px;stroke-linecap:butt;stroke-linejoin:miter;stroke-opacity:1"
           d="m 339.60169,129.64244 c 25.14216,42.6664 99.12789,87.96084 143.17753,106.14761"
           id="path3802"
           inkscape:connector-curvature="0"
           sodipodi:nodetypes="cc" />
        <path
           style="fill:none;stroke:#000000;stroke-width:1px;stroke-linecap:butt;stroke-linejoin:miter;stroke-opacity:1"
           d="M 340,80.219325 C 207.36307,53.315124 189.12459,315.56394 175.71428,393.79075 c 40.97435,6.64124 89.26121,78.11159 118.57143,58.57143"
           id="path3810"
           inkscape:connector-curvature="0"
           sodipodi:nodetypes="cc" />
        <path
           style="fill:none;stroke:#000000;stroke-width:1px;stroke-linecap:butt;stroke-linejoin:miter;stroke-opacity:1"
           d="m 314.66252,333.13357 c 7.19648,22.85072 5.66583,45.32032 2.52538,63.63961 -0.12376,19.32627 32.58406,59.64667 45.66924,72.73186 3.88869,3.88869 12.85715,27.95983 12.85715,14.28571"
           id="path3826"
           inkscape:connector-curvature="0" />
        <path
           style="fill:none;stroke:#000000;stroke-width:1px;stroke-linecap:butt;stroke-linejoin:miter;stroke-opacity:1"
           d="m 420.72854,330.10311 c -0.80639,22.26276 1.71919,47.20762 6.06091,65.65992"
           id="path3832"
           inkscape:connector-curvature="0" />
        <path
           style="fill:none;stroke:#000000;stroke-width:0.83334917px;stroke-linecap:butt;stroke-linejoin:miter;stroke-opacity:1"
           d="m 297.36011,217.32098 c 17.08851,-2.72099 42.77845,3.55486 54.08432,4.20687 7.19842,0.41512 -0.46426,-1.90635 -5.34693,-4.63398 -4.88266,-2.72763 -35.32,-12.57151 -41.68602,-8.75583 -6.36602,3.81568 -10.79647,9.77928 -7.05137,9.18294 z"
           id="path3867"
           inkscape:connector-curvature="0"
           sodipodi:nodetypes="sszzs" />
        <path
           style="fill:none;stroke:#000000;stroke-width:0.83334917px;stroke-linecap:butt;stroke-linejoin:miter;stroke-opacity:1"
           d="m 440.72705,220.3688 c -7.15869,-1.13987 -13.02621,-0.98583 -21.78931,-0.99362 -8.74303,-0.008 -26.73553,8.86223 -33.30516,9.2411 -7.19842,0.41513 3.99979,-8.47234 8.88246,-11.19997 4.88266,-2.72763 29.76416,-12.06644 36.13018,-8.25076 6.36602,3.81568 13.82693,11.79958 10.08183,11.20325 z"
           id="path3867-0"
           inkscape:connector-curvature="0"
           sodipodi:nodetypes="ssszzs" />
        <path
           sodipodi:type="arc"
           style="fill:#ffffff;stroke:#000000;stroke-width:1;stroke-miterlimit:4;stroke-opacity:1;stroke-dasharray:none"
           id="path3928"
           sodipodi:cx="406.07144"
           sodipodi:cy="234.86218"
           sodipodi:rx="5.7142854"
           sodipodi:ry="6.7857141"
           d="m 411.78573,234.86218 c 0,3.74765 -2.55838,6.78572 -5.71429,6.78572 -3.15591,0 -5.71428,-3.03807 -5.71428,-6.78572 0,-3.74764 2.55837,-6.78571 5.71428,-6.78571 3.15591,0 5.71429,3.03807 5.71429,6.78571 z"
           transform="translate(5.5357143,-0.35714286)" />
        <path
           sodipodi:type="arc"
           style="fill:#ffffff;stroke:#000000;stroke-width:1;stroke-miterlimit:4;stroke-opacity:1;stroke-dasharray:none"
           id="path3930"
           sodipodi:cx="411.25"
           sodipodi:cy="244.14789"
           sodipodi:rx="3.0357144"
           sodipodi:ry="2.8571432"
           d="m 414.28571,244.14789 c 0,1.57795 -1.35913,2.85714 -3.03571,2.85714 -1.67658,0 -3.03571,-1.27919 -3.03571,-2.85714 0,-1.57796 1.35913,-2.85714 3.03571,-2.85714 1.67658,0 3.03571,1.27918 3.03571,2.85714 z"
           transform="matrix(0.98382511,0,0,1.2258821,6.4838669,-64.595297)" />
        <path
           style="fill:none;stroke:#000000;stroke-width:1px;stroke-linecap:butt;stroke-linejoin:miter;stroke-opacity:1"
           d="m 389.10714,239.32647 c 13.89659,-11.49187 33.6718,-18.54806 49.64286,-7.14286"
           id="path3926"
           inkscape:connector-curvature="0"
           sodipodi:nodetypes="cc" />
        <path
           style="fill:none;stroke:#000000;stroke-width:1.02423382px;stroke-linecap:butt;stroke-linejoin:miter;stroke-opacity:1"
           d="m 439.97059,229.78326 c -18.26398,-13.65684 -44.87383,2.16834 -47.72078,5.10991 -2.84695,2.94156 -4.05935,4.50723 -2.13354,5.2913 7.75769,3.15843 36.24295,2.08919 48.06397,-8.37649 1.7304,-1.53199 1.2583,-1.3136 1.79035,-2.02472 z"
           id="path3906-6"
           inkscape:connector-curvature="0"
           sodipodi:nodetypes="czssc" />
        <path
           style="fill:none;stroke:#000000;stroke-width:0.46922264px;stroke-linecap:butt;stroke-linejoin:miter;stroke-opacity:1"
           d="m 369.72038,311.1756 c 16.20558,-5.59681 22.96965,-0.5362 34.38586,-0.72685"
           id="path3934"
           inkscape:connector-curvature="0"
           sodipodi:nodetypes="cc" />
        <path
           style="fill:none;stroke:#000000;stroke-width:0.6045804px;stroke-linecap:butt;stroke-linejoin:miter;stroke-opacity:1"
           d="m 371.78983,311.50933 c -18.4351,-7.62536 -25.02996,0.44138 -37.45892,0.77608"
           id="path3934-2"
           inkscape:connector-curvature="0"
           sodipodi:nodetypes="cc" />
        <path
           style="fill:none;stroke:#000000;stroke-width:0.94145846px;stroke-linecap:butt;stroke-linejoin:miter;stroke-opacity:1"
           d="m 334.82947,312.93813 c 22.70264,2.52473 45.41768,4.47779 68.29546,-1.06595"
           id="path3954"
           inkscape:connector-curvature="0"
           sodipodi:nodetypes="cc" />
        <path
           style="fill:none;stroke:#000000;stroke-width:0.76424319px;stroke-linecap:butt;stroke-linejoin:miter;stroke-opacity:1"
           d="m 346.86953,315.4877 c 13.629,8.0813 27.24902,16.24618 43.67231,-1.66491"
           id="path3956"
           inkscape:connector-curvature="0"
           sodipodi:nodetypes="cc" />
        <path
           style="fill:none;stroke:#000000;stroke-width:1.02423382px;stroke-linecap:butt;stroke-linejoin:miter;stroke-opacity:1"
           d="m 303.17656,231.26058 c 18.26398,-13.65684 44.87383,2.16834 47.72078,5.10991 2.84695,2.94156 4.05935,4.50723 2.13354,5.2913 -7.75769,3.15843 -36.24295,2.08919 -48.06397,-8.37649 -1.7304,-1.53199 -1.2583,-1.3136 -1.79035,-2.02472 z"
           id="path3906-6-5"
           inkscape:connector-curvature="0"
           sodipodi:nodetypes="czssc" />
        <path
           style="fill:none;stroke:#000000;stroke-width:1px;stroke-linecap:butt;stroke-linejoin:miter;stroke-opacity:1"
           d="m 353.49981,240.60729 c -13.89659,-11.49187 -33.6718,-18.54806 -49.64286,-7.14286"
           id="path3926-5"
           inkscape:connector-curvature="0"
           sodipodi:nodetypes="cc" />
        <path
           transform="matrix(-1,0,0,1,737.41788,0.76102791)"
           sodipodi:type="arc"
           style="fill:#ffffff;stroke:#000000;stroke-width:1;stroke-miterlimit:4;stroke-opacity:1;stroke-dasharray:none"
           id="path3928-9"
           sodipodi:cx="406.07144"
           sodipodi:cy="234.86218"
           sodipodi:rx="5.7142854"
           sodipodi:ry="6.7857141"
           d="m 411.78573,234.86218 c 0,3.74765 -2.55838,6.78572 -5.71429,6.78572 -3.15591,0 -5.71428,-3.03807 -5.71428,-6.78572 0,-3.74764 2.55837,-6.78571 5.71428,-6.78571 3.15591,0 5.71429,3.03807 5.71429,6.78571 z" />
        <path
           sodipodi:type="arc"
           style="fill:#ffffff;stroke:#000000;stroke-width:1;stroke-miterlimit:4;stroke-opacity:1;stroke-dasharray:none"
           id="path3930-2"
           sodipodi:cx="411.25"
           sodipodi:cy="244.14789"
           sodipodi:rx="3.0357144"
           sodipodi:ry="2.8571432"
           d="m 414.28571,244.14789 c 0,1.57795 -1.35913,2.85714 -3.03571,2.85714 -1.67658,0 -3.03571,-1.27919 -3.03571,-2.85714 0,-1.57796 1.35913,-2.85714 3.03571,-2.85714 1.67658,0 3.03571,1.27918 3.03571,2.85714 z"
           transform="matrix(0.98382511,0,0,1.2258821,-72.515683,-63.577683)" />
        <path
           style="fill:none;stroke:#000000;stroke-width:1px;stroke-linecap:butt;stroke-linejoin:miter;stroke-opacity:1"
           d="m 363.65491,289.19194 c 4.88241,2.79655 9.76481,3.41331 14.64722,-0.50508"
           id="path4036"
           inkscape:connector-curvature="0"
           sodipodi:nodetypes="cc" />
        <path
           style="fill:none;stroke:#000000;stroke-width:1px;stroke-linecap:butt;stroke-linejoin:miter;stroke-opacity:1"
           d="m 378.21429,288.61218 c 4.15844,1.59398 7.15106,1.32265 8.92857,-0.89286"
           id="path4038"
           inkscape:connector-curvature="0"
           sodipodi:nodetypes="cc" />
        <path
           style="fill:none;stroke:#000000;stroke-width:1px;stroke-linecap:butt;stroke-linejoin:miter;stroke-opacity:1"
           d="m 364.46429,288.90799 c -4.15844,1.59398 -7.15106,1.32265 -8.92857,-0.89286"
           id="path4038-1"
           inkscape:connector-curvature="0"
           sodipodi:nodetypes="cc" />
        <path
           style="fill:none;stroke:#000000;stroke-width:0.84779161px;stroke-linecap:butt;stroke-linejoin:miter;stroke-opacity:1"
           d="m 365.08129,284.21727 c -2.4001,-2.82912 -2.74031,-13.78408 0.41749,-38.53799"
           id="path4062"
           inkscape:connector-curvature="0"
           sodipodi:nodetypes="cc" />
        <path
           style="fill:#deaa87;stroke:#000000;stroke-width:1.42857146;stroke-linejoin:miter;stroke-miterlimit:4;stroke-opacity:1;stroke-dasharray:none"
           d="m 350.25025,349.33964 c -12.64764,-3.40115 -21.6101,-9.12399 -34.43519,-21.98806 -22.08832,-22.15547 -33.44496,-48.50991 -35.27704,-81.86458 -0.46521,-8.4695 -1.39676,-15.73958 -2.07011,-16.15574 -1.75002,-1.08157 -1.51467,15.21701 0.41962,29.05955 1.50109,10.74238 1.41808,12.04398 -0.93388,14.64286 -3.51047,3.87902 -7.308,3.58348 -10.17483,-0.79185 -3.63065,-5.54108 -7.67804,-21.75234 -7.67804,-30.75335 l 0,-8.03089 9.17523,-3.89953 c 5.04637,-2.14474 12.58237,-6.04779 16.74667,-8.67345 4.16429,-2.62567 8.21263,-4.37766 8.99631,-3.89332 0.78368,0.48434 6.90839,1.00234 13.61047,1.1511 6.70208,0.14877 19.81374,1.34168 29.13703,2.65091 9.32328,1.30924 17.35798,1.97387 17.85489,1.47696 3.60931,-3.60931 -30.10866,-15.29152 -44.86918,-15.54576 l -7.20573,-0.12411 5.41756,-7.14286 c 7.34169,-9.67976 18.01994,-31.03875 24.81438,-49.63454 3.08445,-8.44185 5.98125,-15.35256 6.43734,-15.35714 0.45609,-0.005 2.81234,2.72383 5.2361,6.06311 11.74968,16.18785 37.62201,39.02536 64.32811,56.78244 l 14.67919,9.7603 -4.67919,0.91787 c -12.72233,2.49563 -27.6611,8.80916 -33.11117,13.99369 -4.21138,4.00618 -5.24548,5.79681 -4.04246,6.99983 1.20303,1.20302 5.38072,0.37769 16.33122,-3.22634 12.98948,-4.27511 16.38954,-4.82652 29.00037,-4.70322 7.85714,0.0768 14.66946,-0.45102 15.13849,-1.17297 0.4708,-0.72467 3.83025,0.13393 7.5,1.91683 l 6.64722,3.22947 0,9.79883 c 0,13.19516 -2.30164,27.84361 -6.67228,42.46464 -15.77676,52.77769 -58.33252,83.34069 -100.3211,72.04932 z m 35.36569,-29.70873 c 3.7168,-2.71312 9.32637,-5.2859 12.7722,-5.85787 3.66428,-0.60823 5.92404,-1.68505 5.59832,-2.66772 -0.82804,-2.4982 -20.56183,-4.24735 -27.68437,-2.45388 -4.07036,1.02493 -7.24157,1.05414 -9.77725,0.0901 -5.29908,-2.0147 -11.65988,-1.77837 -23.3816,0.86873 -10.81027,2.44121 -12.27859,4.84721 -2.95815,4.84721 3.09648,0 5.62997,0.52466 5.62997,1.1659 0,1.00227 12.07213,7.13143 18.57143,9.42892 5.03962,1.7815 14.76388,-0.70182 21.22945,-5.42143 l 0,0 z M 381.205,290.60549 c 8.46645,-1.12714 9.11953,-3.31064 0.71942,-2.40525 -9.09848,0.98064 -14.18391,1.02865 -21.47561,0.20274 -5.05927,-0.57306 -5.80519,-0.35696 -4.44117,1.28659 0.90166,1.08642 2.74116,1.62562 4.08778,1.19822 1.34663,-0.4274 3.98801,-0.14568 5.86974,0.62603 1.88173,0.77173 4.70705,1.0659 6.27847,0.65373 1.57143,-0.41217 5.60405,-1.1151 8.96137,-1.56206 z m -16.3857,-15.07654 c -0.36672,-4.91071 -0.0837,-13.62083 0.62894,-19.35582 0.71263,-5.73499 0.81261,-10.72581 0.22218,-11.09072 -1.14824,-0.70965 -2.49625,9.40475 -2.96303,22.23226 -0.41786,11.48297 0.0822,17.14285 1.5146,17.14285 0.69523,0 0.96403,-4.01785 0.59731,-8.92857 z m -10.33933,-33.45062 c 2.45882,-2.45882 -3.67558,-8.34017 -13.23084,-12.68504 -7.36007,-3.3467 -10.96314,-4.09359 -19.71978,-4.0878 -11.16675,0.007 -20.75502,3.29914 -19.62029,6.73584 0.82187,2.48917 15.02314,9.40126 22.47743,10.9403 7.91919,1.63502 28.1628,1.02738 30.09348,-0.9033 l 0,0 z m 72.82569,-3.26112 c 4.28732,-1.63015 9.40226,-4.25028 11.36655,-5.82252 3.51435,-2.81293 3.52647,-2.89304 0.75842,-5.01282 -4.6063,-3.52753 -13.78312,-5.3231 -22.17428,-4.33869 -8.07183,0.94694 -21.55551,6.32491 -26.0454,10.3882 -3.85535,3.48905 -3.2053,7.26244 1.38983,8.06751 8.19054,1.43499 26.97038,-0.34083 34.70488,-3.28168 l 0,0 z"
           id="path3099"
           inkscape:connector-curvature="0" />
        <path
           style="fill:#241f1c;stroke:#000000;stroke-width:1.42857146;stroke-linejoin:miter;stroke-miterlimit:4;stroke-opacity:1;stroke-dasharray:none"
           d="m 410.10078,234.45752 c 0,-0.78571 0.64285,-1.42857 1.42857,-1.42857 0.78571,0 1.42857,0.64286 1.42857,1.42857 0,0.78572 -0.64286,1.42857 -1.42857,1.42857 -0.78572,0 -1.42857,-0.64285 -1.42857,-1.42857 z"
           id="path3107"
           inkscape:connector-curvature="0" />
        <path
           style="fill:#241f1c;stroke:#000000;stroke-width:1.42857146;stroke-linejoin:miter;stroke-miterlimit:4;stroke-opacity:1;stroke-dasharray:none"
           d="m 330.81506,235.88609 c -0.4856,-0.78571 -0.20211,-1.42857 0.62998,-1.42857 0.83208,0 1.51288,0.64286 1.51288,1.42857 0,0.78572 -0.28349,1.42858 -0.62998,1.42858 -0.34648,0 -1.02728,-0.64286 -1.51288,-1.42858 z"
           id="path3117"
           inkscape:connector-curvature="0" />
        <path
           style="fill:#241f1c;stroke:#000000;stroke-width:1.42857146;stroke-linejoin:miter;stroke-miterlimit:4;stroke-opacity:1;stroke-dasharray:none"
           d="m 332.24363,217.93457 c -7.07142,-1.0064 -17.62991,-1.87901 -23.4633,-1.93914 l -10.60616,-0.10934 3.35518,-3.57142 c 4.17509,-4.44418 9.75669,-4.61675 24.49188,-0.75724 10.73469,2.81168 25.27255,8.50406 21.2224,8.30975 -1.17857,-0.0565 -7.92857,-0.92622 -15,-1.93261 z"
           id="path3125"
           inkscape:connector-curvature="0" />
        <path
           style="fill:#241f1c;stroke:#000000;stroke-width:1.42857146;stroke-linejoin:miter;stroke-miterlimit:4;stroke-opacity:1;stroke-dasharray:none"
           d="m 385.84556,226.27045 c 0.0679,-2.44477 11.61071,-9.04736 21.79163,-12.46498 14.98845,-5.03145 22.18207,-4.86066 27.46359,0.65205 l 4.10597,4.28572 -12.8742,0 c -9.7318,0 -15.28895,0.81657 -22.76727,3.34543 -13.01607,4.40149 -17.75688,5.52031 -17.71972,4.18178 z"
           id="path3127"
           inkscape:connector-curvature="0" />
        <path
           style="fill:#deaa87;stroke:#000000;stroke-width:1.42857146;stroke-linejoin:miter;stroke-miterlimit:4;stroke-opacity:1;stroke-dasharray:none"
           d="m 455.16791,271.709 c -0.50245,-0.81298 -0.27405,-2.67305 0.50755,-4.13349 1.69273,-3.16288 4.42532,-23.81031 4.42532,-33.43765 0,-3.75276 0.35335,-6.82319 0.78523,-6.82319 0.43187,0 2.68187,0.98079 5,2.17954 3.74906,1.93872 4.21477,2.91234 4.21477,8.81155 0,10.7261 -2.9175,24.39023 -6.26981,29.36473 -3.23536,4.80094 -7.08323,6.59473 -8.66306,4.03851 z"
           id="path3129"
           inkscape:connector-curvature="0" />
        <path
           style="fill:none;stroke:#000000;stroke-width:1px;stroke-linecap:butt;stroke-linejoin:miter;stroke-opacity:1"
           d="m 318.57143,375.21933 c -19.17726,6.21956 -17.4961,59.98439 -22.85714,81.42857"
           id="path3133"
           inkscape:connector-curvature="0" />
        <path
           style="fill:#1a1a1a;stroke:#000000;stroke-width:1.42857146;stroke-linejoin:miter;stroke-miterlimit:4;stroke-opacity:1;stroke-dasharray:none"
           d="m 267.24363,449.64204 c -4.71428,-2.25443 -14.03571,-8.24676 -20.71428,-13.31629 -35.97376,-27.30674 -43.90999,-32.9116 -53.13883,-37.5286 -5.55621,-2.77966 -11.30153,-5.05391 -12.7674,-5.05391 -3.64717,0 -3.63056,-0.22095 3.7687,-50.15347 13.77681,-92.97023 25.80191,-141.77472 45.95488,-186.51022 17.41235,-38.65185 38.92987,-62.496851 65.78255,-72.898023 8.04665,-3.116803 12.14303,-3.773552 24.20546,-3.88072 7.98581,-0.07095 14.84,0.192431 15.23154,0.585288 0.39153,0.392857 0.009,10.49868 -0.85106,22.457385 -1.41464,19.68001 -1.33628,21.99355 0.82584,24.38268 2.2495,2.48566 2.01226,3.63356 -4.06858,19.68547 -8.58302,22.65704 -13.64427,33.27937 -21.45436,45.02741 -12.22403,18.38757 -30.51381,31.62513 -53.1316,38.45497 -5.69643,1.72013 -10.35714,3.70776 -10.35714,4.41694 0,1.6361 1.76716,1.63313 6.08954,-0.01 3.38883,-1.28843 3.43231,-1.18648 5.0272,11.78572 2.05438,16.70945 3.82841,22.66638 8.35086,28.04102 4.21363,5.0076 9.23613,5.62635 13.23233,1.63015 2.64752,-2.64753 2.77172,-2.49057 6.39859,8.08647 4.70764,13.72886 13.78626,29.61416 22.53412,39.42904 3.75937,4.21792 6.52287,7.98129 6.14112,8.36303 -0.38175,0.38176 0.27491,4.80487 1.45925,9.82917 1.18433,5.02429 2.16283,13.81722 2.17444,19.53983 0.0202,9.9369 -0.19693,10.62281 -4.82807,15.25396 -7.68354,7.68354 -12.35031,25.92948 -16.0175,62.62455 -0.87449,8.75045 -1.36758,9.91715 -4.981,11.78572 -6.34727,3.28206 -15.28769,2.55316 -24.8666,-2.02757 z"
           id="path3141"
           inkscape:connector-curvature="0" />
        <path
           style="fill:#ffb380;stroke:#000000;stroke-width:1.42857146;stroke-linejoin:miter;stroke-miterlimit:4;stroke-opacity:1;stroke-dasharray:none"
           d="m 376.52935,485.42082 c 0,-0.92267 -1.44645,-0.78246 -2.33317,-0.58603 -0.88671,0.19643 -2.89791,-3.73582 -5.35048,-7.84071 -2.45256,-4.1049 -8.63778,-12.35937 -13.74492,-18.34326 -20.53368,-24.05872 -35.46349,-48.74819 -35.86184,-59.30483 -0.10146,-2.68866 0.28494,-12.28132 0.85867,-21.31704 0.96194,-15.1497 -0.22348,-31.02477 -3.09063,-41.38926 l -0.97709,-3.53212 5.60687,4.34641 c 15.03876,11.65794 28.62713,16.50131 46.22186,16.4751 17.39185,-0.0259 32.33614,-5.19661 48.0975,-16.64168 2.98648,-2.16862 3.00193,-2.11125 3.95031,14.66986 0.52365,9.26585 1.56991,20.64294 2.325,25.28243 0.7551,4.63949 0.84584,9.12576 0.20164,9.96949 -0.64419,0.84373 -2.29948,5.71263 -3.67841,10.81977 -8.55473,31.68411 -18.77511,57.68272 -28.64108,72.85714 -6.25544,9.62122 -13.58423,17.46282 -13.58423,14.53473 z"
           id="path3145"
           inkscape:connector-curvature="0"
           sodipodi:nodetypes="ssssssscsssssssss" />
        <path
           style="fill:#e9afaf;stroke:#000000;stroke-width:0.71428573;stroke-linejoin:miter;stroke-miterlimit:4;stroke-opacity:1;stroke-dasharray:none"
           d="m 355.45792,313.95233 c -0.39286,-0.13725 -4.25,-0.48121 -8.57143,-0.76435 l -7.85714,-0.51481 6.42857,-1.66163 c 8.13491,-2.10269 15.7388,-2.20541 21.87531,-0.29551 2.47642,0.77075 4.6747,1.13309 4.88507,0.8052 0.62982,-0.98168 7.64452,-2.20932 12.38192,-2.16696 2.43602,0.0218 7.4827,0.44368 11.21484,0.93757 l 6.78572,0.89796 -4.64286,0.86029 c -9.86089,1.82714 -15.10373,2.23484 -28.21429,2.19404 -7.46428,-0.0232 -13.89285,-0.15454 -14.28571,-0.2918 z"
           id="path3147"
           inkscape:connector-curvature="0" />
        <path
           style="fill:#e9afaf;stroke:#000000;stroke-width:0.71428573;stroke-linejoin:miter;stroke-miterlimit:4;stroke-opacity:1;stroke-dasharray:none"
           d="m 361.47986,321.9572 c -2.58079,-0.93501 -6.75936,-2.89011 -9.28571,-4.34465 l -4.59337,-2.64462 4.28571,0.50415 c 2.35714,0.27729 11.28028,0.51723 19.8292,0.5332 l 15.54348,0.029 -1.97205,1.60112 c -7.27341,5.90534 -15.37633,7.37627 -23.80726,4.32175 z"
           id="path3149"
           inkscape:connector-curvature="0" />
        <path
           style="fill:none;stroke:#000000;stroke-width:1px;stroke-linecap:butt;stroke-linejoin:miter;stroke-opacity:1"
           d="m 296.98485,446.27066 c 15.27555,3.94481 -38.72427,54.20976 -32.32488,60.60915 7.79325,7.79325 52.22323,4.04061 58.58884,4.04061 0.35932,0 -24.98282,47.74816 -22.22335,50.50763 36.29175,36.29175 60.47334,104.31311 82.83251,143.44166"
           id="path4551"
           inkscape:connector-curvature="0" />
        <path
           style="fill:none;stroke:#000000;stroke-width:1px;stroke-linecap:butt;stroke-linejoin:miter;stroke-opacity:1"
           d="m 379.81736,955.38754 c -8.32081,-66.56646 -0.936,-176.08102 3.46219,-256.57875 -4.96901,-39.75206 -27.21243,-165.26792 -41.84799,-200.0102 -16.76096,-27.85766 -19.75015,-82.52474 -23.2335,-94.44927"
           id="path4553"
           inkscape:connector-curvature="0"
           sodipodi:nodetypes="cccc" />
        <path
           style="fill:none;stroke:#000000;stroke-width:1px;stroke-linecap:butt;stroke-linejoin:miter;stroke-opacity:1"
           d="M 381.70845,688.8929 C 406.40678,640.46777 473.74849,404.197 421.4019,394.43072"
           id="path4555"
           inkscape:connector-curvature="0"
           sodipodi:nodetypes="cc" />
        <path
           style="fill:none;stroke:#000000;stroke-width:1px;stroke-linecap:butt;stroke-linejoin:miter;stroke-opacity:1"
           d="m 468.71078,413.94577 c -10.74354,32.38073 22.22336,60.26775 22.22336,82.83251 0,11.4484 -26.24995,-8.09523 -34.34519,0 -3.48386,3.48386 0,28.87061 0,34.34519 0,62.47942 -56.23663,118.31291 -74.75129,167.68532"
           id="path4557"
           inkscape:connector-curvature="0" />
        <path
           style="fill:none;stroke:#000000;stroke-width:0.98118621px;stroke-linecap:butt;stroke-linejoin:miter;stroke-opacity:1"
           d="m 238.33296,433.18003 c -46.70374,13.48333 -94.28943,52.55277 -109.73477,75.34824 -11.0131,93.16048 -30.052671,196.75914 -51.836001,268.20265 41.620671,27.32234 65.391411,32.97574 117.971601,32.97574 18.6591,-38.36309 19.07629,-86.56973 23.23682,-127.50619 -16.28388,129.49665 -24.31327,249.0165 -58.98579,362.73303 75.80191,19.2137 188.02294,46.8192 203.2095,-27.8926 C 386.05673,961.57437 372.7512,965.62224 380,953.07647"
           id="path4563"
           inkscape:connector-curvature="0"
           sodipodi:nodetypes="cccccccc" />
        <path
           style="fill:none;stroke:#000000;stroke-width:1.06148911px;stroke-linecap:butt;stroke-linejoin:miter;stroke-opacity:1"
           d="m 357.62176,1028.4359 c 91.95186,21.2455 181.67789,42.3101 233.99917,-0.3763 -33.0591,-123.84236 -34.04339,-247.68481 -27.18358,-371.52726 -4.09378,53.48443 1.10307,103.84642 21.14278,149.22 97.99896,-0.27579 95.37338,-28.22095 108.73431,-51.77021 C 643.57861,568.34414 646.87913,573.39305 624.8453,489.04049 606.94229,448.62731 571.39221,448.60786 513.68739,434.94805"
           id="path4567"
           inkscape:connector-curvature="0"
           sodipodi:nodetypes="ccccccc" />
        <path
           sodipodi:type="arc"
           style="fill:#e3dbdb;fill-opacity:0;stroke:#000000;stroke-width:1;stroke-linejoin:miter;stroke-miterlimit:4;stroke-opacity:1;stroke-dasharray:none"
           id="path4571"
           sodipodi:cx="397.85715"
           sodipodi:cy="741.64789"
           sodipodi:rx="7.8571429"
           sodipodi:ry="15"
           d="m 405.71429,741.64789 c 0,8.28427 -3.51776,15 -7.85714,15 -4.33938,0 -7.85715,-6.71573 -7.85715,-15 0,-8.28427 3.51777,-15 7.85715,-15 4.33938,0 7.85714,6.71573 7.85714,15 z"
           transform="matrix(1.0102799,0,0,0.69586088,-4.0899134,220.92128)" />
        <path
           sodipodi:type="arc"
           style="fill:#e3dbdb;fill-opacity:0;stroke:#000000;stroke-width:1;stroke-linejoin:miter;stroke-miterlimit:4;stroke-opacity:1;stroke-dasharray:none"
           id="path4571-7"
           sodipodi:cx="397.85715"
           sodipodi:cy="741.64789"
           sodipodi:rx="7.8571429"
           sodipodi:ry="15"
           d="m 405.71429,741.64789 c 0,8.28427 -3.51776,15 -7.85714,15 -4.33938,0 -7.85715,-6.71573 -7.85715,-15 0,-8.28427 3.51777,-15 7.85715,-15 4.33938,0 7.85714,6.71573 7.85714,15 z"
           transform="matrix(1.0102799,0,0,0.69586088,-2.8959552,314.44015)" />
        <path
           sodipodi:type="arc"
           style="fill:#e3dbdb;fill-opacity:0;stroke:#000000;stroke-width:1;stroke-linejoin:miter;stroke-miterlimit:4;stroke-opacity:1;stroke-dasharray:none"
           id="path4571-7-9"
           sodipodi:cx="397.85715"
           sodipodi:cy="741.64789"
           sodipodi:rx="7.8571429"
           sodipodi:ry="15"
           d="m 405.71429,741.64789 c 0,8.28427 -3.51776,15 -7.85714,15 -4.33938,0 -7.85715,-6.71573 -7.85715,-15 0,-8.28427 3.51777,-15 7.85715,-15 4.33938,0 7.85714,6.71573 7.85714,15 z"
           transform="matrix(1.0102799,0,0,0.69586088,-3.807314,405.22198)" />
        <path
           style="fill:none;stroke:#000000;stroke-width:1.17805088px;stroke-linecap:butt;stroke-linejoin:miter;stroke-opacity:1"
           d="m 460.46597,607.25902 76.96921,-0.19459 -4.01276,78.6826 c -14.12409,6.61659 -30.71433,21.79833 -66.09412,0.28667 z"
           id="path5131"
           inkscape:connector-curvature="0"
           sodipodi:nodetypes="ccccc" />
        <path
           style="fill:none;stroke:#000000;stroke-width:1.25371432px;stroke-linecap:butt;stroke-linejoin:miter;stroke-opacity:1"
           d="m 436.4109,900.11071 99.02407,-1.57287 -4.18255,69.32413 c -18.08924,6.08067 -39.24467,19.74478 -85.03132,1.45588 z"
           id="path5131-5"
           inkscape:connector-curvature="0"
           sodipodi:nodetypes="ccccc" />
        <path
           style="fill:none;stroke:#000000;stroke-width:1.25371432px;stroke-linecap:butt;stroke-linejoin:miter;stroke-opacity:1"
           d="m 228.6462,902.97083 99.03315,0.82137 -5.85717,69.20283 c -18.23094,5.64154 -39.71051,18.79023 -85.04167,-0.60017 z"
           id="path5131-5-2"
           inkscape:connector-curvature="0"
           sodipodi:nodetypes="ccccc" />
      </g>
    </g>
    <path
       style="fill:#ffaaaa;fill-opacity:0;stroke:#000000;stroke-width:0.71428573;stroke-linejoin:miter;stroke-miterlimit:4;stroke-opacity:1;stroke-dasharray:none"
       d="m 378.01491,634.44883 c -7.0678,-45.89498 -20.95306,-114.0868 -29.82077,-146.45261 -4.43365,-16.18217 -6.89814,-23.23434 -10.94553,-31.32079 -5.13839,-10.26621 -9.55738,-24.48018 -12.83301,-41.27824 -1.37945,-7.07406 -5.43338,-32.81665 -5.43116,-34.48802 9e-4,-0.67445 1.53559,1.50588 3.41043,4.84516 7.27284,12.95369 19.10806,28.82162 32.19854,43.16981 3.56189,3.90411 7.50514,9.04696 8.76278,11.42857 3.88968,7.36592 6.98602,11.83019 8.20521,11.83019 0.96525,0 1.01107,0.1888 0.26423,1.0887 -1.67901,2.02308 -0.0301,1.99355 2.92208,-0.0524 6.10128,-4.22819 14.93086,-16.01798 20.87075,-27.86791 7.27368,-14.51077 12.97457,-29.58214 19.34917,-51.15314 l 3.73166,-12.62757 2.88053,1.28965 c 16.96703,7.59636 19.49063,46.57811 7.30856,112.89406 -7.70723,41.95602 -22.70105,97.28699 -37.5507,138.57143 -4.26566,11.85922 -10.74802,27.66265 -11.55023,28.15844 -0.26873,0.16609 -1.06637,-3.44983 -1.77254,-8.03537 l 0,0 z"
       id="path5400"
       inkscape:connector-curvature="0" />
    <path
       style="fill:#ffaaaa;fill-opacity:0;stroke:#000000;stroke-width:0.71428573;stroke-linejoin:miter;stroke-miterlimit:4;stroke-opacity:1;stroke-dasharray:none"
       d="m 379.443,638.21274 c -0.23528,-1.15569 -1.89819,-10.77984 -3.69535,-21.38698 -10.25585,-60.53147 -24.43179,-124.58462 -32.96017,-148.92857 -0.61933,-1.76786 -3.00662,-7.45098 -5.30509,-12.62916 -7.74332,-17.44478 -12.94753,-38.48983 -16.74839,-67.72798 l -0.46428,-3.57143 4.23023,6.78571 c 7.6578,12.28387 14.16877,20.92143 26.92135,35.71429 3.89474,4.51786 8.93238,11.10714 11.19476,14.64286 2.26238,3.53571 5.00804,7.71428 6.10148,9.28571 1.09343,1.57143 2.00222,3.33929 2.01952,3.92857 0.083,2.82459 5.39642,-0.5245 11.06956,-6.97716 12.09146,-13.75286 22.33981,-35.52782 32.90497,-69.91416 2.38809,-7.7725 4.45691,-14.24674 4.59736,-14.3872 0.44262,-0.44261 4.23627,1.82304 6.25216,3.73393 7.51833,7.12671 10.30605,20.72689 9.64097,47.03452 -0.96047,37.9917 -10.28363,86.75859 -28.84251,150.86721 -8.30792,28.69833 -20.7354,64.65037 -25.47342,73.6932 l -1.01537,1.9379 -0.42778,-2.10126 0,0 z"
       id="path5402"
       inkscape:connector-curvature="0" />
    <path
       style="fill:#ffaaaa;fill-opacity:0;stroke:#000000;stroke-width:0.71428573;stroke-linejoin:miter;stroke-miterlimit:4;stroke-opacity:1;stroke-dasharray:none"
       d="m 379.03134,631.68582 c -4.39783,-28.04208 -16.77123,-90.70852 -23.6135,-119.59316 -7.29434,-30.79303 -9.73929,-38.95056 -17.31369,-57.7669 -5.69464,-14.14661 -8.75778,-23.98095 -11.59245,-37.2181 -1.94723,-9.09301 -4.95311,-27.73863 -4.5386,-28.15314 0.14343,-0.14343 2.82394,3.61706 5.95668,8.35665 3.13274,4.73959 8.85051,12.51573 12.70617,17.2803 3.85565,4.76458 9.58568,11.84428 12.7334,15.73268 6.14247,7.58785 15.22317,20.73922 16.32998,23.65033 1.32109,3.47474 4.90649,1.82187 11.72354,-5.40457 12.04804,-12.77156 22.07661,-33.62284 33.90463,-70.49415 2.42599,-7.5625 4.66058,-13.75 4.96576,-13.75 0.93109,0 5.00714,3.23769 6.5577,5.2089 2.36564,3.00743 4.80187,9.02364 6.13417,15.14824 1.67705,7.70939 1.71201,36.07483 0.0636,51.56279 -4.00489,37.62745 -15.07062,87.71759 -30.75359,139.20914 -7.26181,23.84253 -19.87714,59.29295 -21.77543,61.19124 -0.3426,0.3426 -1.00059,-1.85035 -1.48831,-4.96025 l -3e-5,0 z"
       id="path5404"
       inkscape:connector-curvature="0" />
    <path
       style="fill:#ffaaaa;fill-opacity:0;stroke:#000000;stroke-width:0.71428573;stroke-linejoin:miter;stroke-miterlimit:4;stroke-opacity:1;stroke-dasharray:none"
       d="m 380.15592,633.12959 c -0.21225,-0.71711 -1.37851,-7.08954 -2.59168,-14.16097 -6.66728,-38.86257 -18.24391,-95.02176 -25.47296,-123.57143 -4.1846,-16.52621 -6.29839,-23.1293 -13.21146,-41.27017 -3.11068,-8.16287 -6.78741,-18.77002 -8.17051,-23.57143 -2.51785,-8.74068 -7.66954,-34.87163 -7.27688,-36.91056 0.11477,-0.59596 2.92236,2.76876 6.23909,7.47716 3.31672,4.70839 9.92043,13.38214 14.67491,19.275 10.47976,12.98897 20.46739,26.50921 23.39454,31.66916 1.18937,2.0966 2.60398,3.98142 3.14357,4.18848 1.908,0.73217 5.17102,-1.39735 10.43437,-6.80972 12.17957,-12.52438 20.18193,-28.68153 33.73152,-68.10556 l 5.56792,-16.20049 2.69104,2.16257 c 3.03736,2.44089 6.29976,8.1691 8.27197,14.52413 1.18854,3.82984 1.32664,6.83101 1.29829,28.21429 -0.0335,25.25136 -0.2389,27.7589 -4.32978,52.85714 -5.54312,34.00793 -17.64627,83.26969 -29.64271,120.65066 -6.45914,20.12673 -16.95312,49.47335 -18.10177,50.622 -0.14496,0.14496 -0.43723,-0.32315 -0.64947,-1.04026 l 0,0 z"
       id="path5406"
       inkscape:connector-curvature="0" />
    <path
       style="fill:#ffaaaa;fill-opacity:0;stroke:#000000;stroke-width:0.71428573;stroke-linejoin:miter;stroke-miterlimit:4;stroke-opacity:1;stroke-dasharray:none"
       d="m 377.64376,615.21862 c -9.35569,-51.55702 -21.2189,-107.61949 -27.69784,-130.89286 -1.03897,-3.73214 -5.23953,-16.10714 -9.33458,-27.5 -4.09505,-11.39286 -8.19251,-23.28648 -9.10548,-26.43027 -2.10576,-7.25116 -6.99536,-31.36047 -6.68541,-32.96397 0.16328,-0.84473 1.18686,0.0663 3.39408,3.02095 1.73816,2.32674 9.80216,12.90901 17.92,23.51615 8.11785,10.60714 16.76068,22.27681 19.20629,25.9326 2.44561,3.65578 4.91417,6.82632 5.48568,7.04563 1.92137,0.7373 5.08683,-1.25897 10.18064,-6.42031 13.33362,-13.51039 19.90879,-26.76514 35.93946,-72.44973 2.10206,-5.99049 4.19514,-10.89227 4.65129,-10.89285 2.07859,-0.003 6.77029,7.61436 9.13002,14.82264 1.09918,3.35766 1.19645,6.66277 0.92497,31.42857 -0.26217,23.91472 -0.51294,28.9869 -1.84513,37.31916 -7.78035,48.6627 -21.57728,103.43897 -38.35054,152.25846 -5.70007,16.59034 -10.26957,29.17011 -10.59583,29.17011 -0.0766,0 -1.5245,-7.63392 -3.21762,-16.96428 z"
       id="path5408"
       inkscape:connector-curvature="0" />
    <path
       style="fill:#ffaaaa;fill-opacity:0;stroke:#000000;stroke-width:0.71428573;stroke-linejoin:miter;stroke-miterlimit:4;stroke-opacity:1;stroke-dasharray:none"
       d="m 380.835,627.82085 c -0.17836,-0.5473 -2.46188,-12.4058 -5.07448,-26.35223 -7.70056,-41.10659 -16.79345,-84.39117 -22.50776,-107.14286 -1.52938,-6.08928 -6.82752,-22.80357 -11.77364,-37.14286 -8.60649,-24.95104 -13.64931,-43.12047 -15.0667,-54.28571 l -0.49872,-3.92857 2.83285,3.57143 c 4.07864,5.14202 23.54924,30.99769 32.97409,43.78741 4.43003,6.01164 8.52494,11.11075 9.09979,11.33134 1.91487,0.7348 5.16441,-1.27628 10.28155,-6.3631 12.47275,-12.3988 18.69971,-24.10979 31.62047,-59.4683 6.4502,-17.65139 8.76115,-23.21592 9.64156,-23.21592 0.75603,0 4.60051,6.34452 6.70876,11.07142 1.43516,3.21777 1.62116,4.98609 1.87835,17.85715 0.44586,22.31366 -0.80648,47.27678 -3.01005,60 -8.85252,51.11363 -23.19686,105.86589 -40.4835,154.52528 -3.1632,8.90395 -5.87435,16.31537 -6.02478,16.46981 -0.15042,0.15444 -0.41943,-0.16699 -0.59779,-0.71429 l 0,0 z"
       id="path5410"
       inkscape:connector-curvature="0" />
    <path
       style="fill:#ffaaaa;fill-opacity:0;stroke:#000000;stroke-width:0.71428573;stroke-linejoin:miter;stroke-miterlimit:4;stroke-opacity:1;stroke-dasharray:none"
       d="m 381.15325,626.03309 c -0.0589,-1.69269 -16.04221,-82.23626 -19.40351,-97.77876 -6.16169,-28.49138 -9.08198,-39.28748 -17.77321,-65.70626 -4.65415,-14.14727 -9.57831,-29.57945 -10.94257,-34.29374 -2.94908,-10.19077 -5.6942,-22.65696 -5.36079,-24.34451 0.14767,-0.74744 7.87731,8.94373 20.33706,25.49798 11.05437,14.68702 20.76463,27.30427 21.57836,28.03833 1.01221,0.91311 2.04324,1.19317 3.26433,0.8867 4.06269,-1.01967 13.71854,-10.81717 20.38162,-20.68061 4.12022,-6.09922 11.10732,-21.71686 18.90427,-42.25503 8.72946,-22.99452 9.70712,-25.35714 10.49282,-25.35714 0.3161,0 2.04154,2.97321 3.83432,6.60714 l 3.25959,6.60714 0.43464,13.92857 c 0.44085,14.12755 -0.58313,41.78001 -1.95732,52.85715 -2.74645,22.13866 -14.08606,72.39612 -24.497,108.57143 -7.02592,24.41324 -22.44515,70.50944 -22.55261,67.42161 l 0,0 z"
       id="path5412"
       inkscape:connector-curvature="0" />
    <path
       style="fill:#ffaaaa;fill-opacity:0;stroke:#000000;stroke-width:0.71428573;stroke-linejoin:miter;stroke-miterlimit:4;stroke-opacity:1;stroke-dasharray:none"
       d="m 372.98775,580.52022 c -14.31537,-72.42758 -16.54487,-81.57541 -30.49491,-125.12303 -8.10909,-25.31401 -13.51003,-44.33918 -13.51003,-47.59 0,-1.88756 0.73166,-1.00048 20.69385,25.09 18.08423,23.63599 20.42615,26.42857 22.16357,26.42857 1.85462,0 7.21551,-3.81585 11.16813,-7.94939 11.69778,-12.23325 16.45059,-21.28552 31.42099,-59.84482 3.72341,-9.59039 7.11993,-18.09122 7.54781,-18.89073 0.69511,-1.29882 1.12689,-0.77295 4.05369,4.93707 l 3.27571,6.39073 -0.0598,23.21428 c -0.0329,12.76786 -0.43962,27.55358 -0.90388,32.85715 -2.42324,27.68216 -15.08987,84.38249 -29.36063,131.42857 -4.14281,13.65751 -16.03484,49.42888 -17.00642,51.15553 -0.27118,0.48193 -4.31584,-18.46484 -8.98812,-42.10393 l 0,0 z"
       id="path5414"
       inkscape:connector-curvature="0" />
    <path
       style="fill:#ffaaaa;fill-opacity:0;stroke:#000000;stroke-width:0.71428573;stroke-linejoin:miter;stroke-miterlimit:4;stroke-opacity:1;stroke-dasharray:none"
       d="m 380.51887,613.12398 c -0.80451,-3.46402 -4.67286,-22.20893 -8.59632,-41.65536 -12.7596,-63.24232 -14.64223,-70.84804 -29.34986,-118.57143 -9.71199,-31.51353 -12.40799,-41.04565 -11.97581,-42.34221 0.1399,-0.41969 1.83339,1.30169 3.76333,3.82529 13.73929,17.96561 31.64348,40.74662 33.78003,42.98121 1.40859,1.47321 3.07576,2.67857 3.70483,2.67857 3.24912,0 12.97497,-8.6591 19.65591,-17.5 4.86595,-6.43913 12.13483,-21.81067 21.78622,-46.07143 4.76673,-11.98214 8.89608,-22.02461 9.17635,-22.31659 0.28027,-0.29198 1.7377,1.7429 3.23873,4.52195 l 2.72915,5.05283 -0.35611,29.04947 c -0.32349,26.38868 -0.5214,30.13162 -2.16068,40.86383 -3.88165,25.41269 -14.10088,70.39885 -23.27779,102.47137 -5.08685,17.77808 -19.38616,62.04165 -20.35573,63.01121 -0.16473,0.16473 -0.95774,-2.53469 -1.76225,-5.99871 l 0,0 z"
       id="path5416"
       inkscape:connector-curvature="0" />
    <path
       style="fill:#ffaaaa;fill-opacity:0;stroke:#000000;stroke-width:0.71428573;stroke-linejoin:miter;stroke-miterlimit:4;stroke-opacity:1;stroke-dasharray:none"
       d="m 381.61575,614.56195 c -0.23421,-1.11205 -4.28157,-20.66476 -8.99415,-43.45047 -13.45902,-65.07558 -14.71594,-70.11731 -30.62859,-122.85715 -5.09691,-16.89285 -9.48159,-31.83928 -9.74374,-33.21428 -0.57572,-3.01972 -1.97389,-4.60226 13.28209,15.03349 15.31845,19.71616 21.91185,27.71431 24.29882,29.4758 1.67975,1.23959 2.18854,1.30426 4.08404,0.51911 3.13923,-1.3003 11.52422,-8.9077 15.97131,-14.49018 6.7489,-8.47197 11.23148,-17.55178 24.14562,-48.90879 4.24208,-10.30024 8.00668,-19.25271 8.36577,-19.89438 0.52882,-0.94495 1.10178,-0.37227 3.01489,3.01343 l 2.36199,4.18009 -0.48411,28.3701 c -0.51939,30.43783 -0.78818,33.89024 -4.05029,52.02385 -7.70522,42.83217 -19.42801,87.81714 -36.10123,138.53462 -4.46067,13.56869 -4.918,14.53469 -5.52242,11.66476 l 0,0 z"
       id="path5418"
       inkscape:connector-curvature="0" />
    <path
       style="fill:#ffaaaa;fill-opacity:0;stroke:#000000;stroke-width:0.71428573;stroke-linejoin:miter;stroke-miterlimit:4;stroke-opacity:1;stroke-dasharray:none"
       d="m 381.22228,609.14715 c -16.81942,-83.10776 -22.63988,-107.8978 -35.36805,-150.63677 -9.64974,-32.40218 -12.02168,-40.70102 -11.71938,-41.00332 0.15612,-0.15612 6.52765,7.63716 14.15896,17.31841 14.51269,18.41109 19.95661,24.77235 22.25077,26.00015 2.25059,1.20448 7.32512,-1.82687 13.83665,-8.26551 10.18321,-10.06921 14.60388,-18.09529 29.60334,-53.7471 4.82922,-11.47844 9.05901,-20.6977 9.39953,-20.48725 0.34052,0.21045 1.25739,1.63374 2.03749,3.16287 1.26884,2.48713 1.41599,4.19509 1.39585,16.20153 -0.0347,20.70393 -1.20094,46.88641 -2.46767,55.40175 -3.29686,22.16242 -12.86903,64.46579 -21.73513,96.05649 -6.62398,23.60184 -18.83797,62.62937 -20.00659,63.92732 -0.26526,0.29461 -0.88886,-1.47324 -1.38577,-3.92857 l 0,0 z"
       id="path5420"
       inkscape:connector-curvature="0" />
    <path
       style="fill:#ffaaaa;fill-opacity:0;stroke:#000000;stroke-width:0.71428573;stroke-linejoin:miter;stroke-miterlimit:4;stroke-opacity:1;stroke-dasharray:none"
       d="m 377.28127,586.29005 c -13.21713,-64.67428 -18.91912,-87.74139 -36.54801,-147.85313 -2.55011,-8.69548 -4.54969,-16.05967 -4.44351,-16.36488 0.10619,-0.30521 6.36182,7.06809 13.90141,16.38511 15.92822,19.68325 19.03401,23.01147 21.47356,23.01147 3.00115,0 6.51738,-2.17307 12.26464,-7.57967 9.93019,-9.34162 14.80528,-17.86423 29.01091,-50.71679 4.48373,-10.36927 8.69541,-19.89632 9.35928,-21.17123 l 1.20703,-2.31803 1.34661,2.85715 c 1.26164,2.67686 1.31976,4.29938 0.92134,25.71428 -0.52523,28.23033 -1.32927,39.90218 -3.6658,53.21429 -3.61429,20.5919 -10.61283,51.46718 -17.35737,76.57505 -6.8771,25.60133 -21.13206,71.99638 -22.12102,71.99638 -0.27248,0 -2.67956,-10.6875 -5.34907,-23.75 l 0,0 z"
       id="path5422"
       inkscape:connector-curvature="0" />
    <path
       style="fill:#ffaaaa;fill-opacity:0;stroke:#000000;stroke-width:0.71428573;stroke-linejoin:miter;stroke-miterlimit:4;stroke-opacity:1;stroke-dasharray:none"
       d="m 381.91379,603.96595 c -0.46659,-1.85302 -3.70943,-16.91404 -7.20631,-33.46894 -10.9249,-51.72066 -16.20622,-73.0682 -29.61058,-119.6886 -3.77543,-13.13098 -6.76989,-24.1581 -6.65435,-24.50472 0.11554,-0.34661 5.01401,5.25405 10.88548,12.44593 13.58332,16.63798 20.05113,23.43328 22.30395,23.43328 2.98531,0 7.56031,-2.91633 13.3248,-8.49389 9.70973,-9.39486 13.49973,-16.00622 28.38568,-49.51672 4.76164,-10.71916 8.98796,-20.29296 9.39181,-21.2751 0.71298,-1.73395 0.76393,-1.69253 1.7575,1.42857 1.76972,5.55928 0.0883,56.64895 -2.37438,72.14286 -4.1461,26.0857 -14.60425,70.27751 -25.00508,105.66113 -4.89553,16.6546 -12.25924,40.23248 -13.44863,43.06119 l -0.90153,2.14413 -0.84836,-3.36912 0,0 z"
       id="path5424"
       inkscape:connector-curvature="0" />
    <path
       style="fill:#ffaaaa;fill-opacity:0;stroke:#000000;stroke-width:0.71428573;stroke-linejoin:miter;stroke-miterlimit:4;stroke-opacity:1;stroke-dasharray:none"
       d="m 378.03186,582.35468 c -11.98519,-55.80475 -18.64287,-83.68426 -27.2474,-114.10035 -6.5265,-23.07048 -10.42408,-37.68709 -10.12829,-37.98288 0.15174,-0.15174 4.94009,5.27876 10.64077,12.06778 11.08175,13.1974 18.29831,20.55796 20.15579,20.55796 1.65131,0 5.86898,-1.86237 8.10754,-3.57999 4.47166,-3.43105 12.60332,-12.13526 15.67359,-16.77715 3.82119,-5.77719 12.22789,-23.01996 21.3283,-43.74591 3.49207,-7.9531 6.56144,-14.46203 6.82082,-14.46428 1.64027,-0.0142 1.08862,38.98768 -0.86373,61.06733 -2.22269,25.13677 -15.78821,82.81151 -31.66899,134.64286 -2.94904,9.625 -5.94403,19.18444 -6.65553,21.2432 l -1.29365,3.7432 -4.86922,-22.67177 0,0 z"
       id="path5426"
       inkscape:connector-curvature="0" />
    <path
       style="fill:#ffaaaa;fill-opacity:0;stroke:#000000;stroke-width:0.71428573;stroke-linejoin:miter;stroke-miterlimit:4;stroke-opacity:1;stroke-dasharray:none"
       d="m 377.62473,576.96851 c -11.61726,-53.68073 -17.90504,-79.36836 -31.1491,-127.25412 -2.16831,-7.83982 -3.84026,-14.56058 -3.71545,-14.93501 0.12481,-0.37443 4.26927,3.95069 9.20991,9.61137 4.94064,5.66069 11.11011,12.32684 13.70992,14.81368 4.3522,4.16307 4.91116,4.48312 7.05059,4.03712 3.84,-0.80054 8.09031,-3.6767 13.47497,-9.11847 9.78345,-9.88722 12.74709,-14.98658 27.87805,-47.96812 l 8.82776,-19.24224 0.22157,16.74224 c 0.2374,17.93913 -0.71877,37.60346 -2.44647,50.31366 -2.7533,20.25521 -12.97772,64.48418 -23.17944,100.27001 -6.11241,21.44124 -13.55664,45.97864 -14.15538,46.65845 -0.24215,0.27495 -2.81927,-10.49291 -5.72693,-23.92857 l 0,0 z"
       id="path5428"
       inkscape:connector-curvature="0" />
    <path
       style="fill:#ffaaaa;fill-opacity:0;stroke:#000000;stroke-width:0.71428573;stroke-linejoin:miter;stroke-miterlimit:4;stroke-opacity:1;stroke-dasharray:none"
       d="m 382.62306,595.29563 c -0.43486,-1.61495 -3.82279,-16.58677 -7.52874,-33.2707 -7.77465,-35.001 -15.43584,-66.54843 -22.49337,-92.62375 -6.40598,-23.66803 -8.02066,-30.08652 -7.75971,-30.84546 0.11715,-0.34071 4.713,4.28731 10.213,10.28449 5.5,5.99718 11.25722,11.94897 12.79383,13.22619 3.23249,2.68686 5.06659,2.61438 10.42046,-0.4118 4.08099,-2.3067 14.05807,-12.50452 17.87335,-18.26879 3.11776,-4.71042 12.11224,-22.61474 21.05769,-41.91719 l 5.46192,-11.78572 -0.3862,22.5 c -0.42845,24.96106 -1.09838,33.9072 -3.70696,49.50179 -4.92121,29.42001 -19.94638,88.75962 -32.3167,127.62985 l -2.83792,8.91735 -0.79065,-2.93626 z"
       id="path5430"
       inkscape:connector-curvature="0" />
    <path
       style="fill:#ffaaaa;fill-opacity:0;stroke:#000000;stroke-width:0.71428573;stroke-linejoin:miter;stroke-miterlimit:4;stroke-opacity:1;stroke-dasharray:none"
       d="m 382.28665,590.25243 c -0.63379,-2.67038 -4.99447,-21.56953 -9.6904,-41.9981 -7.48007,-32.54032 -16.72792,-69.9442 -23.4881,-95 -3.83275,-14.20563 -4.57091,-14.14271 8.54883,-0.72865 10.82677,11.06966 11.8711,11.94499 14.24999,11.94401 3.6519,-0.002 7.4224,-2.16031 13.33621,-7.63559 8.79658,-8.14428 12.78213,-14.24161 23.00704,-35.19751 5.12473,-10.5031 10.2596,-21.02511 11.41083,-23.38226 l 2.09315,-4.28571 0.028,7.85714 c 0.0483,13.55052 -1.2893,40.23104 -2.48612,49.59143 -3.12094,24.40864 -15.68127,76.83091 -29.70553,123.98 -3.15504,10.60714 -5.82984,19.38129 -5.944,19.4981 -0.11416,0.11681 -0.72612,-1.97247 -1.3599,-4.64286 l 0,0 z"
       id="path5432"
       inkscape:connector-curvature="0" />
    <path
       style="fill:#ffaaaa;fill-opacity:0;stroke:#000000;stroke-width:0.71428573;stroke-linejoin:miter;stroke-miterlimit:4;stroke-opacity:1;stroke-dasharray:none"
       d="m 380.14238,577.501 c -8.28726,-35.9769 -18.88524,-79.88675 -25.47108,-105.53245 -3.91438,-15.24289 -7.11706,-27.92584 -7.11706,-28.18434 0,-0.25849 4.92516,4.41832 10.94481,10.39292 10.17257,10.09646 11.13214,10.86292 13.59988,10.86292 3.95863,0 7.77141,-2.30555 14.50768,-8.77264 8.22069,-7.89219 12.41548,-14.49865 24.3555,-38.35792 l 10.19359,-20.36944 -0.40017,14.64285 c -0.90073,32.96049 -2.414,45.31102 -9.36449,76.42858 -6.11377,27.3715 -18.22336,72.99786 -26.15127,98.53237 l -1.65115,5.31809 -3.44624,-14.96094 0,0 z"
       id="path5434"
       inkscape:connector-curvature="0" />
    <path
       style="fill:#ffaaaa;fill-opacity:0;stroke:#000000;stroke-width:0.71428573;stroke-linejoin:miter;stroke-miterlimit:4;stroke-opacity:1;stroke-dasharray:none"
       d="m 376.9119,560.51719 c -5.69242,-24.33358 -26.36354,-108.66269 -27.68167,-112.92905 -0.23458,-0.75927 4.28113,3.01752 10.03492,8.39286 9.00695,8.41452 10.78214,9.77115 12.76812,9.75765 3.79706,-0.0258 7.91669,-2.40734 13.7559,-7.95215 9.66826,-9.18081 12.40951,-13.37404 25.84344,-39.53217 l 8.80399,-17.14285 -0.40308,11.78571 c -1.26651,37.03136 -4.42875,57.20589 -16.34616,104.28571 -6.33293,25.01832 -19.10401,71.06293 -19.944,71.90572 -0.0658,0.066 -3.13994,-12.79114 -6.83146,-28.57143 l 0,0 z"
       id="path5436"
       inkscape:connector-curvature="0" />
    <path
       style="fill:#ffaaaa;fill-opacity:0;stroke:#000000;stroke-width:0.71428573;stroke-linejoin:miter;stroke-miterlimit:4;stroke-opacity:1;stroke-dasharray:none"
       d="m 375.09937,549.86148 c -4.6562,-19.34822 -12.08754,-49.80358 -16.51409,-67.67858 -4.42655,-17.875 -7.99618,-32.55059 -7.93251,-32.61242 0.0637,-0.0618 4.22161,3.55003 9.23987,8.02636 5.01826,4.47634 9.87689,8.32773 10.79694,8.55865 4.55725,1.14379 10.4734,-2.49147 19.36466,-11.89889 7.29054,-7.71378 9.80879,-11.80834 24.55834,-39.93084 2.78159,-5.30357 5.05849,-9 5.05976,-8.21428 10e-4,0.78571 -0.46562,9.30357 -1.03756,18.92857 -1.71408,28.84605 -3.77372,42.03897 -11.82025,75.71428 -6.78156,28.38133 -21.94522,84.28548 -22.86196,84.28565 -0.21306,4e-5 -4.197,-15.83029 -8.8532,-35.1785 z"
       id="path5438"
       inkscape:connector-curvature="0" />
    <path
       style="fill:#ffaaaa;fill-opacity:0;stroke:#000000;stroke-width:0.71428573;stroke-linejoin:miter;stroke-miterlimit:4;stroke-opacity:1;stroke-dasharray:none"
       d="m 383.70246,580.75433 c -0.44196,-1.11831 -14.39138,-57.615 -25.09643,-101.64331 -3.41965,-14.06453 -6.04541,-25.74402 -5.83501,-25.95442 0.2104,-0.2104 3.0602,1.942 6.33289,4.78312 11.45486,9.94434 12.56906,10.42244 18.26424,7.83722 3.79917,-1.72457 15.82186,-13.26321 19.73734,-18.94269 3.89109,-5.6441 4.98739,-7.54323 13.81809,-23.93706 4.12652,-7.66071 7.64406,-14.07859 7.81675,-14.26194 0.17269,-0.18336 0.14189,1.74522 -0.0684,4.28571 -0.21034,2.5405 -0.73224,10.08337 -1.15978,16.76194 -1.72137,26.88941 -4.74454,43.83389 -15.3841,86.22591 -6.29691,25.08927 -15.7315,60.03837 -17.31237,64.13124 -0.5182,1.3416 -0.79504,1.51925 -1.11317,0.71428 l 0,0 z"
       id="path5440"
       inkscape:connector-curvature="0" />
    <path
       style="fill:#ffaaaa;fill-opacity:0;stroke:#000000;stroke-width:0.71428573;stroke-linejoin:miter;stroke-miterlimit:4;stroke-opacity:1;stroke-dasharray:none"
       d="m 383.33995,576.005 c -1.49139,-5.56808 -27.12808,-110.06828 -28.25234,-115.16212 -0.63956,-2.89773 -1.05124,-5.3802 -0.91483,-5.51661 0.1364,-0.1364 2.96196,2.01588 6.27902,4.78286 6.21619,5.18533 10.4146,7.78806 12.56275,7.78806 2.88082,0 8.21197,-3.58944 14.80178,-9.96599 9.01176,-8.72012 11.35595,-12.06056 21.84422,-31.1278 7.63603,-13.88197 8.58721,-15.31745 8.26636,-12.47519 -0.19942,1.76651 -0.8672,9.96184 -1.48396,18.21184 -2.14447,28.68514 -6.53207,50.83778 -21.0087,106.07143 -3.94888,15.06639 -10.7624,39.48736 -11.13042,39.89352 -0.12492,0.13788 -0.55867,-0.98712 -0.96388,-2.5 z"
       id="path5442"
       inkscape:connector-curvature="0" />
    <path
       style="fill:#ffaaaa;fill-opacity:0;stroke:#000000;stroke-width:0.71428573;stroke-linejoin:miter;stroke-miterlimit:4;stroke-opacity:1;stroke-dasharray:none"
       d="m 383.77773,574.67461 c -2.17639,-7.54942 -28.41483,-116.25275 -28.12956,-116.53802 0.20832,-0.20832 2.89205,1.53273 5.96385,3.869 7.45815,5.67233 9.82863,6.83978 12.76826,6.28831 3.31992,-0.62283 9.60799,-5.49385 16.89051,-13.08416 6.78586,-7.07266 9.58008,-11.1357 18.04647,-26.24112 8.08936,-14.43274 7.7316,-14.12934 7.15898,-6.07143 -0.91759,12.91233 -3.11028,31.83 -4.92604,42.5 -3.22403,18.94546 -11.02233,51.71198 -20.82466,87.5 -6.31722,23.06396 -6.45365,23.49159 -6.94781,21.77742 z"
       id="path5444"
       inkscape:connector-curvature="0" />
    <path
       style="fill:#ffaaaa;fill-opacity:0;stroke:#000000;stroke-width:0.71428573;stroke-linejoin:miter;stroke-miterlimit:4;stroke-opacity:1;stroke-dasharray:none"
       d="m 376.23662,540.75433 c -10.20041,-41.56445 -19.35871,-80.27605 -19.06176,-80.573 0.12709,-0.12709 2.72662,1.5595 5.77673,3.74798 7.52772,5.40122 9.91116,6.0661 14.23756,3.97173 3.63659,-1.76045 12.10423,-9.2821 18.08332,-16.06308 4.01178,-4.54982 8.41329,-11.33782 15.86017,-24.45949 2.50295,-4.4103 4.64509,-7.92446 4.7603,-7.80925 0.35092,0.35093 -2.48491,27.3278 -3.99153,37.97083 -3.04744,21.52765 -12.54477,61.97866 -24.56867,104.64285 l -3.12023,11.07143 -7.97589,-32.5 z"
       id="path5446"
       inkscape:connector-curvature="0" />
    <path
       style="fill:#ffaaaa;fill-opacity:0;stroke:#000000;stroke-width:0.71428573;stroke-linejoin:miter;stroke-miterlimit:4;stroke-opacity:1;stroke-dasharray:none"
       d="m 382.33263,562.54005 c -1.02877,-4.32143 -5.12721,-21.19643 -9.10765,-37.5 -7.99394,-32.74257 -14.89129,-62.38132 -14.5951,-62.71687 0.10528,-0.11928 2.67972,1.40751 5.72097,3.39286 8.66319,5.65539 11.70566,5.10753 22.06425,-3.97309 8.03375,-7.04261 13.26194,-13.69587 21.26912,-27.06655 4.18199,-6.98322 6.73478,-10.61804 6.86842,-9.77964 0.36138,2.26719 -3.3086,32.48959 -5.24644,43.20468 -3.69982,20.45766 -11.16285,51.78599 -20.02987,84.08146 -2.53477,9.23215 -4.71319,17.10715 -4.84094,17.5 -0.12774,0.39286 -1.07398,-2.82142 -2.10276,-7.14285 z"
       id="path5448"
       inkscape:connector-curvature="0" />
    <path
       style="fill:#ffaaaa;fill-opacity:0;stroke:#000000;stroke-width:0.71428573;stroke-linejoin:miter;stroke-miterlimit:4;stroke-opacity:1;stroke-dasharray:none"
       d="m 379.44988,547.40915 c -13.54665,-55.4965 -19.93383,-83.08339 -19.23628,-83.08339 0.20243,0 2.29108,1.16818 4.64144,2.59595 8.36137,5.07926 12.85309,3.88451 23.75977,-6.31987 6.83392,-6.39387 11.36365,-12.20605 19.2582,-24.71051 3.05276,-4.83536 5.6345,-8.69251 5.7372,-8.57143 0.10271,0.12108 -0.2253,3.91658 -0.72891,8.43443 -3.09101,27.72941 -6.46117,45.61176 -15.27894,81.07143 -5.5688,22.39435 -12.64224,48.90364 -13.19687,49.45827 -0.15397,0.15397 -2.384,-8.33972 -4.95561,-18.87488 z"
       id="path5450"
       inkscape:connector-curvature="0" />
    <path
       style="fill:#ffaaaa;fill-opacity:0;stroke:#000000;stroke-width:0.71428573;stroke-linejoin:miter;stroke-miterlimit:4;stroke-opacity:1;stroke-dasharray:none"
       d="m 379.08413,542.4065 c -8.95771,-36.5299 -17.95846,-74.76346 -17.95846,-76.2843 0,-0.19631 1.95281,0.66672 4.33958,1.91783 8.77948,4.60208 13.46765,2.89265 25.69886,-9.37046 5.49761,-5.51194 9.41342,-10.35379 14.46428,-17.88487 3.80922,-5.67972 6.92585,-9.74356 6.92585,-9.03076 0,5.62291 -4.80172,36.27278 -8.29203,52.92896 -3.97352,18.96203 -18.65833,76.83132 -19.78164,77.95463 -0.19235,0.19235 -2.62075,-8.91162 -5.39644,-20.23103 l 0,0 z"
       id="path5452"
       inkscape:connector-curvature="0" />
    <path
       style="fill:#ffaaaa;fill-opacity:0;stroke:#000000;stroke-width:0.71428573;stroke-linejoin:miter;stroke-miterlimit:4;stroke-opacity:1;stroke-dasharray:none"
       d="m 383.03583,554.55395 c -2.16278,-8.0782 -15.8904,-64.84909 -18.33328,-75.81766 -1.25339,-5.62778 -2.13666,-10.37456 -1.96281,-10.5484 0.17384,-0.17385 1.73001,0.32542 3.45815,1.10949 4.21084,1.91049 9.34473,1.86558 13.45226,-0.11768 4.89428,-2.36313 18.04567,-15.89941 25.09838,-25.83289 5.25783,-7.40547 6.0488,-8.23998 6.24753,-6.59137 0.52745,4.37552 -5.32114,38.57489 -10.21182,59.71318 -3.81471,16.48774 -14.43846,58.04213 -15.51044,60.66846 l -0.93385,2.28791 -1.30412,-4.87104 z"
       id="path5454"
       inkscape:connector-curvature="0" />
    <path
       style="fill:#ffaaaa;fill-opacity:0;stroke:#000000;stroke-width:0.71428573;stroke-linejoin:miter;stroke-miterlimit:4;stroke-opacity:1;stroke-dasharray:none"
       d="m 381.27806,544.13512 c -1.63185,-6.77015 -6.00712,-24.90324 -9.72282,-40.29577 -3.7157,-15.39253 -6.97092,-29.42078 -7.23381,-31.17389 l -0.478,-3.18747 4.05954,1.12992 c 5.40081,1.50323 10.52381,0.4863 15.3324,-3.04352 4.72701,-3.46995 14.53203,-13.899 21.16697,-22.51414 3.02991,-3.93418 5.59087,-7.15306 5.69102,-7.15306 0.72153,0 -3.03857,23.76253 -6.54852,41.38425 -3.6389,18.26917 -17.83934,75.70259 -19.00593,76.86918 -0.16162,0.16162 -1.629,-5.24536 -3.26085,-12.0155 z"
       id="path5456"
       inkscape:connector-curvature="0" />
    <path
       style="fill:#ffaaaa;fill-opacity:0;stroke:#000000;stroke-width:0.71428573;stroke-linejoin:miter;stroke-miterlimit:4;stroke-opacity:1;stroke-dasharray:none"
       d="m 383.4423,549.62395 c -0.4626,-1.93186 -2.8047,-11.54819 -5.20468,-21.36962 -6.04247,-24.72762 -13.52598,-57.03835 -13.26998,-57.29434 0.11688,-0.11689 1.89509,0.10656 3.95156,0.49657 4.22535,0.80132 8.60868,0.0839 12.80351,-2.09559 3.21518,-1.67048 15.26717,-13.85567 22.28887,-22.53521 l 5.20069,-6.42857 -0.45736,3.92857 c -0.88356,7.58949 -6.24991,36.51402 -9.10639,49.08325 -4.01084,17.64871 -13.34087,54.76651 -14.4487,57.4815 l -0.91643,2.24592 -0.84109,-3.51248 0,0 z"
       id="path5458"
       inkscape:connector-curvature="0" />
    <path
       style="fill:#ffaaaa;fill-opacity:0;stroke:#000000;stroke-width:0.71428573;stroke-linejoin:miter;stroke-miterlimit:4;stroke-opacity:1;stroke-dasharray:none"
       d="m 379.40024,529.85483 c -4.66136,-19.45168 -11.91566,-50.55997 -12.90746,-55.3505 l -0.48062,-2.32143 5.59247,-0.0157 c 4.04354,-0.0113 6.46609,-0.41204 8.7467,-1.44671 3.53678,-1.60458 14.56069,-12.07544 22.36057,-21.23877 2.76939,-3.25349 5.11919,-5.82492 5.22176,-5.71428 0.29214,0.31509 -3.55174,22.56485 -6.08138,35.20116 -3.4628,17.29778 -16.30303,69.74309 -17.32563,70.76568 -0.16085,0.16085 -2.46773,-8.78491 -5.12641,-19.87947 z"
       id="path5460"
       inkscape:connector-curvature="0" />
    <path
       style="fill:#ffaaaa;fill-opacity:0;stroke:#000000;stroke-width:0.71428573;stroke-linejoin:miter;stroke-miterlimit:4;stroke-opacity:1;stroke-dasharray:none"
       d="m 380.52223,530.99664 c -1.99036,-8.18684 -5.73281,-24.04588 -8.31657,-35.24231 -2.58375,-11.19643 -4.86969,-20.91964 -5.07986,-21.60714 -0.33623,-1.09992 0.16583,-1.25 4.18164,-1.25 8.64973,0 10.23753,-0.96577 23.56823,-14.3352 6.58036,-6.59948 11.96428,-11.90374 11.96428,-11.78724 0,0.11649 -1.30471,7.56848 -2.89936,16.55998 -4.07422,22.9726 -17.43742,80.18496 -19.12256,81.8701 -0.42644,0.42643 -2.01624,-4.8318 -4.2958,-14.20819 l 0,0 z"
       id="path5462"
       inkscape:connector-curvature="0" />
    <path
       style="fill:#ffaaaa;fill-opacity:0;stroke:#000000;stroke-width:0.71428573;stroke-linejoin:miter;stroke-miterlimit:4;stroke-opacity:1;stroke-dasharray:none"
       d="m 379.74738,524.14719 c -2.39433,-9.91964 -6.05343,-25.26786 -8.13131,-34.10714 l -3.77798,-16.07143 5.56784,-0.4378 c 7.19279,-0.56557 8.78339,-1.6184 21.82688,-14.44735 5.6736,-5.58029 10.17857,-9.50302 10.17857,-8.86306 0,0.63145 -1.46766,8.64383 -3.26148,17.80529 -6.41187,32.74699 -16.19018,74.1572 -17.51095,74.1572 -0.29603,0 -2.49723,-8.11607 -4.89157,-18.03571 l 0,0 z"
       id="path5464"
       inkscape:connector-curvature="0" />
    <path
       style="fill:#ffaaaa;fill-opacity:0;stroke:#000000;stroke-width:0.71428573;stroke-linejoin:miter;stroke-miterlimit:4;stroke-opacity:1;stroke-dasharray:none"
       d="m 384.46191,538.8088 c -0.69585,-1.1259 -15.4791,-62.06852 -15.4791,-63.81117 0,-0.36953 1.10918,-0.67187 2.46484,-0.67187 7.89269,0 10.53575,-1.60002 24.7784,-15 l 7.97163,-7.5 -0.52256,3.57143 c -2.03611,13.91545 -17.22938,82.25616 -18.62958,83.79752 -0.11297,0.12435 -0.3756,-0.0493 -0.58363,-0.38591 z"
       id="path5466"
       inkscape:connector-curvature="0" />
    <path
       style="fill:#ffaaaa;fill-opacity:0;stroke:#000000;stroke-width:0.71428573;stroke-linejoin:miter;stroke-miterlimit:4;stroke-opacity:1;stroke-dasharray:none"
       d="m 384.44034,535.27245 c -1.49521,-5.03488 -6.77087,-26.24505 -10.09595,-40.58955 -2.18557,-9.42857 -4.14696,-17.70535 -4.35866,-18.39285 -0.31243,-1.01465 0.0613,-1.25321 1.98466,-1.26704 6.83702,-0.0492 10.86169,-2.41044 23.04679,-13.52152 4.30104,-3.92194 7.88295,-7.06056 7.9598,-6.9747 0.7315,0.81733 -16.73402,80.45871 -17.94266,81.81709 -0.11373,0.12782 -0.38102,-0.35433 -0.59398,-1.07143 l 0,0 z"
       id="path5468"
       inkscape:connector-curvature="0" />
    <path
       style="fill:#ffaaaa;fill-opacity:0;stroke:#000000;stroke-width:0.71428573;stroke-linejoin:miter;stroke-miterlimit:4;stroke-opacity:1;stroke-dasharray:none"
       d="m 377.7762,505.04005 -7.1603,-28.92857 4.68673,-0.87478 c 5.52192,-1.03066 8.81917,-3.12404 18.94399,-12.02728 3.84656,-3.38246 7.1194,-6.02426 7.27299,-5.87067 0.52495,0.52495 -12.42474,61.05709 -15.62944,73.05844 l -0.95368,3.57143 -7.16029,-28.92857 z"
       id="path5470"
       inkscape:connector-curvature="0" />
    <path
       style="fill:#ffaaaa;fill-opacity:0;stroke:#000000;stroke-width:0.71428573;stroke-linejoin:miter;stroke-miterlimit:4;stroke-opacity:1;stroke-dasharray:none"
       d="m 378.39363,504.32576 c -3.61599,-14.73214 -6.56983,-26.97564 -6.5641,-27.20776 0.006,-0.23213 1.69792,-0.80056 3.76042,-1.26318 5.01574,-1.12503 9.53987,-3.86283 17.67858,-10.69827 3.73214,-3.13451 6.88267,-5.605 7.00117,-5.48996 0.40028,0.38854 -9.68479,47.77467 -14.36932,67.51631 l -0.93222,3.92858 -6.57453,-26.78572 z"
       id="path5472"
       inkscape:connector-curvature="0" />
    <path
       style="fill:#ffaaaa;fill-opacity:0;stroke:#000000;stroke-width:0.71428573;stroke-linejoin:miter;stroke-miterlimit:4;stroke-opacity:1;stroke-dasharray:none"
       d="m 384.42176,525.75433 c -1.65679,-6.55314 -11.09688,-45.60708 -11.28195,-46.67376 -0.17965,-1.03547 0.72842,-1.66579 4.25253,-2.95183 5.20088,-1.89792 8.5146,-3.97278 15.73788,-9.85412 2.87036,-2.33711 5.36129,-4.10683 5.5354,-3.93272 0.40289,0.4029 -3.35103,18.93421 -8.93883,44.12672 -5.05029,22.76916 -4.72412,21.58341 -5.30503,19.28571 z"
       id="path5474"
       inkscape:connector-curvature="0" />
    <path
       style="fill:#ffaaaa;fill-opacity:0;stroke:#000000;stroke-width:0.71428573;stroke-linejoin:miter;stroke-miterlimit:4;stroke-opacity:1;stroke-dasharray:none"
       d="m 384.11103,521.11148 c -0.99176,-3.63302 -10.12822,-41.66968 -10.12822,-42.16554 0,-0.20379 2.37794,-1.45419 5.28431,-2.77867 2.90637,-1.32447 8.10084,-4.5326 11.54327,-7.12917 3.44242,-2.59657 6.38899,-4.59101 6.54792,-4.43208 0.44802,0.44802 -10.84982,54.66432 -12.22141,58.64831 -0.13525,0.39286 -0.59689,-0.57143 -1.02587,-2.14285 z"
       id="path5476"
       inkscape:connector-curvature="0" />
    <path
       style="fill:#ffaaaa;fill-opacity:0;stroke:#000000;stroke-width:0.71428573;stroke-linejoin:miter;stroke-miterlimit:4;stroke-opacity:1;stroke-dasharray:none"
       d="m 384.10916,517.54005 c -0.43491,-1.57143 -2.58571,-10.41072 -4.77955,-19.64286 -2.19384,-9.23214 -4.12369,-17.18789 -4.28857,-17.67944 -0.17417,-0.51927 1.41179,-1.76044 3.78529,-2.96236 2.24678,-1.13775 7.08892,-4.04443 10.76031,-6.45928 l 6.67526,-4.39063 -0.48578,3.06728 c -0.65311,4.1238 -9.47342,46.07557 -10.25627,48.78157 l -0.61993,2.14286 -0.79076,-2.85714 0,0 z"
       id="path5478"
       inkscape:connector-curvature="0" />
    <path
       style="fill:#ffaaaa;fill-opacity:0;stroke:#000000;stroke-width:0.71428573;stroke-linejoin:miter;stroke-miterlimit:4;stroke-opacity:1;stroke-dasharray:none"
       d="m 380.52289,499.58135 c -2.41847,-9.87728 -4.39475,-18.39514 -4.39172,-18.92857 0.003,-0.53343 1.3691,-1.74063 3.03571,-2.68266 1.66662,-0.94202 6.00343,-3.57277 9.63736,-5.8461 3.63393,-2.27332 6.59474,-4.074 6.57958,-4.0015 -0.0152,0.0725 -2.3757,11.2211 -5.24564,24.77467 l -5.21807,24.64286 -4.39722,-17.9587 z"
       id="path5480"
       inkscape:connector-curvature="0" />
    <path
       style="fill:#ffaaaa;fill-opacity:0;stroke:#000000;stroke-width:0.71428573;stroke-linejoin:miter;stroke-miterlimit:4;stroke-opacity:1;stroke-dasharray:none"
       d="m 384.30384,511.82576 c -0.31125,-1.17857 -2.09863,-8.57143 -3.97197,-16.42857 -3.19507,-13.40072 -3.3313,-14.3593 -2.199,-15.47351 1.81644,-1.78742 15.46504,-9.86817 15.67796,-9.28224 0.10183,0.28025 -1.86825,10.14351 -4.37797,21.91836 -3.66296,17.18552 -4.67476,20.9861 -5.12902,19.26596 z"
       id="path5482"
       inkscape:connector-curvature="0" />
    <path
       style="fill:#ffaaaa;fill-opacity:0;stroke:#000000;stroke-width:0.71428573;stroke-linejoin:miter;stroke-miterlimit:4;stroke-opacity:1;stroke-dasharray:none"
       d=""
       id="path5484"
       inkscape:connector-curvature="0" />
    <path
       style="fill:#ffaaaa;fill-opacity:0;stroke:#000000;stroke-width:0.71428573;stroke-linejoin:miter;stroke-miterlimit:4;stroke-opacity:1;stroke-dasharray:none"
       d=""
       id="path5486"
       inkscape:connector-curvature="0" />
    <path
       style="fill:#ffaaaa;fill-opacity:0;stroke:#000000;stroke-width:0.71428573;stroke-linejoin:miter;stroke-miterlimit:4;stroke-opacity:1;stroke-dasharray:none"
       d=""
       id="path5488"
       inkscape:connector-curvature="0" />
    <path
       style="fill:#ffaaaa;fill-opacity:0;stroke:#000000;stroke-width:0.71428573;stroke-linejoin:miter;stroke-miterlimit:4;stroke-opacity:1;stroke-dasharray:none"
       d="m 381.96177,498.79005 c -4.48013,-19.41193 -4.2569,-17.29218 -2.00977,-19.08398 2.98709,-2.38182 11.9958,-7.65342 12.39568,-7.25353 0.19348,0.19347 -1.01226,6.8816 -2.67943,14.8625 -1.66716,7.9809 -3.34957,16.03751 -3.73869,17.90358 -0.38911,1.86607 -0.93104,3.39286 -1.20428,3.39286 -0.27324,0 -1.51682,-4.41965 -2.76351,-9.82143 z"
       id="path5490"
       inkscape:connector-curvature="0" />
    <path
       style="fill:#ffaaaa;fill-opacity:0;stroke:#000000;stroke-width:0.71428573;stroke-linejoin:miter;stroke-miterlimit:4;stroke-opacity:1;stroke-dasharray:none"
       d="m 384.4242,505.04005 c -0.24156,-0.58929 -1.57021,-6.01399 -2.95255,-12.05491 -1.75334,-7.66221 -2.29275,-11.24927 -1.78383,-11.86248 0.40123,-0.48346 3.13889,-2.36591 6.08368,-4.18322 3.72607,-2.29947 5.35417,-2.98184 5.35417,-2.24404 0,1.11089 -5.53851,29.4624 -5.99764,30.70179 -0.14554,0.39286 -0.46226,0.23214 -0.70383,-0.35714 z"
       id="path5492"
       inkscape:connector-curvature="0" />
    <path
       style="fill:#ffaaaa;fill-opacity:0;stroke:#000000;stroke-width:0.71428573;stroke-linejoin:miter;stroke-miterlimit:4;stroke-opacity:1;stroke-dasharray:none"
       d="m 384.59022,501.82576 c -0.6382,-0.98614 -4.17884,-16.95868 -4.17884,-18.85158 0,-1.09854 1.25359,-2.34695 4.39646,-4.37828 2.41805,-1.56286 4.61626,-2.84157 4.8849,-2.84157 0.26865,0 -0.57259,5.38393 -1.86943,11.96429 -1.29684,6.58036 -2.4508,12.60714 -2.56436,13.39286 -0.11356,0.78571 -0.41449,1.10714 -0.66873,0.71428 l 0,0 z"
       id="path5494"
       inkscape:connector-curvature="0" />
    <path
       style="fill:#ffaaaa;fill-opacity:0;stroke:#000000;stroke-width:0.71428573;stroke-linejoin:miter;stroke-miterlimit:4;stroke-opacity:1;stroke-dasharray:none"
       d="m 383.01785,492.36148 c -2.06814,-9.77173 -2.033,-10.00083 1.96012,-12.77972 1.92233,-1.3378 3.60189,-2.32561 3.73235,-2.19515 0.41699,0.41699 -3.54211,20.51058 -4.04126,20.51058 -0.26378,0 -1.00683,-2.49107 -1.65121,-5.53571 z"
       id="path5496"
       inkscape:connector-curvature="0" />
    <path
       style="fill:#ffaaaa;fill-opacity:0;stroke:#000000;stroke-width:0.71428573;stroke-linejoin:miter;stroke-miterlimit:4;stroke-opacity:1;stroke-dasharray:none"
       d="m 383.37454,490.31491 c -1.29831,-6.46474 -1.10376,-7.83289 1.36368,-9.58986 1.20119,-0.85532 2.3683,-1.37082 2.59357,-1.14555 0.49274,0.49274 -1.88852,13.4317 -2.62206,14.2474 -0.2832,0.3149 -0.88403,-1.26549 -1.33519,-3.51199 z"
       id="path5498"
       inkscape:connector-curvature="0" />
    <path
       style="fill:#ffaaaa;fill-opacity:0;stroke:#000000;stroke-width:0.71428573;stroke-linejoin:miter;stroke-miterlimit:4;stroke-opacity:1;stroke-dasharray:none"
       d="m 383.65476,487.48508 c -0.36279,-2.41925 -0.19575,-3.70078 0.65075,-4.9927 1.31593,-2.00837 2.80297,-2.32862 2.26612,-0.48805 -0.20052,0.6875 -0.5807,2.78074 -0.84484,4.65164 -0.63611,4.50563 -1.47062,4.83956 -2.07203,0.82911 z"
       id="path5500"
       inkscape:connector-curvature="0" />
    <path
       style="fill:#ffaaaa;fill-opacity:0;stroke:#000000;stroke-width:0.71428573;stroke-linejoin:miter;stroke-miterlimit:4;stroke-opacity:1;stroke-dasharray:none"
       d=""
       id="path5502"
       inkscape:connector-curvature="0" />
    <path
       style="fill:#ffaaaa;fill-opacity:0;stroke:#000000;stroke-width:0.71428573;stroke-linejoin:miter;stroke-miterlimit:4;stroke-opacity:1;stroke-dasharray:none"
       d=""
       id="path5504"
       inkscape:connector-curvature="0" />
  </g>
</svg>
