<?xml version="1.0" encoding="UTF-8" standalone="no"?>
<!-- Created with Inkscape (http://www.inkscape.org/) -->

<svg
   xmlns:dc="http://purl.org/dc/elements/1.1/"
   xmlns:cc="http://creativecommons.org/ns#"
   xmlns:rdf="http://www.w3.org/1999/02/22-rdf-syntax-ns#"
   xmlns:svg="http://www.w3.org/2000/svg"
   xmlns="http://www.w3.org/2000/svg"
   xmlns:sodipodi="http://sodipodi.sourceforge.net/DTD/sodipodi-0.dtd"
   xmlns:inkscape="http://www.inkscape.org/namespaces/inkscape"
   width="744.09448819"
   height="1052.3622047"
   id="svg3314"
   version="1.1"
   inkscape:version="0.48.4 r9939"
   sodipodi:docname="New document 3">
  <defs
     id="defs3316" />
  <sodipodi:namedview
     id="base"
     pagecolor="#ffffff"
     bordercolor="#666666"
     borderopacity="1.0"
     inkscape:pageopacity="0.0"
     inkscape:pageshadow="2"
     inkscape:zoom="0.49497475"
     inkscape:cx="324.18244"
     inkscape:cy="707.20269"
     inkscape:document-units="px"
     inkscape:current-layer="layer1"
     showgrid="false"
     showguides="true"
     inkscape:guide-bbox="true"
     inkscape:window-width="1366"
     inkscape:window-height="716"
     inkscape:window-x="0"
     inkscape:window-y="0"
     inkscape:window-maximized="1" />
  <metadata
     id="metadata3319">
    <rdf:RDF>
      <cc:Work
         rdf:about="">
        <dc:format>image/svg+xml</dc:format>
        <dc:type
           rdf:resource="http://purl.org/dc/dcmitype/StillImage" />
        <dc:title></dc:title>
      </cc:Work>
    </rdf:RDF>
  </metadata>
  <g
     inkscape:label="Layer 1"
     inkscape:groupmode="layer"
     id="layer1">
    <path
       style="fill:#ffccaa;stroke:#000000;stroke-width:1px;stroke-linecap:butt;stroke-linejoin:miter;stroke-opacity:1"
       d="m 85.714286,400.45826 c -9.447296,37.37686 28.607924,115.29357 30.448154,123.33249 47.69069,77.24504 140.74399,92.68179 140.88145,86.34807 l -6.95723,-27.01159 c -11.07692,-29.51885 -57.33343,-56.00725 -85.91734,-85.5261 0,0 6.49275,-77.17248 -19.00472,-99.3216 -21.97059,-19.0854 -59.450314,2.17873 -59.450314,2.17873 z"
       id="path3326"
       inkscape:connector-curvature="0"
       sodipodi:nodetypes="cccccsc" />
    <path
       style="fill:#ffccaa;stroke:#000000;stroke-width:0.93862629px;stroke-linecap:butt;stroke-linejoin:miter;stroke-opacity:1"
       d="m 565.59337,409.86559 c -17.11293,23.21007 -15.12604,92.15886 -19.58327,91.60171 -34.93079,19.43443 -45.81413,55.01749 -67.48167,89.0415 l -4.58762,44.03308 c 61.0479,-19.75733 69.57907,-60.21018 109.50662,-103.7279 7.52846,-34.62814 35.72564,-51.79327 50.71052,-133.5753 0,0 -49.30262,-13.49786 -68.56458,12.62691 z"
       id="path3328"
       inkscape:connector-curvature="0"
       sodipodi:nodetypes="scccccs" />
  </g>
</svg>
