<?xml version="1.0" encoding="UTF-8" standalone="no"?>
<!-- Created with Inkscape (http://www.inkscape.org/) -->

<svg
   xmlns:dc="http://purl.org/dc/elements/1.1/"
   xmlns:cc="http://creativecommons.org/ns#"
   xmlns:rdf="http://www.w3.org/1999/02/22-rdf-syntax-ns#"
   xmlns:svg="http://www.w3.org/2000/svg"
   xmlns="http://www.w3.org/2000/svg"
   xmlns:sodipodi="http://sodipodi.sourceforge.net/DTD/sodipodi-0.dtd"
   xmlns:inkscape="http://www.inkscape.org/namespaces/inkscape"
   width="744.09448819"
   height="1052.3622047"
   id="svg3089"
   version="1.1"
   inkscape:version="0.48.4 r9939"
   sodipodi:docname="BOTTLE GLYCERINE.svg">
  <defs
     id="defs3091" />
  <sodipodi:namedview
     id="base"
     pagecolor="#ffffff"
     bordercolor="#666666"
     borderopacity="1.0"
     inkscape:pageopacity="0.0"
     inkscape:pageshadow="2"
     inkscape:zoom="1"
     inkscape:cx="412.81157"
     inkscape:cy="448.01352"
     inkscape:document-units="px"
     inkscape:current-layer="layer1"
     showgrid="false"
     inkscape:window-width="1366"
     inkscape:window-height="716"
     inkscape:window-x="0"
     inkscape:window-y="0"
     inkscape:window-maximized="1" />
  <metadata
     id="metadata3094">
    <rdf:RDF>
      <cc:Work
         rdf:about="">
        <dc:format>image/svg+xml</dc:format>
        <dc:type
           rdf:resource="http://purl.org/dc/dcmitype/StillImage" />
        <dc:title></dc:title>
      </cc:Work>
    </rdf:RDF>
  </metadata>
  <g
     inkscape:label="Layer 1"
     inkscape:groupmode="layer"
     id="layer1">
    <rect
       style="fill:#ffffff;stroke:#834b4b;stroke-opacity:1"
       id="rect3097"
       width="351.53305"
       height="511.13687"
       x="224.25385"
       y="319.74905"
       ry="122.93404" />
    <rect
       style="fill:#ffffff;stroke:#834b4b;stroke-width:1.02304041;stroke-opacity:1"
       id="rect3119"
       width="83.819626"
       height="121.19527"
       x="357.6055"
       y="197.78467"
       rx="2.0443811"
       ry="121.19527" />
    <path
       style="fill:none;stroke:#000000;stroke-width:1.42539144px;stroke-linecap:butt;stroke-linejoin:miter;stroke-opacity:1"
       d="m 332.03293,124.15802 48.0768,122.89989"
       id="path3121"
       inkscape:connector-curvature="0" />
    <path
       style="fill:none;stroke:#000000;stroke-width:1.12803066px;stroke-linecap:butt;stroke-linejoin:miter;stroke-opacity:1"
       d="m 333.73259,124.92296 129.3607,-1.65566"
       id="path3125"
       inkscape:connector-curvature="0" />
    <path
       style="fill:none;stroke:#000000;stroke-width:1.48504686px;stroke-linecap:butt;stroke-linejoin:miter;stroke-opacity:1"
       d="M 462.91242,123.26436 424.00151,246.523"
       id="path3129"
       inkscape:connector-curvature="0" />
    <path
       style="fill:none;stroke:#000000;stroke-width:0.90472049px;stroke-linecap:butt;stroke-linejoin:miter;stroke-opacity:1"
       d="m 380.52733,247.0657 45.04707,-0.85289"
       id="path3141"
       inkscape:connector-curvature="0" />
    <path
       style="fill:none;stroke:#000000;stroke-width:1px;stroke-linecap:butt;stroke-linejoin:miter;stroke-opacity:1"
       d="m 440,196.6479 52.14286,-5"
       id="path3929"
       inkscape:connector-curvature="0" />
    <path
       style="fill:none;stroke:#000000;stroke-width:1px;stroke-linecap:butt;stroke-linejoin:miter;stroke-opacity:1"
       d="m 447.14286,173.07647 45,17.85714"
       id="path3931"
       inkscape:connector-curvature="0" />
    <rect
       style="fill:#ffffff;stroke:#834b4b;stroke-width:1.06921148;stroke-opacity:1"
       id="rect3937"
       width="294.21655"
       height="119.93044"
       x="260.03461"
       y="472.39679"
       rx="0"
       ry="46.55191" />
    <path
       style="fill:none;stroke:#000000;stroke-width:1px;stroke-linecap:butt;stroke-linejoin:miter;stroke-opacity:1"
       d="M 223.57143,432.36218 575,429.50504"
       id="path3974"
       inkscape:connector-curvature="0" />
    <text
       xml:space="preserve"
       style="font-size:54.6518364px;font-style:normal;font-weight:normal;line-height:125%;letter-spacing:0px;word-spacing:0px;fill:#000000;fill-opacity:1;stroke:none;font-family:Sans"
       x="308.95749"
       y="476.82462"
       id="text4001"
       sodipodi:linespacing="125%"
       transform="scale(0.86095987,1.1614943)"><tspan
         sodipodi:role="line"
         x="308.95749"
         y="476.82462"
         id="tspan4007"> GLYCERINE</tspan></text>
    <path
       style="fill:#ececec;fill-opacity:1"
       d="m 225.7606,430.83705 c 0.003,-1.95844 3.07181,-17.282 4.36295,-21.78839 10.75608,-37.54151 40.9173,-69.35881 77.13568,-81.37102 19.59502,-6.4989 18.3011,-6.39387 84.5,-6.8592 63.476,-0.44619 76.87213,0.10612 91,3.75182 37.23893,9.60952 67.95525,36.10755 82.31126,71.0074 3.81638,9.27772 7.15444,20.81693 8.16376,28.221 l 0.64753,4.75 -8.16026,0 c -17.85939,0 -245.48752,1.95085 -291.21229,2.49579 -26.8125,0.31954 -48.74938,0.22621 -48.74863,-0.2074 z"
       id="path3226"
       inkscape:connector-curvature="0" />
    <path
       style="fill:#ececec;fill-opacity:1"
       d="m 360.09572,316.29866 c -1.089,-1.74173 -1.73965,-83.65835 -0.80669,-101.56209 l 0.76537,-14.68791 1.72887,4 c 0.95087,2.2 5.19939,12.8875 9.44116,23.75 l 7.7123,19.75 23.16125,-0.0145 23.16125,-0.0145 6.48763,-21.07337 c 3.56819,-11.59035 6.83069,-21.28539 7.25,-21.54453 1.37177,-0.8478 1.51445,94.30175 0.16105,107.39686 l -0.54259,5.25 -38.86903,0 c -30.01173,0 -39.04712,-0.28484 -39.65057,-1.25 z"
       id="path3228"
       inkscape:connector-curvature="0" />
    <path
       style="fill:#ececec;fill-opacity:1"
       d="m 360.65446,193.79866 c -0.5504,-1.5125 -6.7362,-17.375 -13.74622,-35.25 l -12.74549,-32.5 62.88542,-0.82949 c 34.58698,-0.45621 63.09907,-0.61583 63.36021,-0.35469 0.26114,0.26114 -4.58539,16.49691 -10.77006,36.07949 l -11.24486,35.60469 -38.36914,0 -38.36913,0 -1.00073,-2.75 z"
       id="path3230"
       inkscape:connector-curvature="0" />
    <path
       style="fill:#ececec;fill-opacity:1"
       d="m 372.29157,223.54866 c -4.82907,-12.375 -8.99752,-23.0625 -9.26322,-23.75 -0.38124,-0.98644 7.46871,-1.25 37.23088,-1.25 33.71637,0 37.65068,0.16494 37.11687,1.55604 -0.32841,0.85583 -3.58591,11.09333 -7.23888,22.75 -3.65297,11.65668 -6.91992,21.49624 -7.25988,21.8657 -0.33996,0.36945 -9.88531,0.81945 -21.21188,1 l -20.59377,0.32826 -8.78012,-22.5 z"
       id="path3232"
       inkscape:connector-curvature="0" />
    <path
       style="fill:#ececec;fill-opacity:1"
       d="m 441.75923,194.87165 c 0,-0.49478 1.4625,-5.22489 3.25,-10.51137 l 3.25,-9.61177 19,7.4572 c 10.45,4.10146 19.34257,7.79656 19.76126,8.21134 0.4187,0.41478 -8.1313,1.54218 -19,2.50534 -10.86869,0.96315 -21.22376,1.99817 -23.01126,2.30002 -1.7875,0.30186 -3.25,0.14402 -3.25,-0.35076 z"
       id="path3234"
       inkscape:connector-curvature="0" />
    <path
       style="fill:#ececec;fill-opacity:1"
       d="m 442.77005,193.90064 c 0.006,-0.46859 0.69329,-3.10198 1.52741,-5.85198 0.83412,-2.75 1.55816,-5.225 1.60898,-5.5 0.0508,-0.275 0.48848,-1.54179 0.97259,-2.8151 0.48411,-1.2733 0.8802,-2.7358 0.8802,-3.25 0,-1.41106 0.79226,-1.21814 10.25688,2.49751 4.80871,1.88782 8.74312,3.22745 8.74312,2.97695 0,-0.25051 1.125,0.28167 2.5,1.1826 1.375,0.90093 2.50689,1.24881 2.51531,0.77305 0.008,-0.47575 0.34592,-0.38705 0.75,0.19712 0.40408,0.58417 3.38703,2.12525 6.62878,3.42463 5.36917,2.15209 5.6845,2.44003 3.5407,3.23307 -1.29437,0.47882 -6.19548,1.11745 -10.89137,1.41919 -4.6959,0.30173 -8.82269,0.72456 -9.17065,0.93962 -1.37679,0.8509 -19.87208,1.57103 -19.86195,0.77334 l 0,0 z"
       id="path3236"
       inkscape:connector-curvature="0" />
    <path
       style="fill:#ececec;fill-opacity:1"
       d="m 248.50923,430.81898 c -24.97714,-0.35522 -22.79361,0.8812 -20.22943,-11.45494 2.08866,-10.04844 6.1179,-22.02716 10.07289,-29.94617 1.82139,-3.64694 3.03298,-6.90944 2.69241,-7.25 -0.34056,-0.34056 -0.14706,-0.61921 0.43,-0.61921 0.57707,0 3.01457,-3.0359 5.41667,-6.74645 2.4021,-3.71056 9.09246,-11.51253 14.86746,-17.33772 15.08163,-15.2127 28.46928,-23.48271 49.21387,-30.40109 15.47875,-5.16221 26.69004,-5.75103 99.57017,-5.22948 63.4369,0.45397 62.73535,0.40718 78.21596,5.21752 42.94129,13.34328 74.91158,49.34086 83.30643,93.80051 l 1.45329,7.69671 -27.12986,-0.0411 c -14.92142,-0.0226 -51.87986,0.19936 -82.12986,0.49324 -30.25,0.29388 -84.7,0.77557 -121,1.07042 -36.3,0.29485 -67.575,0.65331 -69.5,0.79659 -1.925,0.14328 -13.2875,0.1213 -25.25,-0.0488 l 0,-3e-5 z"
       id="path3238"
       inkscape:connector-curvature="0" />
    <path
       style="fill:#ececec;fill-opacity:1"
       d="m 248.00923,430.81652 c -21.22825,-0.30732 -21.24998,-0.30992 -21.23264,-2.53775 0.055,-7.06558 6.24965,-28.20187 11.12286,-37.95159 1.57288,-3.14682 2.85978,-6.21646 2.85978,-6.82143 0,-0.60497 0.69077,-1.79071 1.53504,-2.63499 0.84427,-0.84427 3.3229,-4.16777 5.50805,-7.38555 5.89565,-8.68173 19.63988,-22.66936 28.58276,-29.08895 17.31999,-12.43303 37.68171,-20.2317 57.00272,-21.83241 15.25067,-1.2635 122.0373,-1.282 133.87143,-0.0232 44.15781,4.69708 82.80575,35.01668 99.07712,77.72673 2.24665,5.89714 7.75068,27.36123 7.14236,27.85312 -0.12071,0.0976 -39.81948,0.46576 -88.21948,0.8181 -134.12639,0.97639 -202.32891,1.59676 -209.5,1.9056 -3.575,0.15397 -16.0625,0.14151 -27.75,-0.0277 l 0,2e-5 z"
       id="path3240"
       inkscape:connector-curvature="0" />
    <path
       style="fill:#ececec;fill-opacity:1"
       d="m 247.50923,430.81494 -20.75,-0.30686 0.007,-2.72971 c 0.0167,-6.50058 5.73692,-25.43729 12.15225,-40.22971 5.19352,-11.97519 23.64768,-33.21949 37.5545,-43.23248 10.36721,-7.46445 20.81586,-12.70399 34.20139,-17.15052 15.96994,-5.30504 26.03921,-5.84753 99.19491,-5.34425 57.81676,0.39775 61.88839,0.54271 69.95371,2.49054 41.64659,10.05789 74.61614,40.07731 87.89906,80.03381 2.51473,7.56461 6.31905,23.3355 5.73899,23.79112 -0.18943,0.14878 -69.31461,0.74649 -223.20182,1.92997 -36.3,0.27917 -69.6,0.63073 -74,0.78126 -4.4,0.15053 -17.3375,0.1356 -28.75,-0.0332 l 0,3e-5 z"
       id="path3242"
       inkscape:connector-curvature="0" />
    <path
       style="fill:#ececec;fill-opacity:1"
       d="m 246.50923,430.81678 -19.75,-0.3104 0.007,-2.72886 c 0.0164,-6.37972 5.73485,-25.61431 11.6628,-39.22886 5.6429,-12.95987 23.58811,-33.82419 38.04395,-44.23248 17.04455,-12.27217 37.23565,-20.04617 56.49218,-21.7507 15.00822,-1.32848 121.72109,-1.31042 134.71295,0.0228 31.37033,3.2192 62.03693,20.81024 81.61256,46.81477 7.27273,9.66118 15.136,24.31732 18.31972,34.14561 2.35381,7.26635 6.44412,24.06189 5.96112,24.47742 -0.32829,0.28243 -93.98854,1.17728 -212.81229,2.03327 -38.775,0.27932 -75.9,0.63386 -82.5,0.78785 -6.6,0.15399 -20.8875,0.1403 -31.75,-0.0304 l 0,-2e-5 z"
       id="path3244"
       inkscape:connector-curvature="0" />
    <path
       style="fill:#ececec;fill-opacity:1"
       d="m 246.00923,430.822 -19.25,-0.31653 0.0148,-2.7284 c 0.0186,-3.4405 2.40269,-13.76852 5.13106,-22.22841 6.74961,-20.92862 14.23979,-32.69762 31.82162,-50 12.11366,-11.92112 22.71269,-19.01524 37.13115,-24.85254 13.00103,-5.26345 20.1209,-7.0714 32.10145,-8.15151 14.2242,-1.28239 122.13758,-1.24741 134.71883,0.0437 45.41808,4.66078 86.51568,38.57679 100.52689,82.96038 2.5978,8.22907 5.86697,22.06489 5.32182,22.52301 -0.31556,0.26519 -103.54048,1.26227 -205.2676,1.98274 -39.6,0.28046 -78.975,0.63912 -87.5,0.79702 -8.525,0.1579 -24.1625,0.14465 -34.75,-0.0294 l 0,-3e-5 z"
       id="path3246"
       inkscape:connector-curvature="0" />
    <path
       style="fill:#ececec;fill-opacity:1"
       d="m 235.37635,430.84526 -8.88288,-0.37834 0.64587,-5.49532 c 1.15096,-9.79286 5.98899,-24.93215 12.7581,-39.92294 2.71021,-6.00202 13.40323,-19.2397 23.82925,-29.5 12.4533,-12.25536 22.89344,-19.13533 38.71607,-25.51358 19.51545,-7.86687 17.88045,-7.71644 89.26635,-8.2132 68.82678,-0.47895 79.96141,0.0272 94.72604,4.3058 38.22095,11.076 69.91113,41.85586 81.76986,79.42098 2.59914,8.23334 5.86626,22.06232 5.32182,22.52607 -0.28579,0.24345 -88.68047,1.16304 -190.2676,1.97941 -34.1,0.27404 -79.325,0.64927 -100.5,0.83385 -21.175,0.18459 -42.4973,0.16536 -47.38288,-0.0427 l 0,-3e-5 z"
       id="path3248"
       inkscape:connector-curvature="0" />
    <path
       style="fill:#ececec;fill-opacity:1"
       d="m 232.87213,430.86832 -6.38709,-0.42221 0.60959,-5.69873 c 0.82751,-7.73588 4.90061,-21.34373 9.88498,-33.02483 5.15963,-12.09181 12.84008,-22.47736 26.75174,-36.17389 12.44802,-12.25552 22.88333,-19.13313 38.71141,-25.51358 19.51545,-7.86687 17.88045,-7.71644 89.26635,-8.2132 68.82678,-0.47895 79.96141,0.0272 94.72604,4.3058 32.32055,9.36613 59.70568,32.35753 75.16568,63.10594 4.11045,8.17529 10.32769,27.06926 11.53847,35.06504 l 0.64357,4.25 -26.76182,0.0135 c -14.719,0.007 -34.63682,0.21278 -44.26182,0.45639 -9.625,0.24362 -54.625,0.68894 -100,0.98962 -45.375,0.30067 -100.725,0.71222 -123,0.91454 -22.275,0.20232 -43.37419,0.17786 -46.8871,-0.0543 l 0,-9e-5 z"
       id="path3250"
       inkscape:connector-curvature="0" />
    <path
       style="fill:#ececec;fill-opacity:1"
       d="m 231.87273,430.85575 -5.3865,-0.42108 0.59573,-5.693 c 1.5445,-14.75985 10.97412,-38.6265 20.02859,-50.69301 22.86063,-30.46536 53.15525,-48.67709 85.64868,-51.48805 15.31291,-1.32469 121.95358,-1.30282 134.91889,0.0277 45.88261,4.70845 86.39698,38.43574 100.85603,83.96038 3.01165,9.48224 5.70103,20.88523 5.06244,21.46478 -0.49225,0.44675 -125.93694,1.71392 -287.33736,2.90253 -26.95,0.19847 -51.42393,0.17137 -54.3865,-0.0602 l 0,-2e-5 z"
       id="path3252"
       inkscape:connector-curvature="0" />
    <path
       style="fill:#ececec;fill-opacity:1"
       d="m 230.87348,430.80982 -4.38576,-0.38942 0.59499,-5.68587 c 1.67531,-16.00989 10.87164,-38.52414 21.36423,-52.30345 22.45687,-29.49131 51.98285,-47.04069 83.81229,-49.81561 15.64295,-1.36377 122.18584,-1.38516 135.41889,-0.0272 39.30828,4.03379 75.27821,29.51536 93.82706,66.46833 5.49448,10.94608 13.64782,37.43162 12.02313,39.0563 -0.39188,0.39188 -330.70945,3.59292 -335.76908,3.25386 -1.375,-0.0921 -4.47359,-0.34277 -6.88575,-0.55695 l 0,0 z"
       id="path3254"
       inkscape:connector-curvature="0" />
    <path
       style="fill:#ececec;fill-opacity:1"
       d="m 230.37393,430.81213 -3.88531,-0.40033 0.59454,-5.68157 c 1.67486,-16.00559 10.8724,-38.52143 21.36378,-52.29915 22.53199,-29.58995 51.88316,-47.00811 83.9537,-49.82149 15.49583,-1.35937 122.07483,-1.37616 135.27748,-0.0213 39.30828,4.03379 75.27821,29.51536 93.82706,66.46833 5.46555,10.88844 13.6915,37.38793 12.09997,38.97946 -0.44737,0.44737 -325.20466,3.68504 -334.84592,3.33825 -2.475,-0.089 -6.24839,-0.34201 -8.3853,-0.56219 z"
       id="path3256"
       inkscape:connector-curvature="0" />
    <path
       style="fill:#ececec;fill-opacity:1"
       d="m 229.87445,430.81521 -3.38479,-0.41337 0.64301,-6.15194 c 1.63544,-15.64711 10.87447,-38.10884 21.31427,-51.81882 22.58527,-29.65993 51.80731,-47.00145 83.9537,-49.82149 15.49583,-1.35937 122.07483,-1.37616 135.27748,-0.0213 33.06712,3.39333 66.07906,23.36407 85.07792,51.46833 8.62617,12.76035 13.98182,25.06651 19.42995,44.64596 2.98427,10.72486 9.07315,9.51668 -51.67676,10.25398 -76.61696,0.92989 -270.90811,2.61819 -279.75,2.4309 -4.125,-0.0874 -9.02315,-0.34488 -10.88478,-0.57224 l 0,0 z"
       id="path3258"
       inkscape:connector-curvature="0" />
    <path
       style="fill:#ececec;fill-opacity:1"
       d="m 229.37206,430.81917 -2.88716,-0.42983 0.57691,-6.17796 c 1.39178,-14.90426 10.97586,-38.11041 21.38513,-51.7803 22.6038,-29.68426 51.79651,-47.03673 83.81229,-49.81896 15.66406,-1.36124 122.20352,-1.37999 135.41889,-0.0238 13.43672,1.37887 25.20425,4.86727 38.58111,11.43709 24.98779,12.27234 43.91104,31.46545 56.04004,56.83923 4.42495,9.25696 11.45996,30.81828 11.45996,35.12317 l 0,2.32295 -51.25,0.64415 c -71.64879,0.90055 -269.94923,2.6249 -281.05441,2.44396 -5.05758,-0.0824 -10.49481,-0.34326 -12.08276,-0.57966 l 0,0 z"
       id="path3260"
       inkscape:connector-curvature="0" />
    <path
       style="fill:#ececec;fill-opacity:1"
       d="m 228.87279,430.82505 c -2.28671,-0.43239 -2.36236,-0.7091 -1.81026,-6.62145 1.39106,-14.89656 10.97752,-38.10575 21.38441,-51.77252 22.6038,-29.68426 51.79651,-47.03673 83.81229,-49.81896 15.66406,-1.36124 122.20352,-1.37999 135.41889,-0.0238 13.43672,1.37887 25.20425,4.86727 38.58111,11.43709 24.98779,12.27234 43.91104,31.46545 56.04004,56.83923 4.42506,9.2572 11.45996,30.81832 11.45996,35.12341 l 0,2.32319 -49.25,0.6403 c -66.28129,0.86173 -269.62665,2.63178 -282.75,2.46124 -5.775,-0.075 -11.5739,-0.33951 -12.88644,-0.58769 z"
       id="path3262"
       inkscape:connector-curvature="0" />
    <path
       style="fill:#ececec;fill-opacity:1"
       d="m 229.00923,430.84293 c -1.85084,-0.35649 -2.24738,-1.0863 -2.23522,-4.11382 0.0539,-13.42912 10.4939,-39.56629 21.68826,-54.29803 19.80612,-26.06479 46.15492,-43.42992 74.38661,-49.02437 7.84824,-1.55522 129.0932,-2.34048 143.54165,-0.92966 40.43605,3.94837 76.27791,29.03795 95.1126,66.57956 4.36452,8.69943 10.96143,28.06305 11.90433,34.94226 l 0.5906,4.30893 -48.36941,0.64638 c -64.88323,0.86705 -267.23692,2.62899 -282.32868,2.4583 -6.62241,-0.0749 -13.05324,-0.3312 -14.29074,-0.56955 z"
       id="path3264"
       inkscape:connector-curvature="0" />
    <path
       style="fill:#ececec;fill-opacity:1"
       d="m 228.50923,430.85933 c -2.3489,-0.61383 -2.28435,-5.55242 0.20664,-15.81067 3.89941,-16.05832 10.66801,-30.66536 19.74813,-42.61758 19.42076,-25.5637 43.47526,-41.73791 72.29523,-48.6112 5.40333,-1.28864 17.28169,-1.62598 70.40345,-1.99939 42.37948,-0.29791 67.70209,-0.0783 75.18142,0.65203 40.485,3.95315 76.31503,29.02391 95.15903,66.58409 4.3646,8.69959 10.96143,28.06309 11.90437,34.94256 l 0.59065,4.30923 -45.36946,0.639 c -57.24701,0.80628 -268.0266,2.64284 -285.36946,2.48647 -7.15,-0.0645 -13.7875,-0.32301 -14.75,-0.57454 z"
       id="path3266"
       inkscape:connector-curvature="0" />
    <path
       style="fill:#ececec;fill-opacity:1"
       d="m 228.00923,430.88638 c -3.47137,-1.40073 0.28352,-18.75259 7.97156,-36.83772 12.60827,-29.65931 41.83804,-56.38121 73.27844,-66.99126 13.98254,-4.71863 14.70016,-4.76451 81.90345,-5.23691 42.37948,-0.29791 67.70209,-0.0783 75.18142,0.65203 40.485,3.95315 76.31503,29.02391 95.15903,66.58409 4.36463,8.69964 10.96144,28.06311 11.90439,34.94267 l 0.59066,4.30934 -44.36948,0.63883 c -53.04005,0.76366 -265.28785,2.63725 -285.86947,2.52347 -7.975,-0.0441 -15.0625,-0.30713 -15.75,-0.58454 z"
       id="path3268"
       inkscape:connector-curvature="0" />
    <path
       style="fill:#ececec;fill-opacity:1"
       d="m 228.00923,430.88638 c -1.84683,-0.74521 -1.52979,-7.40868 0.78361,-16.46935 5.98903,-23.45671 16.96716,-41.99307 35.28623,-59.58011 20.12013,-19.31613 43.20848,-30.22188 68.2948,-32.25895 16.59568,-1.34761 122.15004,-1.33957 135.30425,0.0103 39.40999,4.04423 75.24222,29.4288 93.82501,66.46833 4.36472,8.69984 10.96144,28.06315 11.90443,34.94302 l 0.59071,4.3097 -41.36952,0.63101 c -48.53988,0.74039 -266.55304,2.6564 -288.36952,2.53434 -8.25,-0.0461 -15.5625,-0.31089 -16.25,-0.5883 l 0,0 z"
       id="path3270"
       inkscape:connector-curvature="0" />
    <path
       style="fill:#ececec;fill-opacity:1"
       d="m 227.85565,430.62942 c -1.07476,-0.68045 -1.26291,-2.3753 -0.80316,-7.23469 1.405,-14.85012 10.66485,-36.87754 21.46149,-51.0528 22.78287,-29.91237 51.87089,-47.16638 83.90124,-49.76732 16.56445,-1.34507 122.12625,-1.33441 135.2629,0.0137 39.17256,4.01986 75.11914,29.3547 93.58852,65.96038 4.47908,8.87739 11.20894,28.38101 12.09322,35.04703 l 0.62539,4.71442 -39.36301,0.62747 c -40.74698,0.64953 -262.51988,2.64042 -289.86301,2.60215 -8.525,-0.0119 -16.13161,-0.42157 -16.90358,-0.91031 z"
       id="path3272"
       inkscape:connector-curvature="0" />
    <path
       style="fill:#ececec;fill-opacity:1"
       d="m 227.86418,430.63469 c -2.04035,-1.29196 -0.91364,-11.67514 2.39662,-22.08603 6.76766,-21.28453 17.44556,-38.12239 34.37575,-54.20673 20.25625,-19.24423 42.61596,-29.72405 67.77867,-31.76732 16.56445,-1.34507 122.12625,-1.33441 135.2629,0.0137 39.17178,4.01978 75.06634,29.31566 93.59704,65.96038 4.53894,8.97582 11.17256,28.17098 12.06779,34.91957 l 0.64234,4.84218 -38.36303,0.62869 c -40.62597,0.66578 -259.2268,2.63246 -288.86303,2.59881 -9.625,-0.0109 -18.12777,-0.41738 -18.89505,-0.90322 z"
       id="path3274"
       inkscape:connector-curvature="0" />
    <path
       style="fill:#ececec;fill-opacity:1"
       d="m 227.86418,430.63469 c -1.05509,-0.66809 -1.26235,-2.43108 -0.85055,-7.23469 1.16549,-13.59503 10.48305,-36.42102 20.14521,-49.35134 23.19847,-31.04521 52.64921,-48.82627 85.25638,-51.47405 16.56445,-1.34507 122.12625,-1.33441 135.2629,0.0137 39.411,4.04433 75.2836,29.45945 93.81785,66.46833 4.75879,9.50229 11.19384,28.12409 11.96449,34.623 l 0.54915,4.63094 -36.37519,0.62463 c -38.67173,0.66407 -258.7504,2.64166 -289.87519,2.60478 -10.175,-0.0121 -19.12777,-0.41943 -19.89505,-0.90527 z"
       id="path3276"
       inkscape:connector-curvature="0" />
    <path
       style="fill:#ececec;fill-opacity:1"
       d="m 227.86418,430.63469 c -1.05509,-0.66809 -1.26235,-2.43108 -0.85055,-7.23469 1.16549,-13.59503 10.48305,-36.42102 20.14521,-49.35134 23.19847,-31.04521 52.64921,-48.82627 85.25638,-51.47405 16.56445,-1.34507 122.12625,-1.33441 135.2629,0.0137 39.44444,4.04776 75.18964,29.38712 93.87222,66.54492 4.76475,9.47661 11.12672,27.92605 11.90979,34.53787 l 0.54956,4.64016 -34.37523,0.62212 c -35.78598,0.64764 -259.57391,2.6467 -291.87523,2.60727 -10.175,-0.0124 -19.12777,-0.42009 -19.89505,-0.90593 z"
       id="path3278"
       inkscape:connector-curvature="0" />
    <path
       style="fill:#ececec;fill-opacity:1"
       d="m 227.86418,430.63469 c -1.05509,-0.66809 -1.26235,-2.43108 -0.85055,-7.23469 1.16549,-13.59503 10.48305,-36.42102 20.14521,-49.35134 23.19847,-31.04521 52.64921,-48.82627 85.25638,-51.47405 16.56445,-1.34507 122.12625,-1.33441 135.2629,0.0137 39.44444,4.04776 75.18964,29.38712 93.87222,66.54492 4.7648,9.47672 11.12672,27.92608 11.90982,34.53805 l 0.54958,4.64036 -33.37526,0.61878 c -35.35539,0.6555 -258.85702,2.65657 -291.87525,2.61324 -10.725,-0.0141 -20.12777,-0.4231 -20.89505,-0.90894 z"
       id="path3280"
       inkscape:connector-curvature="0" />
    <path
       style="fill:#f2f2f2;fill-opacity:1"
       d="m 227.85611,430.6297 c -2.1648,-1.37057 -0.7528,-12.96195 2.87251,-23.58104 6.96807,-20.41054 14.67566,-32.97351 29.96941,-48.84862 20.44104,-21.21807 45.09198,-33.4634 71.71719,-35.62543 16.56445,-1.34507 122.12625,-1.33441 135.2629,0.0137 39.40902,4.04413 75.20159,29.39871 93.83203,66.46833 4.91701,9.78354 11.12893,27.68194 11.91709,34.33669 l 0.58259,4.91912 -31.3753,0.61464 c -33.33424,0.65301 -258.33272,2.66456 -292.8753,2.61838 -11.275,-0.0151 -21.1314,-0.42716 -21.90312,-0.91574 z"
       id="path3282"
       inkscape:connector-curvature="0" />
    <path
       style="fill:#ececec;fill-opacity:1"
       d="m 326.75923,828.087 c -27.14999,-5.16857 -47.23558,-15.70863 -66.13531,-34.70499 -18.22651,-18.31971 -29.87366,-41.56389 -34.03727,-67.92805 -1.05726,-6.69466 -1.32742,-37.13547 -1.32742,-149.57194 0,-77.64164 0.29974,-141.46639 0.6661,-141.83276 0.78766,-0.78769 345.53574,-3.82899 347.52462,-3.06579 1.1407,0.43773 1.30923,24.22862 1.04342,147.29362 -0.34917,161.66037 0.0909,150.09462 -6.44127,169.27157 -14.17353,41.60998 -51.02561,72.83967 -95.00292,80.50867 -11.35886,1.98082 -135.90806,2.00608 -146.28995,0.0297 l 0,-3e-5 z m 228.75775,-295.78834 0.25774,-60.75 -148.50774,0 -148.50775,0 0,61.00329 0,61.00329 148.25,-0.25329 148.25,-0.25329 0.25775,-60.75 z"
       id="path3284"
       inkscape:connector-curvature="0" />
    <path
       style="fill:#f9f9f9;fill-opacity:1"
       d="m 357.25923,828.47352 c -30.32763,-0.60703 -32.47035,-0.77475 -41,-3.20923 -25.61745,-7.31157 -45.65531,-20.14078 -61.84628,-39.59698 -10.76854,-12.94023 -21.08244,-32.01225 -23.29534,-43.07674 -0.33461,-1.67305 -1.02869,-3.04191 -1.5424,-3.04191 -0.51371,0 -0.71745,-0.3504 -0.45277,-0.77867 0.26469,-0.42827 -0.2301,-3.69077 -1.09953,-7.25 -1.39168,-5.69719 -1.63043,-23.09928 -1.99582,-145.47133 -0.22827,-76.45 -0.1211,-141.8125 0.23815,-145.25 l 0.65318,-6.25 11.75374,0 c 6.46455,0 11.94124,-0.17919 12.1704,-0.39821 0.22917,-0.21902 28.09167,-0.65131 61.91667,-0.96064 33.825,-0.30934 83.775,-0.80859 111,-1.10945 63.50975,-0.70184 147.94528,-0.68355 149.10354,0.0323 1.19081,0.73597 1.13271,269.61412 -0.0623,288.12206 -0.78544,12.16491 -1.43096,15.72676 -4.53084,25 -6.49238,19.42185 -14.50499,32.31868 -29.48196,47.45315 -19.47542,19.68023 -43.76064,32.14477 -67.7572,34.77681 -11.53734,1.26547 -73.50007,1.81491 -113.77128,1.00885 l 4e-5,0 z m 198.5,-295.92486 0,-61 -148.5,0 -148.5,0 0,61 0,61 148.5,0 148.5,0 0,-61 z"
       id="path3286"
       inkscape:connector-curvature="0" />
    <path
       style="fill:#ffd5d5;fill-opacity:1"
       d="m 260.89582,532.54866 0,-59 146,0 146,0 0,59 0,59 -146,0 -146,0 0,-59 z m 48.03811,20.75 4.46189,-2.25 0.28383,-10.75 0.28383,-10.75 -6.53383,0 -6.53383,0 0,3 c 0,2.83334 0.22222,3 4,3 l 4,0 0,5.95986 0,5.95986 -3.96679,1.18848 c -5.63666,1.68878 -10.68198,-0.34574 -13.28207,-5.356 -4.6733,-9.00523 -2.72153,-24.91691 3.53799,-28.84321 4.14676,-2.60107 9.57936,-2.00941 14.24831,1.55177 l 3.46256,2.64103 0,-4.02784 c 0,-5.15026 -3.01102,-7.31877 -10.87212,-7.82998 -7.88058,-0.51248 -11.76052,1.78684 -15.60515,9.24791 -2.68019,5.20129 -2.97226,6.68738 -2.92697,14.89298 0.0349,6.32883 0.57751,10.33369 1.775,13.1015 4.55524,10.5287 13.90301,14.18751 23.66735,9.26364 z m 82.78638,-0.4597 c 1.88593,-1.402 2.7671,-3.06634 2.98588,-5.63964 0.3491,-4.10637 -0.64347,-4.59755 -3.31818,-1.64202 -2.85206,3.15148 -8.62283,4.51435 -12.10902,2.85975 -4.39606,-2.08642 -7.38435,-8.90354 -7.37759,-16.83028 0.008,-8.83938 1.44393,-13.39712 5.22482,-16.57852 4.05522,-3.41225 9.58861,-2.96523 13.85163,1.11901 2.3918,2.29148 2.95831,2.47984 3.4675,1.15291 2.1829,-5.68852 -2.94532,-10.23151 -11.54953,-10.23151 -7.21496,0 -10.50145,2.11061 -13.92346,8.94176 -4.64714,9.27678 -3.68489,26.70126 1.86412,33.75567 4.64183,5.90114 15.03561,7.44044 20.88383,3.09287 l 0,0 z m -47.82449,-1.2903 0,-3 -8.5,0 -8.5,0 0,-20.5 0,-20.5 -2.5,0 -2.5,0 0,23.5 0,23.5 11,0 11,0 0,-3 z m 11,-8.51537 0,-11.51538 6.00771,-11.98462 6.00771,-11.98463 -3.015,0 c -2.78623,0 -3.33487,0.64496 -7.23057,8.5 -2.31856,4.675 -4.46499,8.5 -4.76985,8.5 -0.30486,0 -2.45129,-3.825 -4.76985,-8.5 -3.89213,-7.84783 -4.44631,-8.5 -7.22286,-8.5 -1.65401,0 -3.00729,0.23192 -3.00729,0.51538 0,0.28346 2.7,5.90154 6,12.48462 l 6,11.96925 0,11.01538 0,11.01537 3,0 3,0 0,-11.51537 z m 69,8.51537 0,-3 -9,0 -9,0 0,-8 0,-8 8.5,0 8.5,0 0,-3 0,-3 -8.5,0 -8.5,0 0,-6.5 0,-6.5 8.5,0 8.5,0 0,-3 0,-3 -11,0 -11,0 0,23.5 0,23.5 11.5,0 11.5,0 0,-3 z m 12,-7.13084 0,-10.13084 3.58923,0.58245 c 5.10074,0.82774 5.99413,1.88189 9.56749,11.2891 2.95949,7.79113 3.38894,8.39013 6.01515,8.39013 1.55547,0 2.82813,-0.34776 2.82813,-0.77281 0,-1.453 -6.12011,-16.72269 -7.63998,-19.06175 -1.36828,-2.10577 -1.35341,-2.51526 0.15174,-4.17843 4.36305,-4.82112 3.78708,-16.59617 -1.01434,-20.73701 -2.23277,-1.92558 -3.7544,-2.25 -10.55318,-2.25 l -7.94424,0 0,23.5 0,23.5 2.5,0 2.5,0 0,-10.13084 z m 33,-13.36916 0,-23.5 -3,0 -3,0 0,23.5 0,23.5 3,0 3,0 0,-23.5 z m 14.22639,6.42848 0.27361,-17.07152 6.60684,16.82152 6.60684,16.82152 3.64316,0.31037 3.64316,0.31036 0,-23.56036 0,-23.56037 -2.5,0 -2.5,0 -0.066,18.25 -0.066,18.25 -7.18398,-18.23324 -7.18402,-18.23325 -3.75,-0.0168 -3.75,-0.0168 0,23.5 0,23.5 2.97639,0 2.97638,0 0.27362,-17.07152 z m 51.77361,14.07152 0,-3 -8.5,0 -8.5,0 0,-8 0,-8 8,0 8,0 0,-3 0,-3 -8,0 -8,0 0,-6.5 0,-6.5 8.5,0 8.5,0 0,-3 0,-3 -11.5,0 -11.5,0 0,23.5 0,23.5 11.5,0 11.5,0 0,-3 z"
       id="path3288"
       inkscape:connector-curvature="0" />
    <path
       style="fill:#f9f9f9;fill-opacity:1"
       d="m 355.72824,828.15704 c -0.22917,-0.2154 -8.06667,-0.5529 -17.41667,-0.75 -9.35,-0.19711 -17.225,-0.58672 -17.5,-0.86581 -0.275,-0.27909 -4.36952,-1.74736 -9.09894,-3.26283 -10.4581,-3.35114 -24.76719,-10.21041 -33.17188,-15.90142 -9.08468,-6.15144 -24.54798,-22.03859 -31.00933,-31.85929 -6.68615,-10.16237 -12.89901,-22.46586 -15.11839,-29.93932 -0.8846,-2.97877 -2.02867,-5.67571 -2.54239,-5.9932 -2.40009,-1.48334 -3.05907,-37.80702 -3.05907,-168.61857 l 0,-136.1162 48.25,-0.70821 c 86.33051,-1.26716 262.43031,-2.43217 280.31021,-1.85443 l 17.43979,0.56352 0.1168,62.59869 c 0.24414,130.84778 -0.25302,222.78589 -1.25239,231.59869 -3.2302,28.48526 -21.23303,57.98068 -47.17564,77.2915 -10.8183,8.05279 -15.59159,10.87177 -25.57546,15.10426 -13.22909,5.60824 -21.8295,7.25722 -42.61331,8.17039 -19.09472,0.83895 -99.80472,1.27404 -100.58333,0.54223 z m 199.79548,-295.60838 0.0902,-61 -148.40117,0 -148.40117,0 0,61 0,61 148.31098,0 148.31098,0 0.0902,-61 -10e-6,0 z"
       id="path3290"
       inkscape:connector-curvature="0" />
    <path
       style="fill:#f9f9f9;fill-opacity:1"
       d="m 352.72824,828.15302 c -0.22917,-0.2176 -7.39167,-0.53526 -15.91667,-0.7059 -8.525,-0.17065 -15.95,-0.59484 -16.5,-0.94265 -0.55,-0.34781 -5.24625,-2.09223 -10.4361,-3.8765 -19.97203,-6.86637 -32.98086,-14.88114 -47.10926,-29.02411 -13.57788,-13.59188 -24.44077,-30.52886 -30.06513,-46.87634 -1.03341,-3.00364 -2.32269,-5.99588 -2.86508,-6.64943 -2.37777,-2.86503 -3.01749,-38.71252 -3.02089,-169.27943 l -0.004,-136.25 25.25,-0.1419 c 13.8875,-0.0781 23.45,-0.41555 21.25,-0.75 -2.2,-0.33445 16.7,-0.6081 42,-0.6081 25.3,0 93.32495,-0.225 151.16656,-0.5 57.84161,-0.275 105.44907,-0.21753 105.79437,0.1277 1.1765,1.1763 0.68916,283.95757 -0.50672,294.02474 -1.90684,16.0523 -9.56545,35.48896 -19.46402,49.39746 -10.40096,14.61441 -27.91261,30.13693 -43.99019,38.99341 -3.85,2.12081 -7.14157,4.19089 -7.31461,4.60018 -0.17303,0.40928 -0.90251,0.51856 -1.62106,0.24282 -0.71855,-0.27573 -1.92697,0.0871 -2.68539,0.80618 -0.75842,0.71913 -2.05394,1.36748 -2.87894,1.44078 -0.825,0.0733 -5.1,1.11587 -9.5,2.31682 -6.07267,1.6575 -12.69786,2.39705 -27.5,3.06976 -19.28918,0.87663 -103.27895,1.3483 -104.08333,0.58451 l 0,0 z m 202.69283,-295.60455 0.10951,-60.99981 -148.35951,0 -148.3595,0 0,61 0,61 148.25,-1.9e-4 148.25,-1.8e-4 0.1095,-60.99982 z"
       id="path3292"
       inkscape:connector-curvature="0" />
    <path
       style="fill:#f9f9f9;fill-opacity:1"
       d="m 350.81157,828.27867 c -0.275,-0.28418 -7.025,-0.66757 -15,-0.85197 -8.7753,-0.20291 -15.8005,-0.84979 -17.79402,-1.63847 -1.81171,-0.71676 -3.72421,-1.03732 -4.25,-0.71237 -0.52579,0.32496 -0.95598,0.0661 -0.95598,-0.57517 0,-0.6413 -0.675,-0.90699 -1.5,-0.5904 -0.825,0.31658 -1.5,0.20086 -1.5,-0.25716 0,-0.45801 -2.1375,-1.63539 -4.75,-2.61639 -7.29166,-2.73804 -20.13564,-9.34084 -26.27494,-13.50735 -18.2586,-12.39145 -35.74224,-34.66445 -44.43858,-56.61183 -1.93279,-4.8779 -3.96461,-9.64295 -4.51514,-10.58902 -2.39261,-4.11159 -3.0144,-39.04212 -3.0178,-169.52988 l -0.004,-136.25 21.5,0 c 11.825,0 21.49999,-0.3375 21.49999,-0.75 -10e-6,-0.4125 17.88749,-0.75 39.75,-0.75 21.86251,0 89.77499,-0.225 150.91662,-0.5 61.14164,-0.275 111.4491,-0.21753 111.79437,0.1277 1.19098,1.19088 0.68779,283.97897 -0.52318,294.02474 -1.99476,16.54783 -9.32001,35.22095 -19.30707,49.21657 -10.5103,14.72886 -28.17828,30.47428 -43.87725,39.1027 -3.71058,2.0394 -6.98749,4.09791 -7.28202,4.57447 -0.29453,0.47656 -1.13808,0.63525 -1.87455,0.35264 -0.73647,-0.28261 -1.95955,0.0745 -2.71797,0.79367 -0.75842,0.71913 -1.82894,1.3214 -2.37894,1.33838 -2.72803,0.0842 -7.5,1.74333 -7.5,2.6076 0,0.53876 -0.36907,0.75146 -0.82017,0.47267 -0.45109,-0.27879 -4.38859,0.15998 -8.75,0.97504 -6.16548,1.15221 -21.05702,1.61305 -66.92983,2.07123 -32.45,0.32411 -59.225,0.35679 -59.5,0.0726 l 0,0 z m 204.50158,-295.73051 0.002,-60.9995 -148.25159,0 -148.25158,0 0,61 0,61 148.25,-5e-4 148.25,-4.9e-4 0.002,-60.99951 -4.2e-4,0 z"
       id="path3294"
       inkscape:connector-curvature="0" />
    <path
       style="fill:#f9f9f9;fill-opacity:1"
       d="m 346.81157,828.27508 c -0.275,-0.28609 -6.125,-0.66563 -13,-0.84342 -7.19313,-0.18601 -13.89848,-0.88013 -15.79402,-1.63494 -1.81171,-0.72143 -3.72421,-1.04581 -4.25,-0.72086 -0.52579,0.32496 -0.95598,0.0661 -0.95598,-0.57517 0,-0.6413 -0.675,-0.90699 -1.5,-0.5904 -0.825,0.31658 -1.5,0.13972 -1.5,-0.39301 0,-0.53274 -0.48396,-0.96862 -1.07546,-0.96862 -2.16774,0 -23.79143,-10.83508 -29.89326,-14.97875 -13.17745,-8.94864 -27.35568,-24.55544 -36.68034,-40.37617 -1.99203,-3.3798 -5.82646,-11.32008 -8.52094,-17.64508 -4.84714,-11.37808 -4.90903,-11.65902 -5.83844,-26.5 -0.51666,-8.25 -0.95111,-76.51224 -0.96547,-151.69387 l -0.0261,-136.69387 21.25,-0.59095 c 42.94822,-1.19438 323.21773,-2.38691 324.22508,-1.37956 1.1863,1.1863 0.66416,284.04701 -0.54272,294.01069 -2.7608,22.79245 -13.01106,43.88542 -30.41153,62.5808 -7.75767,8.33498 -21.87632,19.61324 -31.02083,24.78006 -2.75,1.5538 -5.7323,3.44375 -6.62734,4.19988 -0.89503,0.75612 -2.91044,1.60745 -4.4787,1.89183 -1.56825,0.28437 -3.08595,0.89661 -3.37266,1.36053 -0.28672,0.46391 -0.7463,0.84495 -1.0213,0.84676 -2.5891,0.017 -8,1.61184 -8,2.35801 0,0.52125 -0.3375,0.74204 -0.75,0.49066 -0.4125,-0.25139 -4.125,0.1796 -8.25,0.95776 -5.69376,1.07409 -22.31121,1.5609 -69,2.02134 -33.825,0.33358 -61.725,0.37244 -62,0.0864 l 0,-5e-5 z m 208,-295.72642 0,-61 -148,0 -148,0 0,61 0,61 148,0 148,0 0,-61 z"
       id="path3296"
       inkscape:connector-curvature="0" />
    <path
       style="fill:#f9f9f9;fill-opacity:1"
       d="m 343.81157,828.28214 c -0.275,-0.2777 -5.9,-0.77239 -12.5,-1.0993 -13.47834,-0.66761 -18.5,-1.42534 -18.5,-2.79152 0,-0.51168 -0.5625,-0.80632 -1.25,-0.65475 -2.66383,0.5873 -30.45434,-14.05731 -37.81164,-19.92539 -18.7442,-14.95008 -32.12681,-33.73945 -42.38907,-59.51481 -2.24404,-5.63626 -2.83766,-9.18979 -3.5916,-21.5 -0.49678,-8.11124 -0.91549,-76.26321 -0.93046,-151.44881 l -0.0272,-136.7011 15.75,-0.45926 c 48.07463,-1.40183 328.54393,-2.67794 329.72167,-1.5002 1.1663,1.1663 0.67175,284.00107 -0.51409,294.0141 -4.13158,34.88622 -25.94675,65.62098 -62.60967,88.20897 -5.03366,3.10122 -9.78116,5.63859 -10.55,5.63859 -0.76885,0 -1.82541,0.42503 -2.34791,0.94452 -0.5225,0.51948 -2.43532,1.20492 -4.25071,1.5232 -1.81539,0.31827 -4.06539,0.9847 -5,1.48096 -4.61189,2.44883 -21.84628,3.25117 -80.69929,3.75692 -34.1,0.29304 -62.225,0.30559 -62.5,0.0279 l 0,-2e-5 z m 211,-295.73348 0,-61 -148,0 -148,0 0,61 0,61 148,0 148,0 0,-61 z"
       id="path3298"
       inkscape:connector-curvature="0" />
  </g>
</svg>
