<?xml version="1.0" encoding="UTF-8" standalone="no"?>
<!-- Created with Inkscape (http://www.inkscape.org/) -->

<svg
   xmlns:dc="http://purl.org/dc/elements/1.1/"
   xmlns:cc="http://creativecommons.org/ns#"
   xmlns:rdf="http://www.w3.org/1999/02/22-rdf-syntax-ns#"
   xmlns:svg="http://www.w3.org/2000/svg"
   xmlns="http://www.w3.org/2000/svg"
   xmlns:sodipodi="http://sodipodi.sourceforge.net/DTD/sodipodi-0.dtd"
   xmlns:inkscape="http://www.inkscape.org/namespaces/inkscape"
   width="744.09448819"
   height="1052.3622047"
   id="svg3089"
   version="1.1"
   inkscape:version="0.48.4 r9939"
   sodipodi:docname="BOTTLE METHYLENE BLUE.svg">
  <defs
     id="defs3091" />
  <sodipodi:namedview
     id="base"
     pagecolor="#ffffff"
     bordercolor="#666666"
     borderopacity="1.0"
     inkscape:pageopacity="0.0"
     inkscape:pageshadow="2"
     inkscape:zoom="0.5"
     inkscape:cx="414.75273"
     inkscape:cy="486.58924"
     inkscape:document-units="px"
     inkscape:current-layer="layer1"
     showgrid="false"
     inkscape:window-width="1366"
     inkscape:window-height="716"
     inkscape:window-x="0"
     inkscape:window-y="0"
     inkscape:window-maximized="1" />
  <metadata
     id="metadata3094">
    <rdf:RDF>
      <cc:Work
         rdf:about="">
        <dc:format>image/svg+xml</dc:format>
        <dc:type
           rdf:resource="http://purl.org/dc/dcmitype/StillImage" />
        <dc:title></dc:title>
      </cc:Work>
    </rdf:RDF>
  </metadata>
  <g
     inkscape:label="Layer 1"
     inkscape:groupmode="layer"
     id="layer1">
    <rect
       style="fill:#ffffff;stroke:#834b4b;stroke-width:1.05389953;stroke-opacity:1"
       id="rect3119"
       width="83.788765"
       height="128.66441"
       x="357.62094"
       y="193.80009"
       rx="2.0436285"
       ry="128.66441" />
    <path
       style="fill:none;stroke:#000000;stroke-width:1.42539144px;stroke-linecap:butt;stroke-linejoin:miter;stroke-opacity:1"
       d="m 332.03293,124.15802 48.0768,122.89989"
       id="path3121"
       inkscape:connector-curvature="0" />
    <path
       style="fill:none;stroke:#000000;stroke-width:1.12803066px;stroke-linecap:butt;stroke-linejoin:miter;stroke-opacity:1"
       d="m 333.73259,124.92296 129.3607,-1.65566"
       id="path3125"
       inkscape:connector-curvature="0" />
    <path
       style="fill:none;stroke:#000000;stroke-width:1.48504686px;stroke-linecap:butt;stroke-linejoin:miter;stroke-opacity:1"
       d="M 462.91242,123.26436 424.00151,246.523"
       id="path3129"
       inkscape:connector-curvature="0" />
    <path
       style="fill:none;stroke:#000000;stroke-width:0.90472049px;stroke-linecap:butt;stroke-linejoin:miter;stroke-opacity:1"
       d="m 380.52733,247.0657 45.04707,-0.85289"
       id="path3141"
       inkscape:connector-curvature="0" />
    <path
       style="fill:none;stroke:#000000;stroke-width:1px;stroke-linecap:butt;stroke-linejoin:miter;stroke-opacity:1"
       d="m 440,196.6479 52.14286,-5"
       id="path3929"
       inkscape:connector-curvature="0" />
    <path
       style="fill:none;stroke:#000000;stroke-width:1px;stroke-linecap:butt;stroke-linejoin:miter;stroke-opacity:1"
       d="m 447.14286,173.07647 45,17.85714"
       id="path3931"
       inkscape:connector-curvature="0" />
    <rect
       style="fill:#ffffff;stroke:#834b4b;stroke-width:1.06921148;stroke-opacity:1"
       id="rect3937"
       width="294.21655"
       height="119.93044"
       x="256.03461"
       y="539.39679"
       rx="0"
       ry="46.55191" />
    <text
       xml:space="preserve"
       style="font-size:54.65183640000000054px;font-style:normal;font-weight:normal;line-height:125%;letter-spacing:0px;word-spacing:0px;fill:#280b0b;fill-opacity:1;stroke:none;font-family:Sans"
       x="306.63452"
       y="512.12396"
       id="text4001"
       sodipodi:linespacing="125%"
       transform="scale(0.86095988,1.1614943)"><tspan
         sodipodi:role="line"
         x="306.63452"
         y="512.12396"
         id="tspan4007"> GLYCERINE</tspan></text>
    <path
       style="fill:#000080;stroke:#834b4b;stroke-width:0.71116345999999997;stroke-opacity:1"
       d="m 327.45869,821.29452 c -43.89563,-7.64849 -80.28964,-39.21648 -94.69608,-82.13896 -3.48274,-10.37644 -5.29398,-19.97024 -6.16171,-32.6374 -0.79516,-11.60767 0.40782,-286.57054 0.11966,-285.45712 -12.14543,46.92848 331.40494,53.97561 347.39964,-2.89652 0.0999,-0.35525 0.46694,66.37749 0.46694,146.92492 0,120.44089 -0.17128,147.53269 -0.96446,152.54696 -7.76214,49.07087 -41.25728,87.52369 -87.87487,100.8814 -13.38722,3.83595 -13.13455,3.82487 -85.66649,3.75914 -51.38788,-0.0466 -68.58693,-0.27923 -72.62263,-0.98242 z"
       id="path4063"
       inkscape:connector-curvature="0"
       sodipodi:nodetypes="ssssssssss" />
    <path
       style="fill:#0000ff;stroke:#834b4b;stroke-width:0.70710677000000000;stroke-opacity:1"
       d="m 570.73444,422.62549 c -6.71926,-9.73651 -25.02613,-20.0049 -47.72971,-26.77179 -31.158,-9.28675 -67.49547,-13.99179 -113.84419,-14.74073 -40.62494,-0.65646 -74.95722,1.92599 -106.41957,8.00479 -38.75429,7.48768 -63.23482,18.43958 -74.09458,33.14783 l -2.08836,2.82843 0.49882,-3.53554 c 1.76303,-12.49613 8.66054,-30.73787 16.17582,-42.77996 19.59705,-31.4013 50.85071,-51.6996 87.66039,-56.93277 11.00798,-1.56499 127.11436,-1.52295 138.52403,0.0501 50.45875,6.95699 90.87751,43.96846 102.35229,93.72405 0.86118,3.73416 1.45792,7.52965 1.32608,8.43441 -0.21827,1.49798 -0.4293,1.37027 -2.36102,-1.42887 l 0,0 z"
       id="path4073"
       inkscape:connector-curvature="0" />
    <path
       style="fill:#ffffff;stroke:#834b4b;stroke-width:0.70710677000000000;stroke-opacity:1"
       d="m 567.19891,417.99612 c -18.8008,-19.00576 -65.69504,-32.40036 -127.27922,-36.35527 -70.72302,-4.54181 -140.05781,2.7407 -180.88457,18.99901 -11.4731,4.5689 -20.55632,10.22677 -26.97875,16.80485 -2.32031,2.37655 -3.91516,3.55865 -3.91516,2.90189 0,-2.61281 3.85542,-15.64515 6.70374,-22.6604 6.61786,-16.29941 14.35158,-27.94324 26.88325,-40.47522 10.23777,-10.23803 18.86114,-16.50902 31.11328,-22.62587 10.41911,-5.20172 20.33181,-8.60637 32.17336,-11.05036 l 8.13172,-1.67832 66.46804,0.0139 c 60.76919,0.0127 67.04398,0.12203 73.18555,1.27541 26.42669,4.96293 47.0558,15.68698 65.4698,34.0345 16.53058,16.47087 27.36862,36.04568 32.84697,59.32556 0.81036,3.44354 1.37401,6.31343 1.25256,6.37753 -0.12145,0.0641 -2.44821,-2.13513 -5.17057,-4.88718 l 0,0 z"
       id="path4077"
       inkscape:connector-curvature="0" />
    <path
       style="fill:#0000ff;stroke:#834b4b;stroke-width:0.25;stroke-opacity:1"
       d=""
       id="path4089"
       inkscape:connector-curvature="0" />
    <path
       style="fill:#0000ff;stroke:#834b4b;stroke-width:0.08838835;stroke-opacity:1"
       d=""
       id="path4099"
       inkscape:connector-curvature="0" />
    <path
       style="fill:#0000ff;stroke:#834b4b;stroke-width:0.02209709;stroke-opacity:1"
       d="m 556.42941,430.86291 c 0.007,-0.007 0.0264,-0.008 0.0424,-0.002 0.0176,0.007 0.0124,0.0123 -0.0134,0.0134 -0.0233,9.6e-4 -0.0363,-0.004 -0.029,-0.0116 z"
       id="path4115"
       inkscape:connector-curvature="0" />
    <path
       style="fill:#0000ff;stroke:#834b4b;stroke-width:0.02209709;stroke-opacity:1"
       d=""
       id="path4117"
       inkscape:connector-curvature="0" />
    <path
       style="fill:#0000ff;stroke:#834b4b;stroke-width:0.02209709;stroke-opacity:1"
       d="m 556.25217,430.79414 c 0.0334,-0.005 0.0881,-0.005 0.12153,0 0.0334,0.005 0.006,0.009 -0.0608,0.009 -0.0669,0 -0.0942,-0.004 -0.0608,-0.009 z"
       id="path4119"
       inkscape:connector-curvature="0" />
    <path
       style="fill:#0000ff;stroke:#834b4b;stroke-width:0.02209709;stroke-opacity:1"
       d="m 555.90966,430.81743 c 0.0152,-0.006 0.0401,-0.006 0.0553,0 0.0152,0.006 0.003,0.0111 -0.0276,0.0111 -0.0304,0 -0.0428,-0.005 -0.0276,-0.0111 z"
       id="path4121"
       inkscape:connector-curvature="0" />
    <path
       style="fill:#0000ff;stroke:#834b4b;stroke-width:0.02209709;stroke-opacity:1"
       d="m 555.6445,430.81743 c 0.0152,-0.006 0.04,-0.006 0.0552,0 0.0152,0.006 0.003,0.0111 -0.0276,0.0111 -0.0304,0 -0.0428,-0.005 -0.0276,-0.0111 z"
       id="path4123"
       inkscape:connector-curvature="0" />
    <path
       style="fill:#0000ff;stroke:#834b4b;stroke-width:0.02209709;stroke-opacity:1"
       d="m 555.46772,430.81743 c 0.0152,-0.006 0.0401,-0.006 0.0553,0 0.0152,0.006 0.003,0.0111 -0.0276,0.0111 -0.0304,0 -0.0428,-0.005 -0.0276,-0.0111 z"
       id="path4125"
       inkscape:connector-curvature="0" />
    <path
       style="fill:#0000ff;stroke:#834b4b;stroke-width:0.02209709;stroke-opacity:1"
       d="m 544.85053,429.4045 c 0.007,-0.007 0.0264,-0.008 0.0424,-0.002 0.0176,0.007 0.0124,0.0123 -0.0133,0.0134 -0.0233,9.6e-4 -0.0363,-0.004 -0.029,-0.0116 z"
       id="path4131"
       inkscape:connector-curvature="0" />
    <path
       style="fill:#0000ff;stroke:#834b4b;stroke-width:1;stroke-opacity:1"
       d="m 371.40089,460.29723 c -36.34153,-0.99703 -77.31187,-5.35205 -102.33755,-10.87818 -24.64328,-5.44169 -41.66245,-14.7092 -41.66245,-22.68659 0,-2.93708 11.62042,-13.91661 19.20059,-18.14163 20.48073,-11.41551 51.83365,-19.35655 95.79941,-24.26397 22.13851,-2.47108 88.51014,-2.48005 112,-0.0151 55.95858,5.87203 93.40955,17.47117 110.94387,34.36103 l 6.55613,6.31515 -5.10424,4.79435 c -17.85118,16.76743 -68.41,27.41374 -143.39576,30.19524 -14.575,0.54065 -30.1,0.8924 -34.5,0.78168 -4.4,-0.11072 -12.275,-0.3186 -17.5,-0.46194 z"
       id="path4181"
       inkscape:connector-curvature="0" />
    <path
       style="fill:#ffffff;stroke:#834b4b;stroke-width:1;stroke-opacity:1"
       d="m 566.40089,415.89782 c -21.99311,-18.55064 -65.81571,-30.79077 -124.82955,-34.86623 -22.13926,-1.52893 -70.57241,-1.29974 -90.67045,0.42905 -29.82232,2.56525 -52.46009,6.33896 -72.78106,12.13259 -20.47112,5.83644 -31.92315,11.08178 -42.21894,19.33741 -3.48553,2.79486 -5.09363,3.58228 -5.3091,2.59966 -0.44442,-2.02672 5.20345,-18.40389 8.8905,-25.77987 8.27646,-16.55709 23.62341,-34.53642 38.4186,-45.00831 13.31162,-9.42183 32.62072,-17.59342 49,-20.73675 4.27733,-0.82085 26.09787,-1.05821 76,-0.8267 l 70,0.32475 9.5,2.66958 c 35.06347,9.85315 62.18528,31.92994 78.1448,63.60881 3.80784,7.5584 10.30684,26.38303 9.69979,28.09588 -0.18952,0.53476 -1.91959,-0.35618 -3.84459,-1.97987 z"
       id="path4183"
       inkscape:connector-curvature="0" />
    <text
       xml:space="preserve"
       style="font-size:44.95901489px;font-style:normal;font-weight:normal;line-height:125%;letter-spacing:0px;word-spacing:0px;fill:#000000;fill-opacity:1;stroke:none;font-family:Sans"
       x="207.89787"
       y="644.29285"
       id="text4185"
       sodipodi:linespacing="125%"
       transform="scale(1.1688433,0.85554668)"><tspan
         sodipodi:role="line"
         id="tspan4187"
         x="207.89787"
         y="644.29285"
         style="fill:#ffffff">       1%</tspan><tspan
         sodipodi:role="line"
         x="207.89787"
         y="700.49164"
         id="tspan4189"
         style="fill:#ffffff">METHYLENE</tspan><tspan
         sodipodi:role="line"
         x="207.89787"
         y="756.69037"
         id="tspan4191"
         style="fill:#ffffff">      BLUE</tspan></text>
    <text
       xml:space="preserve"
       style="font-size:40px;font-style:normal;font-weight:normal;line-height:125%;letter-spacing:0px;word-spacing:0px;fill:#000000;fill-opacity:1;stroke:none;font-family:Sans"
       x="510"
       y="353.36218"
       id="text4197"
       sodipodi:linespacing="125%"><tspan
         sodipodi:role="line"
         id="tspan4199"
         x="510"
         y="353.36218" /></text>
    <path
       style="fill:#e6e6e6;fill-opacity:1"
       d="m 360.03764,307.87956 c -1.72867,-16.53904 -1.37576,-93.76133 0.44969,-98.40007 1.08144,-2.7481 3.54209,1.60317 9.61355,17 l 8.16008,20.69345 23.74589,0.54388 23.74588,0.54387 6,-20.01345 6,-20.01346 1.18264,21.46958 c 0.65045,11.80827 0.7355,36.99458 0.189,55.96958 l -0.99364,34.5 -38.40409,0 -38.40408,0 -1.28492,-12.29338 z"
       id="path3485"
       inkscape:connector-curvature="0" />
    <path
       style="fill:#e6e6e6;fill-opacity:1"
       d="m 381.25273,194.68194 c 10.725,-0.35962 28.275,-0.35962 39,0 10.725,0.35961 1.95,0.65384 -19.5,0.65384 -21.45,0 -30.225,-0.29423 -19.5,-0.65384 z"
       id="path3487"
       inkscape:connector-curvature="0" />
    <path
       style="fill:#e6e6e6;fill-opacity:1"
       d=""
       id="path3489"
       inkscape:connector-curvature="0" />
    <path
       style="fill:#e6e6e6;fill-opacity:1"
       d="m 359.67837,189.71538 c -0.53976,-1.39834 -6.26586,-16.04244 -12.72467,-32.54244 l -11.74327,-30 62.27115,-1.21309 c 34.24913,-0.6672 62.40872,-1.1172 62.57686,-1 0.16814,0.1172 -4.38121,15.06309 -10.10967,33.21309 l -10.41538,33 -39.43682,0.54244 c -30.45445,0.41888 -39.66034,-0.0366 -40.4182,-2 l 0,0 z"
       id="path3491"
       inkscape:connector-curvature="0" />
    <path
       style="fill:#e6e6e6;fill-opacity:1"
       d="m 358.13112,183.71507 c -1.49077,-3.59817 -4.38956,-11.04213 -6.44176,-16.54213 -2.0522,-5.5 -4.67748,-10.66122 -5.83395,-11.46937 -1.15647,-0.80816 -1.44081,-1.48316 -0.63186,-1.5 1.23628,-0.0257 -0.42957,-4.99852 -7.78906,-23.25137 -1.30953,-3.24788 117.5501,-7.21407 120.73539,-4.02878 0.34406,0.34406 -0.71466,4.42414 -2.3527,9.06684 -1.63804,4.6427 -2.85476,9.05809 -2.70383,9.81198 0.15094,0.75389 -0.4796,3.11468 -1.40118,5.24621 -0.92157,2.13153 -4.07708,11.58153 -7.01223,21 l -5.33665,17.12449 -39.26083,0.54213 -39.26084,0.54214 -2.7105,-6.54214 z"
       id="path3493"
       inkscape:connector-curvature="0" />
    <path
       style="fill:#e6e6e6;fill-opacity:1"
       d="m 358.92326,185.71533 c -7.36155,-18.97039 -10.78619,-26.87436 -12.58135,-29.03739 -1.14343,-1.37775 -1.58564,-2.505 -0.98269,-2.505 0.60295,0 -1.08685,-5.57065 -3.75511,-12.37922 -2.66826,-6.80858 -4.85138,-12.53384 -4.85138,-12.7228 0,-1.79547 119.48586,-4.07878 121.24766,-2.31698 0.33311,0.3331 -0.60058,4.61365 -2.07486,9.51233 -1.47429,4.89867 -2.90587,9.80667 -3.1813,10.90667 -0.27543,1.1 -0.83859,2.9 -1.25149,4 -0.41289,1.1 -3.25589,10.1 -6.31777,20 l -5.56707,18 -39.46097,0.54239 c -39.4105,0.5417 -39.46322,0.53658 -41.22367,-4 l 0,0 z"
       id="path3495"
       inkscape:connector-curvature="0" />
    <path
       style="fill:#e6e6e6;fill-opacity:1"
       d=""
       id="path3497"
       inkscape:connector-curvature="0" />
    <path
       style="fill:#e6e6e6;fill-opacity:1"
       d=""
       id="path3499"
       inkscape:connector-curvature="0" />
    <path
       style="fill:#e6e6e6;fill-opacity:1"
       d=""
       id="path3501"
       inkscape:connector-curvature="0" />
    <path
       style="fill:#e6e6e6;fill-opacity:1"
       d=""
       id="path3503"
       inkscape:connector-curvature="0" />
    <path
       style="fill:#e6e6e6;fill-opacity:1"
       d="m 373.32581,224.66024 c -4.63481,-11.81801 -9.0061,-23.0623 -9.71398,-24.9873 -1.19673,-3.25438 1.33563,-3.5 36.08583,-3.5 l 37.37289,0 -1.20878,5.5 c -0.66484,3.025 -3.80948,13.6 -6.98811,23.5 l -5.77933,18 -10.6708,1.30221 c -5.86894,0.71621 -15.1708,1.3855 -20.6708,1.4873 l -10,0.1851 -8.42692,-21.4873 0,-1e-5 z"
       id="path3505"
       inkscape:connector-curvature="0" />
    <path
       style="fill:#e6e6e6;fill-opacity:1"
       d="m 379.92029,239.19894 c -1.3695,-3.3143 -5.03818,-12.776 -8.15261,-21.026 -3.11444,-8.25 -6.51297,-15.5625 -7.55231,-16.25 -4.07345,-2.69452 3.12404,-3.65954 37.21952,-4.99033 l 35.28564,-1.37724 -3.09969,10.80879 c -11.27294,39.30939 -9.64722,37.55427 -35.53932,38.36816 l -15.67121,0.49261 -2.49002,-6.02599 0,0 z"
       id="path3507"
       inkscape:connector-curvature="0" />
    <path
       style="fill:#e6e6e6;fill-opacity:1"
       d="m 380.8299,241.45653 c -8.36385,-21.59219 -14.75184,-36.67636 -16.34903,-38.60553 -1.23415,-1.49067 -1.21401,-2.75974 0.0563,-3.54481 1.08825,-0.67257 17.77546,-1.79419 37.0827,-2.4925 l 35.10407,-1.26964 -3.10137,10.81444 c -11.25438,39.24395 -9.51881,37.3559 -35.50157,38.6207 -14.48369,0.70505 -15.75365,0.44632 -17.29105,-3.52266 z"
       id="path3509"
       inkscape:connector-curvature="0" />
    <path
       style="fill:#ffffff;fill-opacity:1"
       d="m 443.81242,189.90168 c 3.87866,-12.43948 4.99564,-14.13545 8.46811,-12.85763 20.23434,7.44603 30.32602,12.05779 29.03255,13.26749 -0.85819,0.80261 -9.97867,2.1027 -20.26772,2.88909 l -18.70738,1.42979 1.47444,-4.72874 z"
       id="path3511"
       inkscape:connector-curvature="0" />
    <path
       style="fill:#ffffff;fill-opacity:1"
       d="m 381.98468,244.45157 c -0.40177,-0.70325 -4.10475,-9.82863 -8.22884,-20.27863 -4.12409,-10.45 -8.33062,-20.04487 -9.34784,-21.32194 -1.14453,-1.4369 -1.09532,-2.78806 0.12912,-3.54481 1.08825,-0.67257 17.88881,-1.79829 37.33459,-2.50161 l 35.35596,-1.27875 -1.46817,4.82355 c -10.9178,35.86959 -13.19605,41.40914 -17.52771,42.61843 -6.48363,1.81008 -35.3848,2.99313 -36.24711,1.48376 z"
       id="path3513"
       inkscape:connector-curvature="0" />
    <path
       style="fill:#ffffff;fill-opacity:1"
       d="m 381.46828,240.96649 c -0.7613,-2.08645 -4.83217,-11.82012 -9.04637,-21.63038 -4.2142,-9.81025 -7.33968,-18.15933 -6.9455,-18.55351 0.64532,-0.64533 55.99123,-4.43017 66.64398,-4.55747 4.32338,-0.0517 4.29785,0.15512 -2.51808,20.39446 -3.78715,11.24566 -8.06724,21.62815 -9.51129,23.07221 -1.52966,1.52965 -9.84926,3.13534 -19.93205,3.84689 -15.78957,1.11429 -17.42782,0.88884 -18.69069,-2.5722 l 0,0 z"
       id="path3515"
       inkscape:connector-curvature="0" />
    <path
       style="fill:#ffffff;fill-opacity:1"
       d="m 356.69985,181.04959 c -2.17091,-5.06455 -3.94712,-9.47374 -3.94712,-9.79821 0,-0.32447 -1.50285,-4.07485 -3.33967,-8.33419 -2.6017,-6.033 -12.60929,-32.89858 -12.65161,-33.96354 -0.0742,-1.86766 119.42192,-4.01673 121.2579,-2.18075 0.4073,0.40729 -0.59071,5.16392 -2.21778,10.57029 -1.62708,5.40636 -2.97869,10.05475 -3.00358,10.32975 -0.0249,0.275 -0.0787,0.725 -0.11954,1 -0.0409,0.275 -3.00968,9.5 -6.59737,20.5 l -6.52309,20 -39.45551,0.54246 -39.4555,0.54245 -3.94712,-9.20826 -10e-6,0 z"
       id="path3517"
       inkscape:connector-curvature="0" />
    <path
       style="fill:#e6e6e6;fill-opacity:1"
       d="m 361.96671,317.00937 c -0.66769,-1.73997 -1.1473,-26.71497 -1.0658,-55.5 l 0.14819,-52.33643 5.88337,12.77756 c 3.23586,7.02766 6.41674,14.90266 7.06863,17.5 0.6519,2.59734 2.04081,4.72244 3.08648,4.72244 1.04567,0 1.34499,0.9 0.66515,2 -1.95706,3.16659 45.98483,2.63306 48.61912,-0.54107 1.1599,-1.39758 3.69669,-8.25202 5.63731,-15.23207 2.63922,-9.49272 3.89812,-11.75047 4.99542,-8.95893 1.83514,4.66861 2.1607,67.06276 0.44472,85.23207 l -1.27499,13.5 -36.49681,0 c -31.43534,0 -36.66517,-0.43873 -37.71079,-3.16357 z"
       id="path3519"
       inkscape:connector-curvature="0" />
    <path
       style="fill:#e6e6e6;fill-opacity:1"
       d="m 381.00704,239.96565 c -1.02809,-2.63599 -5.09175,-12.38185 -9.03035,-21.65747 -3.93861,-9.27562 -6.86244,-17.16342 -6.49741,-17.52846 0.66709,-0.66709 55.61043,-4.48861 65.64111,-4.56558 l 5.36766,-0.0412 -6.88574,20.44665 c -3.78715,11.24566 -8.06724,21.62815 -9.51129,23.07221 -1.52936,1.52936 -9.84626,3.13513 -19.92014,3.84605 -16.90369,1.19291 -17.33683,1.11218 -19.16384,-3.5722 l 0,0 z"
       id="path3521"
       inkscape:connector-curvature="0" />
    <path
       style="fill:#e6e6e6;fill-opacity:1"
       d="m 357.59068,181.31903 c -9.53103,-23.43407 -18.72456,-49.92631 -17.68647,-50.96567 1.75777,-1.75993 92.04032,-4.2834 105.34852,-2.94458 6.325,0.6363 11.5,1.86538 11.5,2.7313 0,2.92535 -16.36057,55.02194 -17.68587,56.31672 -0.72277,0.70613 -18.60513,1.67187 -39.73858,2.14609 l -38.42445,0.86222 -3.31315,-8.14608 0,0 z"
       id="path3523"
       inkscape:connector-curvature="0" />
    <path
       style="fill:#e6e6e6;fill-opacity:1"
       d=""
       id="path3525"
       inkscape:connector-curvature="0" />
    <path
       style="fill:#e6e6e6;fill-opacity:1"
       d="m 381.38665,238.87753 c -0.76865,-2.03752 -4.29468,-10.90459 -7.83561,-19.70459 -3.54093,-8.8 -6.03351,-16.4106 -5.53907,-16.91245 1.03561,-1.05111 65.34914,-5.70055 66.50936,-4.80818 1.16115,0.89309 -11.80691,36.0085 -14.81927,40.12819 -2.09138,2.86016 -6.12174,3.73606 -19.77234,4.29703 -15.2254,0.62568 -17.30203,0.28971 -18.54307,-3 l 0,0 z"
       id="path3527"
       inkscape:connector-curvature="0" />
    <path
       style="fill:#e6e6e6;fill-opacity:1"
       d="m 379.58601,234.67294 c -1.77122,-4.125 -5.35129,-13.06052 -7.95572,-19.85671 l -4.73532,-12.35671 5.42888,-1.03899 c 2.98588,-0.57144 15.77888,-1.58286 28.42888,-2.24759 12.65,-0.66473 25.59725,-1.71002 28.77168,-2.32288 5.49834,-1.06151 5.70409,-0.84499 4.3445,4.57205 -0.78495,3.12748 -4.14393,12.73109 -7.4644,21.34135 -7.00998,18.17749 -8.89865,19.40948 -29.75514,19.40948 l -13.84296,0 -3.2204,-7.5 z"
       id="path3529"
       inkscape:connector-curvature="0" />
    <path
       style="fill:#e6e6e6;fill-opacity:1"
       d="m 452.21467,194.86107 c 1.35406,-0.54785 4.05406,-0.5812 6,-0.0741 1.94593,0.50709 0.83806,0.95533 -2.46194,0.99609 -3.3,0.0408 -4.89213,-0.37413 -3.53806,-0.92198 z"
       id="path3531"
       inkscape:connector-curvature="0" />
    <path
       style="fill:#e6e6e6;fill-opacity:1"
       d=""
       id="path3533"
       inkscape:connector-curvature="0" />
    <path
       style="fill:#e6e6e6;fill-opacity:1"
       d=""
       id="path3535"
       inkscape:connector-curvature="0" />
    <path
       style="fill:#e6e6e6;fill-opacity:1"
       d="m 443.81242,189.90168 c 3.87866,-12.43948 4.99564,-14.13545 8.46811,-12.85763 20.23434,7.44603 30.32602,12.05779 29.03255,13.26749 -0.85819,0.80261 -9.97867,2.1027 -20.26772,2.88909 l -18.70738,1.42979 1.47444,-4.72874 z"
       id="path3537"
       inkscape:connector-curvature="0" />
    <path
       style="fill:#e6e6e6;fill-opacity:1"
       d=""
       id="path3539"
       inkscape:connector-curvature="0" />
    <path
       style="fill:#e6e6e6;fill-opacity:1"
       d="m 563.83987,412.31394 c -2.58886,-4.18888 -32.47878,-17.21376 -50.08714,-21.82607 -30.16072,-7.90025 -62.42914,-10.96487 -115,-10.92186 -68.93988,0.0564 -115.90066,7.35859 -147.84212,22.98875 -7.23684,3.54125 -13.9599,6.82138 -14.94014,7.28917 -0.99323,0.47398 -1.15128,-1.66351 -0.357,-4.82818 3.20262,-12.76027 12.957,-28.43909 26.945,-43.3104 12.45792,-13.24461 17.69088,-17.13735 33,-24.54832 10.96527,-5.30816 23.35945,-9.63133 31.19426,-10.88075 7.15,-1.14022 42.54131,-2.07992 78.64737,-2.08823 65.22791,-0.015 65.74545,0.0178 80.99999,5.13074 35.73236,11.97666 64.41254,38.40046 76.37118,70.36278 3.95854,10.58018 4.61796,18.37536 1.0686,12.63237 z"
       id="path3541"
       inkscape:connector-curvature="0" />
    <path
       style="fill:#000080;fill-opacity:1"
       d="M 356.2675,457.86639 C 292.91488,454.96544 245.79468,445.2149 232.92249,432.3427 c -5.33932,-5.33932 -3.81238,-8.62329 8.06273,-17.34043 13.31219,-9.77204 41.56837,-19.5081 72.83383,-25.09592 23.05476,-4.12038 32.26131,-4.64038 82.93368,-4.68416 62.1465,-0.0537 78.20592,1.48409 115.649,11.0741 24.27244,6.21671 42.59102,14.73319 51.3457,23.87111 l 5.43288,5.67071 -8.53292,6.18122 c -25.99634,18.83166 -114.14216,29.97909 -204.37989,25.84706 l 0,0 z"
       id="path3567"
       inkscape:connector-curvature="0" />
  </g>
</svg>
